<?xml version="1.0" standalone="no"?>
<!DOCTYPE svg PUBLIC "-//W3C//DTD SVG 1.1//EN" "http://www.w3.org/Graphics/SVG/1.1/DTD/svg11.dtd">
<svg width="1024px" height="1024px" version="1.1" xmlns="http://www.w3.org/2000/svg" xmlns:xlink="http://www.w3.org/1999/xlink" xml:space="preserve" style="fill-rule:evenodd;clip-rule:evenodd;stroke-linejoin:round;stroke-miterlimit:1.41421;">
    <g>
        <g>
            <g>
                <rect x="-111.403" y="-74.4076" width="1186.18" height="1215.05" style="fill:rgb(80,214,244);"/>
            </g>
            <g>
                <path d="M531.035,372.407C482.32,323.693 414.894,293.367 340.694,293.044L338.113,293.044C304.238,293.367 272.945,303.691 246.814,321.112C201.97,350.792 172.29,401.442 171.968,459.19L171.968,461.77C172.29,532.422 199.39,596.622 243.91,644.369C252.943,654.37 268.429,655.015 278.429,645.659C285.527,638.884 287.785,628.883 285.204,620.173C285.204,619.85 284.882,619.528 284.882,619.205C284.882,618.882 284.882,618.882 284.559,618.56C278.752,601.461 275.526,583.073 275.526,563.716C275.526,560.167 275.526,556.941 275.849,553.392L275.849,552.424C278.429,520.163 304.561,495 336.177,493.386C338.758,493.386 341.016,493.386 343.597,493.386C355.211,494.032 365.857,497.903 374.89,504.033C380.052,507.581 385.859,509.84 391.989,510.485C392.311,510.485 392.634,510.485 392.957,510.485C431.67,515.001 471.351,505.968 504.903,483.708C513.936,477.901 522.324,470.804 530.067,463.061L531.357,461.77C539.422,453.383 544.907,443.382 547.488,433.058C553.295,412.088 547.488,388.86 531.035,372.407Z" style="fill:white;fill-rule:nonzero;"/>
                <path d="M482.965,627.593C531.68,676.307 599.106,706.633 673.306,706.956L675.887,706.956C709.762,706.633 741.055,696.309 767.186,678.888C812.03,649.208 841.71,598.235 842.032,540.488L842.032,537.907C841.71,467.255 814.61,403.055 770.09,355.309C761.057,345.308 745.571,344.662 735.571,354.018C728.473,360.793 726.215,370.794 728.796,379.504C728.796,379.827 729.118,380.15 729.118,380.472C729.118,380.795 729.118,380.795 729.441,381.118C735.248,398.216 738.474,416.605 738.474,435.962C738.474,439.51 738.474,442.736 738.151,446.285L738.151,447.253C735.571,479.514 709.439,504.678 677.823,506.291C675.242,506.291 672.984,506.291 670.403,506.291C658.789,505.646 648.143,501.774 639.11,495.645C633.948,492.096 628.141,489.838 622.011,489.193C621.689,489.193 621.366,489.193 621.043,489.193C582.33,484.676 542.649,493.709 509.097,515.969C500.064,521.776 491.676,528.874 483.933,536.616L482.643,537.907C474.578,546.295 469.093,556.296 466.512,566.619C460.705,587.589 466.19,611.14 482.965,627.593Z" style="fill:white;fill-rule:nonzero;"/>
            </g>
        </g>
    </g>
</svg>
