<?xml version="1.0" standalone="no"?>
<!DOCTYPE svg PUBLIC "-//W3C//DTD SVG 1.1//EN" "http://www.w3.org/Graphics/SVG/1.1/DTD/svg11.dtd">
<svg width="256px" height="256px" version="1.1" xmlns="http://www.w3.org/2000/svg" xmlns:xlink="http://www.w3.org/1999/xlink" xml:space="preserve" style="fill-rule:evenodd;clip-rule:evenodd;stroke-linejoin:round;stroke-miterlimit:1.41421;">
    <g>
        <g>
            <path d="M237.691,127.629C237.691,188.197 188.591,237.297 128.023,237.297C67.455,237.297 18.355,188.197 18.355,127.629C18.355,67.0612 67.455,17.9612 128.023,17.9612C188.591,17.9612 237.691,67.0612 237.691,127.629Z" style="fill:url(#tag1);"/>
        </g>
        <g>
            <path d="M228.009,128.089C228.009,183.056 183.449,227.615 128.482,227.615C73.5156,227.615 28.9562,183.056 28.9562,128.089C28.9562,73.1218 73.5156,28.5624 128.482,28.5624C183.449,28.5624 228.009,73.1218 228.009,128.089Z" style="fill:url(#tag2);"/>
        </g>
        <g>
            <path d="M135.405,97.6794C124.112,86.387 108.533,79.3784 91.3186,79.3021C91.2239,79.3019 91.1295,79.3019 91.0344,79.3019C90.9392,79.3019 90.8453,79.3019 90.7501,79.3021C82.9255,79.3587 75.6519,81.7315 69.5817,85.7708C59.2095,92.6701 52.349,104.43 52.2527,117.798C52.2525,117.893 52.2525,117.987 52.2525,118.082C52.2525,118.178 52.2525,118.271 52.2527,118.367C52.3249,134.699 58.6378,149.558 68.9296,160.683L68.93,160.684C71.052,162.976 74.6316,163.116 76.9258,160.995C78.6029,159.445 79.1288,157.115 78.4625,155.079C78.437,155.007 78.4122,154.935 78.3875,154.863C78.3716,154.821 78.3558,154.779 78.3388,154.737C78.3392,154.737 78.3398,154.737 78.3402,154.738C76.9638,150.761 76.2167,146.492 76.2167,142.047C76.2167,141.245 76.2409,140.449 76.289,139.659C76.2894,139.631 76.29,139.603 76.2904,139.575C76.2916,139.514 76.2985,139.453 76.3032,139.391C76.8737,131.902 82.936,126.112 90.2792,125.727C90.8514,125.696 91.4331,125.699 92.0186,125.735C94.713,125.907 97.1933,126.79 99.2887,128.188C99.2891,128.188 99.2895,128.188 99.2899,128.189C100.487,129.003 101.857,129.518 103.278,129.701C103.357,129.711 103.437,129.721 103.519,129.729C112.448,130.756 121.664,128.685 129.428,123.518C131.484,122.15 133.438,120.565 135.258,118.76C135.304,118.716 135.35,118.671 135.395,118.626C135.441,118.582 135.485,118.536 135.529,118.49C137.41,116.562 138.659,114.249 139.278,111.808C140.519,106.912 139.226,101.506 135.395,97.6756L135.405,97.6794Z" style="fill:black;fill-opacity:0.278431;fill-rule:nonzero;"/>
        </g>
        <g>
            <path d="M123.726,157.292C135.019,168.585 150.598,175.594 167.812,175.67C167.907,175.67 168.001,175.67 168.097,175.67C168.192,175.67 168.286,175.67 168.381,175.67C176.206,175.613 183.479,173.24 189.55,169.201C199.922,162.302 206.782,150.542 206.879,137.174C206.879,137.079 206.879,136.985 206.879,136.89C206.879,136.794 206.879,136.7 206.879,136.605C206.806,120.272 200.494,105.414 190.202,94.2898L190.201,94.289C188.08,91.9966 184.5,91.8572 182.206,93.9784C180.528,95.5281 180.002,97.8576 180.669,99.8942C180.694,99.9655 180.719,100.038 180.744,100.11C180.76,100.152 180.776,100.194 180.793,100.236C180.792,100.236 180.792,100.236 180.791,100.235C182.167,104.212 182.914,108.481 182.914,112.926C182.914,113.728 182.89,114.524 182.842,115.314L182.841,115.398C182.839,115.459 182.833,115.52 182.828,115.581C182.257,123.071 176.195,128.861 168.852,129.246C168.28,129.277 167.698,129.274 167.112,129.238C164.418,129.065 161.938,128.183 159.842,126.785C159.842,126.785 159.842,126.784 159.841,126.784C158.644,125.969 157.274,125.455 155.854,125.272C155.774,125.262 155.694,125.252 155.612,125.244C146.683,124.217 137.467,126.287 129.703,131.455C127.647,132.823 125.692,134.407 123.873,136.212C123.827,136.257 123.781,136.302 123.736,136.346C123.69,136.391 123.646,136.437 123.602,136.483C121.721,138.411 120.472,140.724 119.853,143.165C118.612,148.061 119.905,153.467 123.736,157.297L123.726,157.292Z" style="fill:black;fill-opacity:0.278431;fill-rule:nonzero;"/>
        </g>
        <g>
            <path d="M133.905,96.6794C122.612,85.387 107.033,78.3784 89.8186,78.3021C89.7239,78.3019 89.6295,78.3019 89.5344,78.3019C89.4392,78.3019 89.3453,78.3019 89.2501,78.3021C81.4255,78.3587 74.1519,80.7315 68.0817,84.7708C57.7095,91.6701 50.849,103.43 50.7527,116.798C50.7525,116.893 50.7525,116.987 50.7525,117.082C50.7525,117.178 50.7525,117.271 50.7527,117.367C50.8249,133.699 57.1378,148.558 67.4296,159.683L67.43,159.684C69.552,161.976 73.1316,162.116 75.4258,159.995C77.1029,158.445 77.6288,156.115 76.9625,154.079C76.937,154.007 76.9122,153.935 76.8875,153.863C76.8716,153.821 76.8558,153.779 76.8388,153.737C76.8392,153.737 76.8398,153.737 76.8402,153.738C75.4638,149.761 74.7167,145.492 74.7167,141.047C74.7167,140.245 74.7409,139.449 74.789,138.659C74.7894,138.631 74.79,138.603 74.7904,138.575C74.7916,138.514 74.7985,138.453 74.8032,138.391C75.3737,130.902 81.436,125.112 88.7792,124.727C89.3514,124.696 89.9331,124.699 90.5186,124.735C93.213,124.907 95.6933,125.79 97.7887,127.188C97.7891,127.188 97.7895,127.188 97.7899,127.189C98.987,128.003 100.357,128.518 101.778,128.701C101.857,128.711 101.937,128.721 102.019,128.729C110.948,129.756 120.164,127.685 127.928,122.518C129.984,121.15 131.938,119.565 133.758,117.76C133.804,117.716 133.85,117.671 133.895,117.626C133.941,117.582 133.985,117.536 134.029,117.49C135.91,115.562 137.159,113.249 137.778,110.808C139.019,105.912 137.726,100.506 133.895,96.6756L133.905,96.6794Z" style="fill:url(#tag3);fill-rule:nonzero;"/>
        </g>
        <g>
            <path d="M122.726,155.792C134.019,167.085 149.598,174.094 166.812,174.17C166.907,174.17 167.001,174.17 167.097,174.17C167.192,174.17 167.286,174.17 167.381,174.17C175.206,174.113 182.479,171.74 188.55,167.701C198.922,160.802 205.782,149.042 205.879,135.674C205.879,135.579 205.879,135.485 205.879,135.39C205.879,135.294 205.879,135.2 205.879,135.105C205.806,118.772 199.494,103.914 189.202,92.7898L189.201,92.789C187.08,90.4966 183.5,90.3572 181.206,92.4784C179.528,94.0281 179.002,96.3576 179.669,98.3942C179.694,98.4655 179.719,98.5379 179.744,98.6095C179.76,98.6515 179.776,98.6941 179.793,98.7361C179.792,98.7359 179.792,98.7357 179.791,98.7353C181.167,102.712 181.914,106.981 181.914,111.426C181.914,112.228 181.89,113.024 181.842,113.814L181.841,113.898C181.839,113.959 181.833,114.02 181.828,114.081C181.257,121.571 175.195,127.361 167.852,127.746C167.28,127.777 166.698,127.774 166.112,127.738C163.418,127.565 160.938,126.683 158.842,125.285C158.842,125.285 158.842,125.284 158.841,125.284C157.644,124.469 156.274,123.955 154.854,123.772C154.774,123.762 154.694,123.752 154.612,123.744C145.683,122.717 136.467,124.787 128.703,129.955C126.647,131.323 124.692,132.907 122.873,134.712C122.827,134.757 122.781,134.802 122.736,134.846C122.69,134.891 122.646,134.937 122.602,134.983C120.721,136.911 119.472,139.224 118.853,141.665C117.612,146.561 118.905,151.967 122.736,155.797L122.726,155.792Z" style="fill:url(#tag4);fill-rule:nonzero;"/>
        </g>
    </g>
    <defs>
        <linearGradient id="tag1" x1="0" y1="0" x2="1" y2="0" gradientUnits="userSpaceOnUse" gradientTransform="matrix(6.21328e-14,219.336,-219.336,6.21328e-14,128.023,17.9612)"><stop offset="0%" style="stop-color:rgb(239,250,254);stop-opacity:1"/><stop offset="100%" style="stop-color:rgb(202,202,202);stop-opacity:1"/></linearGradient>
        <linearGradient id="tag2" x1="0" y1="0" x2="1" y2="0" gradientUnits="userSpaceOnUse" gradientTransform="matrix(5.6387e-14,199.053,-199.053,5.6387e-14,128.482,28.5624)"><stop offset="0%" style="stop-color:rgb(150,244,255);stop-opacity:1"/><stop offset="100%" style="stop-color:rgb(63,197,213);stop-opacity:1"/></linearGradient>
        <linearGradient id="tag3" x1="0" y1="0" x2="1" y2="0" gradientUnits="userSpaceOnUse" gradientTransform="matrix(4.94442e-15,80.7485,-80.7485,4.94442e-15,83.84,79.9834)"><stop offset="0%" style="stop-color:white;stop-opacity:1"/><stop offset="100%" style="stop-color:rgb(208,208,208);stop-opacity:1"/></linearGradient>
        <linearGradient id="tag4" x1="0" y1="0" x2="1" y2="0" gradientUnits="userSpaceOnUse" gradientTransform="matrix(5.01116e-15,81.8384,-81.8384,5.01116e-15,155.686,93.1565)"><stop offset="0%" style="stop-color:white;stop-opacity:1"/><stop offset="100%" style="stop-color:rgb(209,209,209);stop-opacity:1"/></linearGradient>
    </defs>
</svg>
