<?xml version="1.0" encoding="utf-8"?>
<!-- Generator: Adobe Illustrator 18.1.0, SVG Export Plug-In . SVG Version: 6.00 Build 0)  -->
<svg version="1.1" id="Layer_1" xmlns="http://www.w3.org/2000/svg" xmlns:xlink="http://www.w3.org/1999/xlink" x="0px" y="0px"
	 viewBox="0 0 1170 210" enable-background="new 0 0 1170 210" xml:space="preserve">
<g>
	<g id="FInal_Logo_5_">
		<path id="L_Arm_8_" fill="#50D6F4" d="M111.3,64.6c-15.1-15.1-36-24.5-59-24.6c-0.1,0-0.3,0-0.4,0c-0.1,0-0.3,0-0.4,0
			c-10.5,0.1-20.2,3.3-28.3,8.7C9.3,57.9,0.1,73.6,0,91.5c0,0.1,0,0.3,0,0.4c0,0.1,0,0.3,0,0.4c0.1,21.9,8.5,41.8,22.3,56.6l0,0
			c0,0,0,0,0,0c2.8,3.1,7.6,3.3,10.7,0.4c2.2-2.1,2.9-5.2,2.1-7.9c0-0.1-0.1-0.2-0.1-0.3c0-0.1,0-0.1-0.1-0.2c0,0,0,0,0,0
			c-1.8-5.3-2.8-11-2.8-17c0-1.1,0-2.1,0.1-3.2c0,0,0-0.1,0-0.1c0-0.1,0-0.2,0-0.2c0.8-10,8.9-17.8,18.7-18.3c0.8,0,1.5,0,2.3,0
			c3.6,0.2,6.9,1.4,9.7,3.3c0,0,0,0,0,0c1.6,1.1,3.4,1.8,5.3,2c0.1,0,0.2,0,0.3,0c12,1.4,24.3-1.4,34.7-8.3c2.8-1.8,5.4-4,7.8-6.4
			c0.1-0.1,0.1-0.1,0.2-0.2c0.1-0.1,0.1-0.1,0.2-0.2c2.5-2.6,4.2-5.7,5-8.9C118.2,76.9,116.4,69.7,111.3,64.6z"/>
		<path id="R_Arm_8_" fill="#50D6F4" d="M96.4,143.7c15.1,15.1,36,24.5,59,24.6c0.1,0,0.3,0,0.4,0s0.3,0,0.4,0
			c10.5-0.1,20.2-3.3,28.3-8.7c13.9-9.2,23.1-25,23.2-42.9c0-0.1,0-0.3,0-0.4c0-0.1,0-0.3,0-0.4c-0.1-21.9-8.5-41.8-22.3-56.6l0,0
			c0,0,0,0,0,0c-2.8-3.1-7.6-3.3-10.7-0.4c-2.2,2.1-2.9,5.2-2.1,7.9c0,0.1,0.1,0.2,0.1,0.3c0,0.1,0,0.1,0.1,0.2c0,0,0,0,0,0
			c1.8,5.3,2.8,11,2.8,17c0,1.1,0,2.1-0.1,3.2c0,0,0,0.1,0,0.1c0,0.1,0,0.2,0,0.2c-0.8,10-8.9,17.8-18.7,18.3c-0.8,0-1.5,0-2.3,0
			c-3.6-0.2-6.9-1.4-9.7-3.3c0,0,0,0,0,0c-1.6-1.1-3.4-1.8-5.3-2c-0.1,0-0.2,0-0.3,0c-12-1.4-24.3,1.4-34.7,8.3
			c-2.8,1.8-5.4,4-7.8,6.4c-0.1,0.1-0.1,0.1-0.2,0.2c-0.1,0.1-0.1,0.1-0.2,0.2c-2.5,2.6-4.2,5.7-5,8.9
			C89.5,131.3,91.2,138.6,96.4,143.7z"/>
	</g>
	<g>
		<path fill="#50D6F4" d="M296.4,144.8c-10.3,0-19.2-4.6-25.5-13.1v34.8c0,3.7-3.2,6.9-7.2,6.9c-3.8,0-7.1-3.2-7.1-6.9V71.3
			c0-3.7,3.2-6.9,7.4-6.9c3.7,0,6.9,3.2,6.9,6.9v5.1c5.6-7.7,14.9-13,25.5-13c20.2,0,34.5,15.2,34.5,40.6
			C330.9,129.2,316.6,144.8,296.4,144.8z M292.4,76.1c-8.7,0-17.6,5.1-21.5,11.4v33c3.8,6.3,12.8,11.5,21.5,11.5
			c14.6,0,23.4-11.9,23.4-28.1S307,76.1,292.4,76.1z"/>
		<path fill="#50D6F4" d="M384.4,144.8c-24,0-39-18.4-39-40.7s14.9-40.6,39-40.6c24.2,0,39.1,18.3,39.1,40.6
			S408.7,144.8,384.4,144.8z M384.4,76.1c-15.4,0-24.2,13.1-24.2,27.9c0,14.9,8.8,28.1,24.2,28.1c15.5,0,24.2-13.1,24.2-28.1
			C408.7,89.3,400,76.1,384.4,76.1z"/>
		<path fill="#50D6F4" d="M497.4,143.8c-3.8,0-7.1-3.2-7.1-7.1V93.1c0-12.8-6.6-17-16.5-17c-9.1,0-17.3,5.5-21.5,11.4v49.2
			c0,3.8-3.2,7.1-7.2,7.1c-3.8,0-7.1-3.2-7.1-7.1V71.3c0-3.7,3.2-6.9,7.4-6.9c3.7,0,6.9,3.2,6.9,6.9v5c5.3-6.2,15.5-12.8,27.4-12.8
			c16.4,0,24.8,8.5,24.8,24.8v48.4C504.7,140.6,501.5,143.8,497.4,143.8z"/>
		<path fill="#50D6F4" d="M535.4,46c0,5-4,9.1-9.1,9.1c-5,0-9.1-4.2-9.1-9.1c0-5.1,4.2-9.3,9.1-9.3C531.4,36.7,535.4,40.9,535.4,46z
			 M526.3,143.8c-3.8,0-7.1-3.2-7.1-7.1V71.3c0-3.7,3.2-6.9,7.4-6.9c3.7,0,6.9,3.2,6.9,6.9v65.4
			C533.5,140.6,530.3,143.8,526.3,143.8z"/>
		<path fill="#50D6F4" d="M621,74.1l-26,63c-1.8,4-5.8,6.7-10.3,6.7h-0.3c-4.3,0-8.2-2.7-9.8-6.7l-26.1-63c-0.3-0.8-0.5-1.8-0.5-2.6
			c0-3.5,2.9-7.1,7.2-7.1c2.9,0,5.5,1.6,6.6,4.5l22.9,57.4l22.8-57.4c1.1-2.7,3.8-4.5,6.6-4.5c4.3,0,7.4,3.4,7.4,7.1
			C621.5,72.3,621.3,73.3,621,74.1z"/>
		<path fill="#50D6F4" d="M696.8,108.7H643c1.1,13.3,10.7,24.5,26.4,24.5c6.6,0,13.6-2.2,19.2-6.4c1-0.5,2.1-0.8,3.2-0.8
			c2.6,0,5.8,2.2,5.8,5.8c0,8.7-19.9,13-29.7,13c-23.1,0-39.9-16.3-39.9-40.7c0-22.4,16.2-40.6,38.6-40.6c18.8,0,31.6,11.7,36.1,29
			c0.6,2.6,1.4,5.9,1.4,9C704.2,105.3,700.8,108.7,696.8,108.7z M666.5,75c-15.4,0-22.9,12.8-23.6,23.6h47.4
			C690.1,88.2,683.1,75,666.5,75z"/>
		<path fill="#50D6F4" d="M752.3,78.2c-7.4,0.6-14.6,3.8-19.2,10.7v47.8c0,3.8-3.2,7.1-7.2,7.1h-0.2c-3.8-0.2-6.9-3.2-6.9-7.1V71.3
			c0-3.7,3.2-6.9,7.4-6.9c3.7,0,6.9,3.2,6.9,6.9v6.1c4.3-5.9,11.4-13.1,20-13.1c3.7,0,6.4,2.7,6.4,6.4
			C759.5,74.9,756.3,77.9,752.3,78.2z"/>
		<path fill="#50D6F4" d="M799.7,144.8c-10.6,0-22.3-3-29.3-10.1c-1.1-1-1.8-2.2-1.8-3.8c0-3.4,2.9-5.9,6.3-5.9
			c1.4,0,2.6,0.3,3.7,1.1c5.8,4.2,13.8,7.4,21.8,7.4c11.1,0,16.8-5,16.8-12c0-17.2-47.3-5.9-47.3-35.1c0-12.2,10.6-22.8,29.5-22.8
			c11.1,0,20.8,3.4,26.9,9.3c1,1,1.4,2.2,1.4,3.5c0,3.2-2.7,5.6-5.6,5.6c-1.3,0-2.4-0.3-3.4-1.1c-5-3.5-11.9-5.9-19.2-5.9
			c-9.8,0-15.9,4.6-15.9,10.9c0,15.5,47.4,4.8,47.4,35.3C831.2,134.2,820.3,144.8,799.7,144.8z"/>
		<path fill="#50D6F4" d="M912.4,108.7h-53.9c1.1,13.3,10.7,24.5,26.4,24.5c6.6,0,13.6-2.2,19.2-6.4c1-0.5,2.1-0.8,3.2-0.8
			c2.6,0,5.8,2.2,5.8,5.8c0,8.7-19.9,13-29.7,13c-23.1,0-39.9-16.3-39.9-40.7c0-22.4,16.2-40.6,38.6-40.6c18.8,0,31.6,11.7,36.1,29
			c0.6,2.6,1.4,5.9,1.4,9C919.8,105.3,916.4,108.7,912.4,108.7z M882.1,75c-15.4,0-22.9,12.8-23.6,23.6H906
			C905.7,88.2,898.6,75,882.1,75z"/>
		<path fill="#50D6F4" d="M939,144.4c-4.8,0-8.8-4-8.8-8.8c0-4.8,4-8.8,8.8-8.8s8.8,4,8.8,8.8C947.8,140.4,943.8,144.4,939,144.4z"
			/>
		<path fill="#50D6F4" d="M1020.6,143.8c-3.2,0-5.9-2.7-5.9-5.9V92.2c0-13.6-6.9-18-17.3-18c-9.5,0-18.4,5.8-22.9,12v51.6
			c0,3.2-2.7,5.9-6.1,5.9c-3.2,0-5.9-2.7-5.9-5.9V70.2c0-3,2.7-5.8,6.3-5.8c3,0,5.8,2.7,5.8,5.8v6.4c5.5-6.4,16-13.1,27.6-13.1
			c16.2,0,24.7,8.2,24.7,25v49.4C1026.7,141.1,1024,143.8,1020.6,143.8z"/>
		<path fill="#50D6F4" d="M1109.7,108h-55.9c1,14.6,11.2,26.8,27.9,26.8c7.4,0,14.7-2.4,20.8-7.2c0.8-0.5,1.8-0.8,2.7-0.8
			c2.1,0,4.8,1.9,4.8,5c0,8.3-20,13-29.5,13c-22.9,0-39.4-16.5-39.4-40.7c0-22.4,16-40.6,38.2-40.6c19.2,0,31.9,12.2,35.9,30
			c0.5,2.4,1.1,5.3,1.1,8C1116.3,105,1113.4,108,1109.7,108z M1079.1,73.4c-16.5,0-24.7,13.9-25.3,25.8h50.8
			C1104.4,87.7,1096.8,73.4,1079.1,73.4z"/>
		<path fill="#50D6F4" d="M1155.7,144.8c-11.4,0-17.2-6.6-17.2-18.1V76h-8.7c-2.9,0-5.1-2.2-5.1-5.5c0-2.9,2.2-5.1,5.1-5.1h8.7V49.1
			c0-3,2.7-5.8,6.3-5.8c3,0,5.8,2.7,5.8,5.8v16.3h11.5c2.9,0,5.1,2.2,5.1,5.5c0,2.9-2.2,5.1-5.1,5.1h-11.5v48.1
			c0,5.8,2.6,9.9,7.9,9.9c2.1,0,4.5-1.1,6.4-1.1c2.7,0,5.1,2.2,5.1,5C1170,143,1162.6,144.8,1155.7,144.8z"/>
	</g>
</g>
</svg>
