<?xml version="1.0" encoding="utf-8"?>
<!-- Generator: Adobe Illustrator 18.1.0, SVG Export Plug-In . SVG Version: 6.00 Build 0)  -->
<svg version="1.1" id="distant_stars_1_" xmlns="http://www.w3.org/2000/svg" xmlns:xlink="http://www.w3.org/1999/xlink" x="0px"
	 y="0px" viewBox="0 0 1920 1080" enable-background="new 0 0 1920 1080" xml:space="preserve">
<linearGradient id="SVGID_1_" gradientUnits="userSpaceOnUse" x1="-61.254" y1="911.7061" x2="1981.254" y2="168.2939">
	<stop  offset="6.543464e-04" style="stop-color:#5B147A"/>
	<stop  offset="1" style="stop-color:#0C9E83"/>
</linearGradient>
<rect fill="url(#SVGID_1_)" width="1920" height="1080"/>
<g opacity="0.1">
	<g>
		<circle fill="#F2F4DC" cx="1843.8" cy="1039.5" r="7.9"/>
		<circle fill="#F2F4DC" cx="1887.1" cy="786.1" r="7.9"/>
		<circle fill="#F2F4DC" cx="1339.4" cy="928.8" r="7.9"/>
		<circle fill="#F2F4DC" cx="1596.1" cy="915.5" r="7.9"/>
		<circle fill="#F2F4DC" cx="1458.1" cy="716.6" r="7.9"/>
		<circle fill="#F2F4DC" cx="1730.9" cy="741.4" r="7.9"/>
		<circle fill="#F2F4DC" cx="110.3" cy="536.7" r="7.9"/>
		<circle fill="#F2F4DC" cx="177.1" cy="498.4" r="7.9"/>
		<circle fill="#F2F4DC" cx="1321.2" cy="556.4" r="7.9"/>
		<circle fill="#F2F4DC" cx="58.4" cy="710.6" r="7.9"/>
	</g>
	<g>
		<circle fill="#F2F4DC" cx="1744.8" cy="1036.1" r="4"/>
		<circle fill="#F2F4DC" cx="1803.4" cy="758.6" r="4"/>
		<circle fill="#F2F4DC" cx="1630.6" cy="891.2" r="4"/>
		<circle fill="#F2F4DC" cx="1799.1" cy="833.1" r="4"/>
		<circle fill="#F2F4DC" cx="1376.9" cy="954.6" r="4"/>
		<circle fill="#F2F4DC" cx="1435.6" cy="677.1" r="4"/>
		<circle fill="#F2F4DC" cx="1493.6" cy="851.1" r="4"/>
		<path fill="#F2F4DC" d="M1607.4,1070.5c0-2.2-1.8-4-4-3.9s-4,1.8-3.9,4"/>
		<circle fill="#F2F4DC" cx="1662.1" cy="793" r="4"/>
		<circle fill="#F2F4DC" cx="1298.6" cy="637" r="4"/>
		<circle fill="#F2F4DC" cx="1885.7" cy="871.2" r="4"/>
		<circle fill="#F2F4DC" cx="1704.6" cy="807.8" r="4"/>
		<circle fill="#F2F4DC" cx="12.4" cy="475.9" r="4"/>
		<circle fill="#F2F4DC" cx="1362.5" cy="788.4" r="4"/>
		<circle fill="#F2F4DC" cx="134.4" cy="519.3" r="4"/>
		<circle fill="#F2F4DC" cx="1604.8" cy="1023.5" r="4"/>
		<circle fill="#F2F4DC" cx="1363.3" cy="910.9" r="4"/>
	</g>
	<g>
		<circle fill="#F2F4DC" cx="665.8" cy="550.4" r="7.9"/>
		<circle fill="#F2F4DC" cx="279" cy="400.1" r="7.9"/>
		<circle fill="#F2F4DC" cx="247.6" cy="876" r="7.9"/>
		<circle fill="#F2F4DC" cx="662.7" cy="807.4" r="7.9"/>
		<circle fill="#F2F4DC" cx="367" cy="591.8" r="7.9"/>
		<circle fill="#F2F4DC" cx="451.8" cy="1008" r="7.9"/>
		<circle fill="#F2F4DC" cx="1181.3" cy="580.7" r="7.9"/>
		<circle fill="#F2F4DC" cx="1243.2" cy="170.4" r="7.9"/>
		<circle fill="#F2F4DC" cx="771.9" cy="244.1" r="7.9"/>
		<circle fill="#F2F4DC" cx="929.9" cy="634.1" r="7.9"/>
		<circle fill="#F2F4DC" cx="1097.3" cy="808.9" r="7.9"/>
		<circle fill="#F2F4DC" cx="1159.2" cy="398.5" r="7.9"/>
		<circle fill="#F2F4DC" cx="970.3" cy="322.7" r="7.9"/>
		<circle fill="#F2F4DC" cx="688" cy="472.3" r="7.9"/>
		<circle fill="#F2F4DC" cx="824" cy="827.1" r="7.9"/>
		<circle fill="#F2F4DC" cx="173.9" cy="577.4" r="7.9"/>
		<circle fill="#F2F4DC" cx="1257.6" cy="945.7" r="7.9"/>
		<circle fill="#F2F4DC" cx="567.8" cy="282" r="7.9"/>
		<circle fill="#F2F4DC" cx="1672.7" cy="61.6" r="7.9"/>
		<path fill="#F2F4DC" d="M1921.2,0.9c-4.1,1.6-6,6.3-4.4,10.3"/>
	</g>
	<g>
		<circle fill="#F2F4DC" cx="538" cy="357.3" r="4"/>
		<circle fill="#F2F4DC" cx="523.6" cy="640.6" r="4"/>
		<circle fill="#F2F4DC" cx="380.7" cy="441" r="4"/>
		<circle fill="#F2F4DC" cx="366.2" cy="724.3" r="4"/>
		<circle fill="#F2F4DC" cx="764.2" cy="538.2" r="4"/>
		<circle fill="#F2F4DC" cx="749.7" cy="821.5" r="4"/>
		<circle fill="#F2F4DC" cx="394.6" cy="649.7" r="4"/>
		<circle fill="#F2F4DC" cx="380.2" cy="933" r="4"/>
		<circle fill="#F2F4DC" cx="237.3" cy="733.5" r="4"/>
		<circle fill="#F2F4DC" cx="222.8" cy="1016.8" r="4"/>
		<circle fill="#F2F4DC" cx="620.8" cy="830.6" r="4"/>
		<circle fill="#F2F4DC" cx="914.1" cy="380.2" r="4"/>
		<circle fill="#F2F4DC" cx="899.6" cy="663.5" r="4"/>
		<circle fill="#F2F4DC" cx="756.8" cy="463.9" r="4"/>
		<circle fill="#F2F4DC" cx="742.3" cy="747.2" r="4"/>
		<circle fill="#F2F4DC" cx="1140.2" cy="561.1" r="4"/>
		<circle fill="#F2F4DC" cx="1125.7" cy="844.4" r="4"/>
		<circle fill="#F2F4DC" cx="295.5" cy="420.7" r="4"/>
		<circle fill="#F2F4DC" cx="138.2" cy="504.4" r="4"/>
		<circle fill="#F2F4DC" cx="536.1" cy="318.3" r="4"/>
		<circle fill="#F2F4DC" cx="521.6" cy="601.6" r="4"/>
		<circle fill="#F2F4DC" cx="129.4" cy="356.7" r="4"/>
		<circle fill="#F2F4DC" cx="1055.6" cy="398.3" r="4"/>
		<circle fill="#F2F4DC" cx="1041.2" cy="681.6" r="4"/>
		<circle fill="#F2F4DC" cx="898.3" cy="482.1" r="4"/>
		<circle fill="#F2F4DC" cx="883.8" cy="765.4" r="4"/>
		<circle fill="#F2F4DC" cx="1267.3" cy="862.5" r="4"/>
		<circle fill="#F2F4DC" cx="650.8" cy="723.1" r="4"/>
		<circle fill="#F2F4DC" cx="636.3" cy="1006.4" r="4"/>
		<circle fill="#F2F4DC" cx="493.5" cy="806.9" r="4"/>
		<circle fill="#F2F4DC" cx="854.1" cy="474.1" r="4"/>
		<circle fill="#F2F4DC" cx="839.6" cy="757.4" r="4"/>
		<circle fill="#F2F4DC" cx="1180.5" cy="723" r="4"/>
		<circle fill="#F2F4DC" cx="1205.1" cy="152.6" r="4"/>
		<circle fill="#F2F4DC" cx="1047.7" cy="236.3" r="4"/>
		<circle fill="#F2F4DC" cx="1445.7" cy="50.2" r="4"/>
		<circle fill="#F2F4DC" cx="1431.2" cy="333.5" r="4"/>
		<circle fill="#F2F4DC" cx="1076.2" cy="161.7" r="4"/>
		<circle fill="#F2F4DC" cx="1061.7" cy="445" r="4"/>
		<circle fill="#F2F4DC" cx="918.8" cy="245.4" r="4"/>
		<circle fill="#F2F4DC" cx="904.3" cy="528.7" r="4"/>
		<circle fill="#F2F4DC" cx="1302.3" cy="342.6" r="4"/>
		<circle fill="#F2F4DC" cx="1581.1" cy="175.5" r="4"/>
		<circle fill="#F2F4DC" cx="1423.8" cy="259.2" r="4"/>
		<circle fill="#F2F4DC" cx="1203.1" cy="113.5" r="4"/>
		<circle fill="#F2F4DC" cx="1445.2" cy="102" r="4"/>
		<circle fill="#F2F4DC" cx="1535.2" cy="103.2" r="4"/>
		<circle fill="#F2F4DC" cx="1332.3" cy="235.1" r="4"/>
		<circle fill="#F2F4DC" cx="1175" cy="318.9" r="4"/>
		<circle fill="#F2F4DC" cx="1160.5" cy="602.2" r="4"/>
		<circle fill="#F2F4DC" cx="1503.4" cy="210.9" r="4"/>
	</g>
	<g>
		<circle fill="#F2F4DC" cx="178.4" cy="334.7" r="7.9"/>
		<circle fill="#F2F4DC" cx="94.4" cy="562.8" r="7.9"/>
		<circle fill="#F2F4DC" cx="156.2" cy="152.5" r="7.9"/>
		<circle fill="#F2F4DC" cx="1780.1" cy="486.2" r="7.9"/>
		<circle fill="#F2F4DC" cx="1661" cy="404.4" r="7.9"/>
		<circle fill="#F2F4DC" cx="1453.7" cy="529.4" r="7.9"/>
		<circle fill="#F2F4DC" cx="1871.9" cy="203.8" r="7.9"/>
		<circle fill="#F2F4DC" cx="1393.8" cy="577.8" r="7.9"/>
		<circle fill="#F2F4DC" cx="254.7" cy="699.6" r="7.9"/>
		<circle fill="#F2F4DC" cx="1477.8" cy="349.6" r="7.9"/>
		<circle fill="#F2F4DC" cx="1673.2" cy="279.1" r="7.9"/>
		<circle fill="#F2F4DC" cx="1757.1" cy="50.9" r="7.9"/>
	</g>
	<g>
		<circle fill="#F2F4DC" cx="137.3" cy="315" r="4"/>
		<circle fill="#F2F4DC" cx="122.8" cy="598.3" r="4"/>
		<circle fill="#F2F4DC" cx="52.7" cy="152.3" r="4"/>
		<circle fill="#F2F4DC" cx="38.2" cy="435.6" r="4"/>
		<circle fill="#F2F4DC" cx="264.3" cy="616.5" r="4"/>
		<circle fill="#F2F4DC" cx="1908.8" cy="484.6" r="4"/>
		<circle fill="#F2F4DC" cx="1717.8" cy="-1.6" r="4"/>
		<circle fill="#F2F4DC" cx="1703.3" cy="281.7" r="4"/>
		<circle fill="#F2F4DC" cx="1574.4" cy="290.9" r="4"/>
		<circle fill="#F2F4DC" cx="1559.9" cy="574.2" r="4"/>
		<circle fill="#F2F4DC" cx="1853.2" cy="123.7" r="4"/>
		<circle fill="#F2F4DC" cx="1695.9" cy="207.5" r="4"/>
		<circle fill="#F2F4DC" cx="1624.7" cy="92.1" r="4"/>
		<circle fill="#F2F4DC" cx="1599.5" cy="37.2" r="4"/>
		<circle fill="#F2F4DC" cx="1837.5" cy="225.6" r="4"/>
		<circle fill="#F2F4DC" cx="1604.4" cy="183.4" r="4"/>
		<circle fill="#F2F4DC" cx="1589.9" cy="466.7" r="4"/>
		<circle fill="#F2F4DC" cx="177.5" cy="476.9" r="4"/>
		<circle fill="#F2F4DC" cx="1432.6" cy="550.4" r="4"/>
		<circle fill="#F2F4DC" cx="1830.5" cy="364.3" r="4"/>
		<circle fill="#F2F4DC" cx="428.2" cy="87.4" r="4"/>
		<circle fill="#F2F4DC" cx="58.7" cy="198.9" r="4"/>
		<circle fill="#F2F4DC" cx="299.3" cy="96.5" r="4"/>
		<circle fill="#F2F4DC" cx="420.8" cy="13.1" r="4"/>
		<circle fill="#F2F4DC" cx="172" cy="72.8" r="4"/>
		<circle fill="#F2F4DC" cx="234.8" cy="40.8" r="4"/>
		<circle fill="#F2F4DC" cx="157.6" cy="356.1" r="4"/>
	</g>
	<g>
		<circle fill="#F2F4DC" cx="91.6" cy="132.4" r="7.9"/>
		<circle fill="#F2F4DC" cx="506.7" cy="63.8" r="7.9"/>
		<circle fill="#F2F4DC" cx="93.3" cy="338.2" r="7.9"/>
		<circle fill="#F2F4DC" cx="295.8" cy="264.4" r="7.9"/>
		<circle fill="#F2F4DC" cx="315.8" cy="482.4" r="7.9"/>
		<circle fill="#F2F4DC" cx="941.4" cy="65.3" r="7.9"/>
		<circle fill="#F2F4DC" cx="668.1" cy="83.5" r="7.9"/>
		<circle fill="#F2F4DC" cx="1101.7" cy="202" r="7.9"/>
	</g>
	<g>
		<circle fill="#F2F4DC" cx="593.7" cy="77.8" r="4"/>
		<circle fill="#F2F4DC" cx="224.2" cy="189.4" r="4"/>
		<circle fill="#F2F4DC" cx="66.9" cy="273.1" r="4"/>
		<circle fill="#F2F4DC" cx="464.8" cy="87" r="4"/>
		<circle fill="#F2F4DC" cx="450.3" cy="370.3" r="4"/>
		<circle fill="#F2F4DC" cx="586.3" cy="3.6" r="4"/>
		<circle fill="#F2F4DC" cx="969.8" cy="100.7" r="4"/>
		<circle fill="#F2F4DC" cx="727.9" cy="21.7" r="4"/>
		<circle fill="#F2F4DC" cx="1111.3" cy="118.9" r="4"/>
		<circle fill="#F2F4DC" cx="480.4" cy="262.8" r="4"/>
		<circle fill="#F2F4DC" cx="337.5" cy="63.2" r="4"/>
		<circle fill="#F2F4DC" cx="323.1" cy="346.5" r="4"/>
		<circle fill="#F2F4DC" cx="98.1" cy="486.1" r="4"/>
		<circle fill="#F2F4DC" cx="683.6" cy="13.8" r="4"/>
		<circle fill="#F2F4DC" cx="322.9" cy="573.6" r="4"/>
	</g>
	<g>
		<circle fill="#F2F4DC" cx="147.5" cy="213.1" r="7.9"/>
		<circle fill="#F2F4DC" cx="381.1" cy="589.7" r="7.9"/>
		<circle fill="#F2F4DC" cx="508" cy="813.2" r="7.9"/>
	</g>
	<g>
		<circle fill="#F2F4DC" cx="641.1" cy="965.1" r="4"/>
		<circle fill="#F2F4DC" cx="153" cy="171.4" r="4"/>
		<circle fill="#F2F4DC" cx="25.6" cy="46.8" r="4"/>
		<circle fill="#F2F4DC" cx="323.3" cy="369.8" r="4"/>
		<circle fill="#F2F4DC" cx="48.9" cy="441.7" r="4"/>
		<circle fill="#F2F4DC" cx="105.3" cy="51.3" r="4"/>
		<circle fill="#F2F4DC" cx="1.2" cy="321.6" r="4"/>
		<circle fill="#F2F4DC" cx="244.9" cy="536.8" r="4"/>
		<circle fill="#F2F4DC" cx="117.5" cy="412.1" r="4"/>
		<circle fill="#F2F4DC" cx="189.6" cy="157.8" r="4"/>
		<circle fill="#F2F4DC" cx="579.7" cy="915.1" r="4"/>
		<circle fill="#F2F4DC" cx="273.8" cy="385" r="4"/>
		<path fill="#F2F4DC" d="M650.4,1066.6c-1-1.9-3.4-2.7-5.3-1.7c-1.9,1-2.7,3.4-1.7,5.3"/>
		<circle fill="#F2F4DC" cx="299.9" cy="471.1" r="4"/>
		<circle fill="#F2F4DC" cx="112.8" cy="317.7" r="4"/>
		<circle fill="#F2F4DC" cx="187.7" cy="473.4" r="4"/>
	</g>
</g>
<g>
	<g opacity="0.15">
		<g>
			<circle fill="#F2F4DC" cx="1890" cy="1226.7" r="9.3"/>
			<circle fill="#F2F4DC" cx="1941" cy="927.9" r="9.3"/>
			<circle fill="#F2F4DC" cx="1295.2" cy="1096.2" r="9.3"/>
			<circle fill="#F2F4DC" cx="1597.8" cy="1080.5" r="9.3"/>
			<circle fill="#F2F4DC" cx="1435.1" cy="845.9" r="9.3"/>
			<circle fill="#F2F4DC" cx="1756.8" cy="875.2" r="9.3"/>
			<circle fill="#F2F4DC" cx="-154.1" cy="633.8" r="9.3"/>
			<circle fill="#F2F4DC" cx="-75.4" cy="588.6" r="9.3"/>
			<circle fill="#F2F4DC" cx="1273.7" cy="657.1" r="9.3"/>
			<circle fill="#F2F4DC" cx="-215.3" cy="838.8" r="9.3"/>
		</g>
		<g>
			<circle fill="#F2F4DC" cx="1773.1" cy="1222.8" r="4.7"/>
			<circle fill="#F2F4DC" cx="1842.3" cy="895.5" r="4.7"/>
			<circle fill="#F2F4DC" cx="1638.6" cy="1051.8" r="4.7"/>
			<circle fill="#F2F4DC" cx="1837.2" cy="983.4" r="4.7"/>
			<circle fill="#F2F4DC" cx="1339.4" cy="1126.7" r="4.7"/>
			<circle fill="#F2F4DC" cx="1408.6" cy="799.4" r="4.7"/>
			<circle fill="#F2F4DC" cx="1477" cy="1004.5" r="4.7"/>
			<path fill="#F2F4DC" d="M1611.2,1263.3c0-2.6-2.1-4.7-4.7-4.6c-2.6,0-4.7,2.1-4.6,4.7"/>
			<circle fill="#F2F4DC" cx="1675.7" cy="936.1" r="4.7"/>
			<circle fill="#F2F4DC" cx="1247.1" cy="752.1" r="4.7"/>
			<circle fill="#F2F4DC" cx="1939.3" cy="1028.3" r="4.7"/>
			<circle fill="#F2F4DC" cx="1725.8" cy="953.5" r="4.7"/>
			<circle fill="#F2F4DC" cx="-269.5" cy="562.2" r="4.7"/>
			<circle fill="#F2F4DC" cx="1322.4" cy="930.7" r="4.7"/>
			<circle fill="#F2F4DC" cx="-125.7" cy="613.3" r="4.7"/>
			<circle fill="#F2F4DC" cx="1608.1" cy="1207.9" r="4.7"/>
			<circle fill="#F2F4DC" cx="1323.4" cy="1075.1" r="4.7"/>
		</g>
		<g>
			<circle fill="#F2F4DC" cx="500.9" cy="650" r="9.3"/>
			<circle fill="#F2F4DC" cx="44.8" cy="472.8" r="9.3"/>
			<circle fill="#F2F4DC" cx="7.8" cy="1034" r="9.3"/>
			<circle fill="#F2F4DC" cx="497.2" cy="953.1" r="9.3"/>
			<circle fill="#F2F4DC" cx="148.5" cy="698.8" r="9.3"/>
			<circle fill="#F2F4DC" cx="248.6" cy="1189.6" r="9.3"/>
			<circle fill="#F2F4DC" cx="1108.8" cy="685.8" r="9.3"/>
			<circle fill="#F2F4DC" cx="1181.7" cy="201.9" r="9.3"/>
			<circle fill="#F2F4DC" cx="626" cy="288.8" r="9.3"/>
			<circle fill="#F2F4DC" cx="812.3" cy="748.7" r="9.3"/>
			<circle fill="#F2F4DC" cx="1009.8" cy="954.8" r="9.3"/>
			<circle fill="#F2F4DC" cx="1082.7" cy="470.9" r="9.3"/>
			<circle fill="#F2F4DC" cx="859.9" cy="381.5" r="9.3"/>
			<circle fill="#F2F4DC" cx="527" cy="557.9" r="9.3"/>
			<circle fill="#F2F4DC" cx="687.5" cy="976.3" r="9.3"/>
			<circle fill="#F2F4DC" cx="-79.1" cy="681.8" r="9.3"/>
			<circle fill="#F2F4DC" cx="1198.8" cy="1116.1" r="9.3"/>
			<circle fill="#F2F4DC" cx="385.4" cy="333.5" r="9.3"/>
			<circle fill="#F2F4DC" cx="1688.2" cy="73.6" r="9.3"/>
			<path fill="#F2F4DC" d="M1981.2,2.1c-4.8,1.9-7.1,7.4-5.2,12.2"/>
		</g>
		<g>
			<circle fill="#F2F4DC" cx="350.3" cy="422.3" r="4.7"/>
			<circle fill="#F2F4DC" cx="333.2" cy="756.3" r="4.7"/>
			<circle fill="#F2F4DC" cx="164.7" cy="521" r="4.7"/>
			<circle fill="#F2F4DC" cx="147.7" cy="855.1" r="4.7"/>
			<circle fill="#F2F4DC" cx="616.9" cy="635.6" r="4.7"/>
			<circle fill="#F2F4DC" cx="599.8" cy="969.6" r="4.7"/>
			<circle fill="#F2F4DC" cx="181.2" cy="767.1" r="4.7"/>
			<circle fill="#F2F4DC" cx="164.1" cy="1101.2" r="4.7"/>
			<circle fill="#F2F4DC" cx="-4.3" cy="865.8" r="4.7"/>
			<circle fill="#F2F4DC" cx="-21.4" cy="1199.9" r="4.7"/>
			<circle fill="#F2F4DC" cx="447.8" cy="980.4" r="4.7"/>
			<circle fill="#F2F4DC" cx="793.7" cy="449.3" r="4.7"/>
			<circle fill="#F2F4DC" cx="776.6" cy="783.3" r="4.7"/>
			<circle fill="#F2F4DC" cx="608.2" cy="548" r="4.7"/>
			<circle fill="#F2F4DC" cx="591.1" cy="882.1" r="4.7"/>
			<circle fill="#F2F4DC" cx="1060.3" cy="662.6" r="4.7"/>
			<circle fill="#F2F4DC" cx="1043.2" cy="996.6" r="4.7"/>
			<circle fill="#F2F4DC" cx="64.2" cy="497" r="4.7"/>
			<circle fill="#F2F4DC" cx="-121.3" cy="595.7" r="4.7"/>
			<circle fill="#F2F4DC" cx="348" cy="376.3" r="4.7"/>
			<circle fill="#F2F4DC" cx="330.9" cy="710.3" r="4.7"/>
			<circle fill="#F2F4DC" cx="-131.6" cy="421.6" r="4.7"/>
			<circle fill="#F2F4DC" cx="960.6" cy="470.7" r="4.7"/>
			<circle fill="#F2F4DC" cx="943.5" cy="804.7" r="4.7"/>
			<circle fill="#F2F4DC" cx="775.1" cy="569.4" r="4.7"/>
			<circle fill="#F2F4DC" cx="758" cy="903.5" r="4.7"/>
			<circle fill="#F2F4DC" cx="1210.1" cy="1018" r="4.7"/>
			<circle fill="#F2F4DC" cx="483.2" cy="853.7" r="4.7"/>
			<circle fill="#F2F4DC" cx="466.1" cy="1187.7" r="4.7"/>
			<circle fill="#F2F4DC" cx="297.7" cy="952.4" r="4.7"/>
			<circle fill="#F2F4DC" cx="722.9" cy="560.1" r="4.7"/>
			<circle fill="#F2F4DC" cx="705.8" cy="894.1" r="4.7"/>
			<circle fill="#F2F4DC" cx="1107.8" cy="853.5" r="4.7"/>
			<circle fill="#F2F4DC" cx="1136.8" cy="180.9" r="4.7"/>
			<circle fill="#F2F4DC" cx="951.3" cy="279.6" r="4.7"/>
			<circle fill="#F2F4DC" cx="1420.5" cy="60.1" r="4.7"/>
			<circle fill="#F2F4DC" cx="1403.4" cy="394.2" r="4.7"/>
			<circle fill="#F2F4DC" cx="984.8" cy="191.7" r="4.7"/>
			<circle fill="#F2F4DC" cx="967.7" cy="525.7" r="4.7"/>
			<circle fill="#F2F4DC" cx="799.3" cy="290.4" r="4.7"/>
			<circle fill="#F2F4DC" cx="782.2" cy="624.5" r="4.7"/>
			<circle fill="#F2F4DC" cx="1251.4" cy="405" r="4.7"/>
			<circle fill="#F2F4DC" cx="1580.2" cy="207.9" r="4.7"/>
			<circle fill="#F2F4DC" cx="1394.7" cy="306.6" r="4.7"/>
			<circle fill="#F2F4DC" cx="1134.5" cy="134.9" r="4.7"/>
			<circle fill="#F2F4DC" cx="1420" cy="121.2" r="4.7"/>
			<circle fill="#F2F4DC" cx="1526" cy="122.7" r="4.7"/>
			<circle fill="#F2F4DC" cx="1286.8" cy="278.2" r="4.7"/>
			<circle fill="#F2F4DC" cx="1101.3" cy="377" r="4.7"/>
			<circle fill="#F2F4DC" cx="1084.2" cy="711" r="4.7"/>
			<circle fill="#F2F4DC" cx="1488.6" cy="249.6" r="4.7"/>
		</g>
		<g>
			<circle fill="#F2F4DC" cx="-73.8" cy="395.6" r="9.3"/>
			<circle fill="#F2F4DC" cx="-172.9" cy="664.7" r="9.3"/>
			<circle fill="#F2F4DC" cx="-100" cy="180.8" r="9.3"/>
			<circle fill="#F2F4DC" cx="1814.8" cy="574.3" r="9.3"/>
			<circle fill="#F2F4DC" cx="1674.4" cy="477.8" r="9.3"/>
			<circle fill="#F2F4DC" cx="1429.9" cy="625.3" r="9.3"/>
			<circle fill="#F2F4DC" cx="1923" cy="241.3" r="9.3"/>
			<circle fill="#F2F4DC" cx="1359.3" cy="682.3" r="9.3"/>
			<circle fill="#F2F4DC" cx="16.1" cy="825.9" r="9.3"/>
			<circle fill="#F2F4DC" cx="1458.3" cy="413.2" r="9.3"/>
			<circle fill="#F2F4DC" cx="1688.7" cy="330.1" r="9.3"/>
			<circle fill="#F2F4DC" cx="1787.8" cy="61" r="9.3"/>
		</g>
		<g>
			<circle fill="#F2F4DC" cx="-122.3" cy="372.4" r="4.7"/>
			<circle fill="#F2F4DC" cx="-139.4" cy="706.5" r="4.7"/>
			<circle fill="#F2F4DC" cx="-222" cy="180.5" r="4.7"/>
			<circle fill="#F2F4DC" cx="-239.1" cy="514.6" r="4.7"/>
			<circle fill="#F2F4DC" cx="27.5" cy="727.9" r="4.7"/>
			<circle fill="#F2F4DC" cx="1966.6" cy="572.4" r="4.7"/>
			<circle fill="#F2F4DC" cx="1741.3" cy="-0.9" r="4.7"/>
			<circle fill="#F2F4DC" cx="1724.3" cy="333.2" r="4.7"/>
			<circle fill="#F2F4DC" cx="1572.3" cy="344" r="4.7"/>
			<circle fill="#F2F4DC" cx="1555.2" cy="678" r="4.7"/>
			<circle fill="#F2F4DC" cx="1901" cy="146.9" r="4.7"/>
			<circle fill="#F2F4DC" cx="1715.5" cy="245.6" r="4.7"/>
			<circle fill="#F2F4DC" cx="1631.5" cy="109.6" r="4.7"/>
			<circle fill="#F2F4DC" cx="1601.9" cy="44.9" r="4.7"/>
			<circle fill="#F2F4DC" cx="1882.5" cy="267" r="4.7"/>
			<circle fill="#F2F4DC" cx="1607.7" cy="217.2" r="4.7"/>
			<circle fill="#F2F4DC" cx="1590.6" cy="551.3" r="4.7"/>
			<circle fill="#F2F4DC" cx="-74.8" cy="563.3" r="4.7"/>
			<circle fill="#F2F4DC" cx="1405.1" cy="650" r="4.7"/>
			<circle fill="#F2F4DC" cx="1874.3" cy="430.5" r="4.7"/>
			<circle fill="#F2F4DC" cx="220.8" cy="104.1" r="4.7"/>
			<circle fill="#F2F4DC" cx="-214.9" cy="235.6" r="4.7"/>
			<circle fill="#F2F4DC" cx="68.8" cy="114.8" r="4.7"/>
			<circle fill="#F2F4DC" cx="212" cy="16.5" r="4.7"/>
			<circle fill="#F2F4DC" cx="-81.3" cy="86.8" r="4.7"/>
			<circle fill="#F2F4DC" cx="-7.3" cy="49.1" r="4.7"/>
			<circle fill="#F2F4DC" cx="-98.4" cy="420.9" r="4.7"/>
		</g>
		<g>
			<circle fill="#F2F4DC" cx="-176.1" cy="157.1" r="9.3"/>
			<circle fill="#F2F4DC" cx="313.3" cy="76.2" r="9.3"/>
			<circle fill="#F2F4DC" cx="-174.1" cy="399.8" r="9.3"/>
			<circle fill="#F2F4DC" cx="64.7" cy="312.7" r="9.3"/>
			<circle fill="#F2F4DC" cx="88.2" cy="569.8" r="9.3"/>
			<circle fill="#F2F4DC" cx="825.9" cy="78" r="9.3"/>
			<circle fill="#F2F4DC" cx="503.6" cy="99.4" r="9.3"/>
			<circle fill="#F2F4DC" cx="1014.9" cy="239.2" r="9.3"/>
		</g>
		<g>
			<circle fill="#F2F4DC" cx="415.9" cy="92.8" r="4.7"/>
			<circle fill="#F2F4DC" cx="-19.8" cy="224.3" r="4.7"/>
			<circle fill="#F2F4DC" cx="-205.3" cy="323" r="4.7"/>
			<circle fill="#F2F4DC" cx="263.9" cy="103.6" r="4.7"/>
			<circle fill="#F2F4DC" cx="246.8" cy="437.6" r="4.7"/>
			<circle fill="#F2F4DC" cx="407.2" cy="5.2" r="4.7"/>
			<circle fill="#F2F4DC" cx="859.3" cy="119.8" r="4.7"/>
			<circle fill="#F2F4DC" cx="574.1" cy="26.6" r="4.7"/>
			<circle fill="#F2F4DC" cx="1026.3" cy="141.2" r="4.7"/>
			<circle fill="#F2F4DC" cx="282.3" cy="310.9" r="4.7"/>
			<circle fill="#F2F4DC" cx="113.8" cy="75.5" r="4.7"/>
			<circle fill="#F2F4DC" cx="96.8" cy="409.6" r="4.7"/>
			<circle fill="#F2F4DC" cx="-168.5" cy="574.2" r="4.7"/>
			<circle fill="#F2F4DC" cx="521.9" cy="17.2" r="4.7"/>
			<circle fill="#F2F4DC" cx="96.5" cy="677.4" r="4.7"/>
		</g>
		<g>
			<circle fill="#F2F4DC" cx="-110.2" cy="252.3" r="9.3"/>
			<circle fill="#F2F4DC" cx="165.2" cy="696.3" r="9.3"/>
			<circle fill="#F2F4DC" cx="314.8" cy="959.9" r="9.3"/>
		</g>
		<g>
			<circle fill="#F2F4DC" cx="471.7" cy="1139" r="4.7"/>
			<circle fill="#F2F4DC" cx="-103.8" cy="203.1" r="4.7"/>
			<circle fill="#F2F4DC" cx="-254" cy="56.2" r="4.7"/>
			<circle fill="#F2F4DC" cx="97.1" cy="437" r="4.7"/>
			<circle fill="#F2F4DC" cx="-226.5" cy="521.8" r="4.7"/>
			<circle fill="#F2F4DC" cx="-160" cy="61.5" r="4.7"/>
			<circle fill="#F2F4DC" cx="-282.7" cy="380.1" r="4.7"/>
			<circle fill="#F2F4DC" cx="4.6" cy="633.9" r="4.7"/>
			<circle fill="#F2F4DC" cx="-145.6" cy="487" r="4.7"/>
			<circle fill="#F2F4DC" cx="-60.6" cy="187" r="4.7"/>
			<circle fill="#F2F4DC" cx="399.4" cy="1080" r="4.7"/>
			<circle fill="#F2F4DC" cx="38.7" cy="455" r="4.7"/>
			<path fill="#F2F4DC" d="M482.7,1258.6c-1.2-2.3-4-3.2-6.3-2c-2.3,1.2-3.2,4-2,6.3"/>
			<circle fill="#F2F4DC" cx="69.4" cy="556.5" r="4.7"/>
			<circle fill="#F2F4DC" cx="-151.2" cy="375.6" r="4.7"/>
			<circle fill="#F2F4DC" cx="-62.9" cy="559.3" r="4.7"/>
		</g>
	</g>
	<path fill="none" d="M1859.5,614.5c-220-37.4-465.7,102.3-413.1-35.5C1478,496,1832.9-30,1303.2-33.3c-54.9-0.3-104.4,4.3-148.9,13
		c-19.4-145.5-43.1-295.5-68-296c-22.6-0.4-23.9,168.2-19.8,320.5c-125.7,46.7-201.1,131.2-245.2,220
		c-62.9-72.5-137.8-118.7-150.3-19.7c-16.4,129.4,30.8,232,91.6,307.7c-9.1,61.2-80,174.2-227.2,24.3
		C324.3,321.6,223.2,660.2,137.4,765c-4.8,5.8-9.6,10.8-14.4,15.1c-29.1,1.7-58.3,2.5-87.8,2.4c-36.6-29.4-60.4-91.7-51.8-138.2
		c-16.2,28-36.6,75.1-57.8,132.7c-61.6-6.1-123.3-17.5-184.5-36.3c-108.8-33.4-36.9,78.2,140.1,169.4
		c-59.5,196.7-105.3,432-54.3,502.8c81.7,113.3,234.9-107.4,276-162.4c35.4-47.5,155.8-98.2,220.3-32.7
		c-55.4,24.4-89.4,46.4-57.8,57c12.2,4.1,32.2,5,57.2,3.6c-196.1,178.4-300.4,582.8-490.8,519.4c-249.5-83.1-90.6-417.3-282.9-545.2
		c-198.6-132.1-650.9,650.2-746.8,1034.8c145.4-142.7,284.9-405.8,448.8-278.6c174.8,135.6,112.9,725.7,712.5,517.9
		c1214-420.9,344.2-806.2,757.1-1048.9c-4.2,49.1-12.6,60,50.2,97.4c119.1,71.1-0.1,265,10.3,351.8
		c2.6,22.1,107.5,134.4,192.5,131.4c25.3-0.9,48-50.6,61.7-120.6c15.3,6,30.8,9.4,45.5,8.9c70.1-2.5,99.7-435.3-55-505.7
		c55.6-12.1,108.6-31.9,157.1-57.5c-1.4,1.7-2.9,3.4-4.4,5.1c-34.8,38.6,31.2-7.2,57.7-26.2c7.2,66.5,25.6,136.4,72.1,121.4
		c88.7-28.6,94.2-71.2,114.9-173.1c12.7,122.4-52.6,249-105.7,325.4c-26.1,37.5,136.8,301.5,203.6,184.6
		c80.7-141.4,168.6-327,17.5-624c-6.8-13.4-13.7-24.4-20.6-33.1c11.8-10,23.2-21.1,33.6-33.4c21.5-0.5,45.6,0.2,72.8,1.2
		c-10.1,45.3-26.7,77.6-22.7,102.6c7.9,49.5,121.1,161.4,200.2,156.3c44.6-2.9,64.4-129.9,49.4-256
		C2346.5,1096.3,2214.3,674.8,1859.5,614.5z"/>
</g>
</svg>
