<?xml version="1.0" encoding="utf-8"?>
<!-- Generator: Adobe Illustrator 16.0.2, SVG Export Plug-In . SVG Version: 6.00 Build 0)  -->
<!DOCTYPE svg PUBLIC "-//W3C//DTD SVG 1.1//EN" "http://www.w3.org/Graphics/SVG/1.1/DTD/svg11.dtd">
<svg version="1.1"
	 id="svg3132" xmlns:dc="http://purl.org/dc/elements/1.1/" xmlns:cc="http://creativecommons.org/ns#" xmlns:rdf="http://www.w3.org/1999/02/22-rdf-syntax-ns#" xmlns:svg="http://www.w3.org/2000/svg" xmlns:sodipodi="http://sodipodi.sourceforge.net/DTD/sodipodi-0.dtd" xmlns:inkscape="http://www.inkscape.org/namespaces/inkscape" sodipodi:docname="logo.svg" inkscape:version="0.48.5 r10040"
	 xmlns="http://www.w3.org/2000/svg" xmlns:xlink="http://www.w3.org/1999/xlink" x="0px" y="0px" width="270px" height="423px"
	 viewBox="10 10 270 423" enable-background="new 10 10 270 423" xml:space="preserve">
<sodipodi:namedview  inkscape:cy="221.5" inkscape:cx="145" inkscape:zoom="0.55791962" fit-margin-left="10" fit-margin-top="10" showgrid="false" id="namedview7" guidetolerance="10" gridtolerance="10" objecttolerance="10" borderopacity="1" bordercolor="#666666" pagecolor="#ffffff" inkscape:current-layer="svg3132" inkscape:window-maximized="0" inkscape:window-y="19" inkscape:window-x="0" fit-margin-bottom="10" inkscape:window-height="747" inkscape:window-width="681" fit-margin-right="10" inkscape:pageshadow="2" inkscape:pageopacity="0">
	</sodipodi:namedview>
<g id="layer1" transform="translate(-103.57143,-56.576468)">
	<path id="EFNW_standard_2_-8" inkscape:connector-curvature="0" fill="#3C9953" d="M172.071,147.577l22.5-36l22.5,36l-12.857-2.571
		l9.643,15.428l14.657-24.428l-12.343,2.571l23.143-38.571l-12.343,2.571l21.6-36l21.6,36l-12.343-2.571l23.144,38.571
		l-12.344-2.571l14.658,24.428l9.643-15.428l-12.857,2.571l22.5-36l22.5,36l-12.857-2.571l24.107,38.571l-12.857-2.571
		l12.666,20.266l-21.452,19.921c-16.442-23.128-39.972-37.615-66.106-37.615c-26.135,0-49.664,14.487-66.106,37.615l-21.453-19.921
		l12.666-20.266l-12.857,2.571l24.107-38.571L172.071,147.577L172.071,147.577z M275.571,327.577l-45-9l-36-72.001l72,36.001
		L275.571,327.577z M248.571,489.577c-74.559,0-135-72.53-135-162c0-25.753,5.016-50.096,13.926-71.716l-11.304-7.536
		c5.958-12.679,13.159-24.398,21.377-34.963l33.965,26.688c-8.228,17.659-12.965,38.374-12.965,60.527c0,64.617,40.294,117,90,117
		c49.705,0,90-52.383,90-117c0-22.153-4.737-42.868-12.965-60.527l33.965-26.688c8.219,10.564,15.42,22.284,21.377,34.963
		l-11.303,7.536c8.91,21.62,13.926,45.963,13.926,71.716C383.571,417.046,323.13,489.577,248.571,489.577L248.571,489.577z
		 M138.32,292.432c3.452,0,6.25-2.798,6.25-6.25c0-3.45-2.798-6.25-6.25-6.25c-3.451,0-6.25,2.8-6.25,6.25
		C132.07,289.634,134.869,292.432,138.32,292.432z M137.857,331.48c-4.142,0-7.5,3.358-7.5,7.5c0,4.143,3.358,7.5,7.5,7.5
		s7.5-3.357,7.5-7.5C145.357,334.838,141.998,331.48,137.857,331.48z M154.726,382.287c-4.832,0-8.75,3.918-8.75,8.75
		s3.918,8.75,8.75,8.75s8.75-3.918,8.75-8.75S159.558,382.287,154.726,382.287z M358.823,292.432c3.45,0,6.25-2.798,6.25-6.25
		c0-3.45-2.8-6.25-6.25-6.25c-3.453,0-6.25,2.8-6.25,6.25C352.573,289.634,355.37,292.432,358.823,292.432z M342.417,382.287
		c-4.832,0-8.75,3.918-8.75,8.75s3.918,8.75,8.75,8.75s8.75-3.918,8.75-8.75S347.249,382.287,342.417,382.287z M359.286,331.48
		c-4.142,0-7.5,3.358-7.5,7.5c0,4.143,3.358,7.5,7.5,7.5s7.5-3.357,7.5-7.5C366.786,334.838,363.428,331.48,359.286,331.48z
		 M236.571,306.577l9-9l9-9l-48-30L236.571,306.577z"/>
</g>
</svg>
