<?xml version="1.0" encoding="utf-8"?>
<!-- Generator: Adobe Illustrator 17.1.0, SVG Export Plug-In . SVG Version: 6.00 Build 0)  -->
<!DOCTYPE svg PUBLIC "-//W3C//DTD SVG 1.1//EN" "http://www.w3.org/Graphics/SVG/1.1/DTD/svg11.dtd">
<svg version="1.1" id="Layer_1" xmlns="http://www.w3.org/2000/svg" xmlns:xlink="http://www.w3.org/1999/xlink" x="0px" y="0px"
	 viewBox="0 0 26 20" enable-background="new 0 0 26 20" xml:space="preserve">
<path fill="#FFFFFF" d="M24.02,4H1.98C0.886,4,0,3.114,0,2.02V1.98C0,0.886,0.886,0,1.98,0h22.04C25.114,0,26,0.886,26,1.98v0.04
	C26,3.114,25.114,4,24.02,4z"/>
<path fill="#FFFFFF" d="M24.02,12H1.98C0.886,12,0,11.114,0,10.02V9.98C0,8.886,0.886,8,1.98,8h22.04C25.114,8,26,8.886,26,9.98
	v0.04C26,11.114,25.114,12,24.02,12z"/>
<path fill="#FFFFFF" d="M24.02,20H1.98C0.886,20,0,19.114,0,18.02v-0.04C0,16.886,0.886,16,1.98,16h22.04
	c1.094,0,1.98,0.886,1.98,1.98v0.04C26,19.114,25.114,20,24.02,20z"/>
</svg>
