<?xml version="1.0" encoding="utf-8"?>
<!-- Generator: Adobe Illustrator 17.1.0, SVG Export Plug-In . SVG Version: 6.00 Build 0)  -->
<!DOCTYPE svg PUBLIC "-//W3C//DTD SVG 1.1//EN" "http://www.w3.org/Graphics/SVG/1.1/DTD/svg11.dtd">
<svg version="1.1" id="Layer_1" xmlns="http://www.w3.org/2000/svg" xmlns:xlink="http://www.w3.org/1999/xlink" x="0px" y="0px"
	 viewBox="0 0 33 20" enable-background="new 0 0 33 20" xml:space="preserve">
<g id="Poniverse_1_">
	<g id="FInal_Logo_1_">
		<path id="L_Arm_3_" fill="#FFFFFF" d="M17.689,3.834C15.287,1.478,11.973,0.016,8.31,0C8.29,0,8.27,0,8.25,0C8.23,0,8.21,0,8.19,0
			C6.525,0.012,4.978,0.507,3.686,1.35C1.48,2.789,0.021,5.242,0,8.031c0,0.02,0,0.039,0,0.059S0,8.13,0,8.15
			c0.015,3.407,1.358,6.507,3.548,8.828l0,0c0,0,0,0,0,0c0.451,0.478,1.213,0.507,1.701,0.065c0.357-0.323,0.469-0.809,0.327-1.234
			c-0.005-0.015-0.011-0.03-0.016-0.045c-0.003-0.009-0.007-0.018-0.01-0.026c0,0,0.001,0,0.001,0
			c-0.293-0.829-0.452-1.72-0.452-2.647c0-0.167,0.005-0.333,0.015-0.498c0-0.006,0.001-0.012,0.001-0.017
			c0.001-0.013,0.002-0.026,0.003-0.038c0.121-1.562,1.411-2.77,2.973-2.851c0.122-0.006,0.245-0.006,0.37,0.002
			c0.573,0.036,1.101,0.22,1.547,0.512c0,0,0,0,0.001,0.001c0.255,0.17,0.546,0.277,0.848,0.316
			c0.017,0.002,0.034,0.004,0.051,0.006c1.899,0.214,3.86-0.218,5.512-1.296c0.437-0.285,0.853-0.616,1.24-0.992
			c0.01-0.009,0.019-0.019,0.029-0.028c0.01-0.009,0.019-0.019,0.029-0.028c0.4-0.402,0.666-0.885,0.797-1.394
			C18.779,5.761,18.504,4.633,17.689,3.834z"/>
		<path id="R_Arm_3_" fill="#FFFFFF" d="M15.311,16.166c2.402,2.356,5.716,3.818,9.379,3.834c0.02,0,0.04,0,0.06,0
			c0.02,0,0.04,0,0.06,0c1.665-0.012,3.212-0.507,4.503-1.349c2.206-1.439,3.666-3.893,3.686-6.681c0-0.02,0-0.039,0-0.059
			c0-0.02,0-0.039,0-0.059c-0.015-3.407-1.358-6.507-3.548-8.828l0,0c0,0,0,0,0,0c-0.451-0.478-1.213-0.507-1.701-0.065
			c-0.357,0.323-0.469,0.809-0.327,1.234c0.005,0.015,0.011,0.03,0.016,0.045c0.003,0.009,0.007,0.018,0.01,0.026
			c0,0-0.001,0-0.001,0c0.293,0.829,0.452,1.72,0.452,2.647c0,0.167-0.005,0.333-0.015,0.498c0,0.006-0.001,0.012-0.001,0.017
			c-0.001,0.013-0.002,0.026-0.003,0.038c-0.121,1.562-1.411,2.77-2.973,2.851c-0.122,0.006-0.245,0.006-0.37-0.002
			c-0.573-0.036-1.101-0.22-1.547-0.512c0,0,0,0-0.001-0.001c-0.255-0.17-0.546-0.277-0.848-0.316
			c-0.017-0.002-0.034-0.004-0.051-0.006c-1.899-0.214-3.86,0.218-5.512,1.296c-0.437,0.285-0.853,0.616-1.24,0.992
			c-0.01,0.009-0.019,0.019-0.029,0.028c-0.01,0.009-0.019,0.019-0.029,0.028c-0.4,0.402-0.666,0.885-0.797,1.394
			C14.221,14.239,14.496,15.367,15.311,16.166z"/>
	</g>
</g>
</svg>
