<svg xmlns="http://www.w3.org/2000/svg" xmlns:xlink="http://www.w3.org/1999/xlink" viewBox="0 0 1144 1009.1" enable-background="new 0 0 1144 1009.1"><g><defs><path id="a" d="M2659.5-82.3h1304.8v1091.4H2659.5z"/></defs><clipPath><use xlink:href="#a" overflow="visible"/></clipPath></g><g><defs><path id="b" d="M1194-189.4h1401.1v1198.5H1194z"/></defs><clipPath><use xlink:href="#b" overflow="visible"/></clipPath></g><g><defs><path id="c" d="M4017 11.5h1324.9v997.6H4017z"/></defs><clipPath><use xlink:href="#c" overflow="visible"/></clipPath></g><g><g><path fill="#8848BF" d="M109.7 929c-94.6-24.7-18-161.3 112.7-146-36.9 13.9-80.1 50.1-22.5 75.8 104.5-56 179.3 34.1 179.3 34.1s90.9 64.2-14.7 88.7l-11.3 35.9s-145.7-22.5-84.9 159c18.2 54.4-284.7-5.4-268.3-69.7 19-74.1 46.8-130.4 109.7-177.8z"/><path fill="#8849BF" d="M1051.5 584.7c-6.7 42.1 50.6 63.2 75.5 17.1-38.1 23.5-49.9-3.6-52.9-19.1-1-5.3-17.2 5.8-22.6 2z"/><path fill="#8849BF" d="M1114.9 554s-57.9 10.5-58.3 10.2c-44.7-48 45.6-59.5 52.2-40.3l6.1 30.1z"/><path opacity=".1" d="M1108.8 523.9c-1.8-5.3-9.9-8.2-19.8-8.8 5.5 18.2-26.8 27.5-34.6 21.8-3.1.9-7.2 4.8-9.7 7.5.3 1.4.8 2.8 1.4 4.3 12.6 5.8 54 21.4 64-20.8l-1.3-4z"/><path fill="#A86FD9" d="M1108.8 523.8c2.4 12.5-58 35.3-62.8-5.2-.6-5.2-1.2-10.5-1.7-15.9l-14.1-18.9c-.2 15.3-.1 29.6.8 36.4 7 55.9 17.2 71.4 22.9 76.3 24.8 21.4 68.9-2.4 66-17.7l-11.1-55z"/><path opacity=".1" d="M1047 523.9s-15.4-15-16.8-18.4c0 0 .2 13.2 1.7 21.9 0 0 8.1 8.5 23.4 9.1-.9-.7-6.5-5-8.3-12.6z"/><path fill="#8849BF" d="M1100 476.8s-57.9 10.5-58.3 10.2c-44.7-48 45.6-59.5 52.2-40.3l6.1 30.1z"/><path opacity=".1" d="M1093.9 446.7c-1.8-5.3-9.9-8.2-19.8-8.8 5.5 18.2-26.8 27.5-34.6 21.8-3.1.9-7.2 4.8-9.7 7.5.3 1.4.8 2.8 1.4 4.3 12.6 5.8 54 21.4 64-20.8l-1.3-4z"/><path fill="#A86FD9" d="M1093.9 446.6c2.4 12.5-58 35.3-62.8-5.2-.6-5.2-1.2-10.5-1.7-15.9l-14.1-18.9c-.2 15.3-.1 29.6.8 36.4 7 55.9 17.2 71.4 22.9 76.3 24.8 21.4 68.9-2.4 66-17.7l-11.1-55z"/><path opacity=".1" d="M1032.1 446.7s-15.4-15-16.8-18.4c0 0 .2 13.2 1.7 21.9 0 0 8.1 8.5 23.4 9.1-.9-.6-6.5-5-8.3-12.6z"/><path fill="#8849BF" d="M1084.9 399s-57.9 10.5-58.3 10.2c-44.7-48 45.6-59.5 52.2-40.3l6.1 30.1z"/><path opacity=".1" d="M1078.9 368.8c-1.8-5.3-9.9-8.2-19.8-8.8 5.5 18.2-26.8 27.5-34.6 21.8-3.1.9-7.2 4.8-9.7 7.5.3 1.4.8 2.8 1.4 4.3 12.6 5.8 54 21.4 64-20.8l-1.3-4z"/><path fill="#A86FD9" d="M1001.7 274.3c0 .3-3 72.5-.7 90.9 7 55.9 17.2 71.4 22.9 76.3 24.8 21.4 68.9-2.4 66-17.7l-11.1-55c2.4 12.5-58 35.3-62.8-5.2-3.6-30-5.2-65.5-4.5-83.4.2-3.2-9.8-5.9-9.8-5.9z"/><defs><path id="d" d="M715.7 1254.3c374.5-44.5 326.7-308.7 260.6-417.5-68.9-113.4-30.9-138.6-30.9-138.6L536 460.5s4.3 81.5 145.1 289.4c138.8 205-67.2 146.4-180 102.4C287.3 769 280.9 1072.1 399 1197.5"/></defs><use xlink:href="#d" overflow="visible" fill="#E4CCF0"/><clipPath id="e"><use xlink:href="#d" overflow="visible"/></clipPath><path opacity=".2" clip-path="url(#e)" d="M948.2 710.3s-78.7 29.2-103.1 28.4c42.3 16.2 102.5 7.7 105.6 7.3l-2.5-35.7"/><g><defs><path id="f" d="M988.2 114.6c.1-.5.2-.9.3-1.4C1019.4-20.9 573.5 56.8 603 0c-62.3.5-99.8 64.9-28.2 82.1-257.7-37-262.3 266.7-146.3 339.3 13.3 79.6-97.7 82.3-84.7-35.5-122.5 201.8 38.7 259.8 137.9 193.4-39 55.5-43.2 125.7-21.7 176.3 28.7 67.5 93.6 92.8 175.8 27.8-91.2 29.3-91.8-37.9-50.1-83 100.1-108.3 267.5-302.9 354.9-467.9l142.1 367c91.7-108.5 96-314.9-94.5-484.9z"/></defs><use xlink:href="#f" overflow="visible" fill="#8849BF"/><clipPath id="g"><use xlink:href="#f" overflow="visible"/></clipPath><path opacity=".2" clip-path="url(#g)" d="M585.4 1.9C574.1 6.4 511 51.3 588 84c-3.6-.8-9.6-1.1-13.1-1.8-32.3-7.1-57.7-.4-59.6-14.4-2.2-15.6 58.3-128.1 70.1-65.9zM501 81.2c-226 160.5-12.2 377.3 32.3 403.9-6.9-2.5-75-45.1-104.8-63.7-17.7-11-58.5-53.7-60.9-59.3-20.6-47.8-99.4-158.4-99.4-158.4L376.1 67.5s115.7-7 124.9 13.7zM322.2 426.2c-14.1 63.7-8.5 204.6 175.6 140.6 0 0-12.4 10.6-16.1 12.5-3.4 1.8-99.1 70.2-99.1 70.2l-178.4-48.3-37.8-123.9c.1 0 125.1-78.2 155.8-51.1zM539.8 820.9c-40.8-14.4-84.4-57.7 43.6-191.9 81.6-85.6-67.3-141.3-42.3-174.4 25-33.2 143.1 107.1 143.1 107.1l27 178.8-73.5 193.7-254.5-42.5c-.1 0 157.7-27.8 156.6-70.8z"/><path opacity=".1" clip-path="url(#g)" fill="#fff" d="M945.6 126.1s35.6-66.7-113.8-71c-91.1-2.6-214-6.5-227.7-44.3C595.4-13.3 991.7-26 991.7-26l132.5 116.3-87.4 33.8-91.2 2zM1000.1 241.5l7.8-124.7 259.3 258.4 19.5 340.7-211.2 62.2z"/></g><defs><path id="h" d="M697.7 775.8S310.5 276.4 715 146.3c320.4-103.1 387.3 219.6 349.7 335.9 0 0 37.2-12.6 38.2 7.3 7.6 149.5-126.1 240.4-257.8 249.1-52.6 3.5-104.3 5.8-141.5-5.7s-5.9 42.9-5.9 42.9z"/></defs><use xlink:href="#h" overflow="visible" fill="#E4CCF0"/><clipPath id="i"><use xlink:href="#h" overflow="visible"/></clipPath><path opacity=".2" clip-path="url(#i)" d="M1034.1 253.3S960.2 387.6 731.9 409c-217.2 20.4-98 264.1-98 264.1-20.4 24-105.9-137.7-105.9-137.7l-31.2-182.7 537.3-99.4z"/><path opacity=".5" clip-path="url(#i)" fill="#E4CCF0" d="M710.9 529.1"/><path opacity=".5" clip-path="url(#i)" fill="#4583D9" d="M968 466.7s-59.8-151.9 20.7-191c26.5-12.9 66.4 6.2 79.9 69.9 6.9 32.8 33.4 99.8-5.5 135.4"/><path opacity=".2" fill="#E4CCF0" d="M1079.5 505s-2.2 11.1-16 4.6"/><path opacity=".2" d="M1027.3 580.8s-1.8 5.9-2.3 7.1c-.5 1.2-1.1 2.9-2 4.5-.8 1.7-2 3.5-3.3 5.4-.7.9-1.4 1.9-2.2 2.8-.8.9-1.7 1.9-2.6 2.9-1.9 1.9-4 3.8-6.4 5.5-1.2.9-2.5 1.7-3.8 2.5-1.3.8-2.7 1.5-4.1 2.2-2.9 1.4-6.1 2.4-9.4 3.2-3.4.6-7 1.1-10.7.7-.9-.1-1.9-.1-2.8-.3-.9-.2-1.9-.4-2.8-.6-.9-.3-1.9-.6-2.8-.9l-2.7-1.2c-3.5-1.8-6.6-4.5-8.6-7.4-1-1.5-1.8-3-2.4-4.4-.5-1.5-1-2.9-1.2-4.2-.2-1.4-.4-2.6-.3-3.8 0-1.2 0-2.3.2-3.3.2-2 .8-3.7 1.2-5 .4-1.3 1-2.3 1.3-3 .3-.7 1.8-3.4 1.8-3.4v3.3c.1.6.1 1.6.2 2.7.2 1.2.3 2.6.7 4.2.2.8.4 1.6.7 2.5.2.9.6 1.7 1 2.6.8 1.8 1.9 3.6 3.5 5.2 1.5 1.6 3.5 2.9 5.8 3.8 4.5 1.8 10 1.5 15.2.4 5.2-1.1 10.3-3.1 14.7-5.5 2.2-1.2 4.3-2.4 6.3-3.7 1.9-1.3 3.7-2.6 5.3-3.8 1.6-1.3 3.1-2.4 4.3-3.5 1.3-1 2.3-2 3.2-2.8 1.7-1.7 2.7-2.6 2.7-2.6l2.3-2.1z"/><path opacity=".5" fill="#4583D9" d="M882.3 426.6c-41.6-96.2-73.8-112.7-142.2-98-83.6 18-82.6 101.4-70.4 136.7l212.6-38.7z"/><defs><path id="j" d="M886.5 539.9c21.3-11.1 11.3-88.4-17-122.3-23.3-28-186.1 11.2-197.4 33.2-10.6 20.6 53.1 173.4 214.4 89.1z"/></defs><use xlink:href="#j" overflow="visible" fill="#fff"/><clipPath id="k"><use xlink:href="#j" overflow="visible"/></clipPath><path clip-path="url(#k)" fill="#C989B5" d="M832.1 465.8c-5.2-22.6-15.1-42.2-27.2-56.4-29.7 3.2-63.7 10.8-89.9 19.3-5.1 18.4-5.5 40.9-.2 64.1 6 26 18.1 48 32.8 62.4 18 7.7 39.3 11.6 64.1 9 20.9-17.4 30-56.7 20.4-98.4z"/><ellipse transform="matrix(-.975 .225 -.225 -.975 1638.638 784.322)" clip-path="url(#k)" fill-opacity=".6" cx="774.7" cy="485.3" rx="37.2" ry="59.2"/><path opacity=".2" clip-path="url(#k)" d="M766.8 437c12.1 0 28.3 15.8 34.4 42.2 3.1 13.4 2.8 27.1-.9 37.7-4.3 12.3-10.9 15.5-14.5 16.3-1 .2-2.1.4-3.1.4-12.1 0-28.3-15.8-34.4-42.2-3.1-13.4-2.8-27.1.9-37.7 4.3-12.3 10.9-15.5 14.5-16.3 1-.3 2-.4 3.1-.4m0-10c-1.8 0-3.6.2-5.4.6-20 4.6-30.3 34.2-23 66 6.7 29 25.7 49.9 44.2 49.9 1.8 0 3.6-.2 5.4-.6 20-4.6 30.3-34.2 23-66-6.7-29-25.7-49.9-44.2-49.9zM869.5 417.6c-23.3-28-186.1 11.2-197.4 33.2-3 5.9 0 22.6 9.7 41.4 8.7-5 19.1-9.4 30.4-13.4.6 4.6 1.5 9.3 2.6 14.1 6 26 18.1 48 32.8 62.4 18 7.7 39.3 11.6 64.1 8.9 20.9-17.4 30-56.7 20.4-98.4-1-4.1-2.1-8.2-3.3-12.1 21.9.2 42.4 3.7 61.9 6.4-4.9-16.2-12.1-31.6-21.2-42.5zm-48.8 114.9c-5.8 16.8-15.8 27.6-28 30.4-2.1.5-4.3.7-6.5.7-11.7 0-24.2-6.9-35.4-19.4-12.1-13.6-21.5-32.6-26.3-53.6-1.2-5.1-2-10.1-2.6-15.1 21.4-6.9 45.2-12.6 66.6-17.5 10.2-2.4 20.2-3.6 29.8-4 1.6 4.6 2.9 9.3 4 14.1 5.4 23.1 4.8 46-1.6 64.4z"/><ellipse transform="matrix(-.975 .225 -.225 -.975 1734.863 754.614)" clip-path="url(#k)" fill="#fff" cx="824.5" cy="475.9" rx="23" ry="36.6"/><ellipse transform="matrix(-.975 .225 -.225 -.975 1682.262 857.28)" clip-path="url(#k)" fill="#fff" cx="792.4" cy="524.3" rx="14.2" ry="22.6"/><path fill="#272628" d="M893.6 440.5c-2.3-4.9-5-9.7-8.2-14.4-3.3-4.6-7.1-9.1-11.3-13.2-1.5-1.3-1.9-1.8-3.6-3-1.4-1.1-2.7-2-4.1-2.9-2.7-1.7-5.6-3.2-8.6-4.3-5.9-2.4-12-3.8-18.2-4.8-12.3-1.7-24.7-1.4-36.8 0-12.1 1.4-23.9 3.8-35.4 6.7-11.4 3-22.5 6.5-33 10.4-10.5 3.9-20.5 8.1-29.7 12.6-9.3 4.5-17.9 9-25.5 14.2-1.3.9-2.5 1.8-3.8 2.7-1.4.5-3.4 1.2-5.9 1.9-1.2.3-2.6.7-4.1.9-1.4.3-3 .5-4.6.7-1.6.2-3.3.2-4.9.2-1.7 0-3.4-.2-5.1-.4-1.7-.4-3.4-.5-5-1.2-.8-.3-1.6-.5-2.4-.8-.8-.3-1.5-.7-2.2-1.1-.7-.4-1.5-.7-2.2-1.1-.6-.5-1.3-.9-1.9-1.3-.6-.4-1.2-.9-1.8-1.3-.5-.5-1-1-1.5-1.4-.9-.9-1.9-1.7-2.6-2.6-.7-.9-1.3-1.6-1.7-2.3-1-1.3-1.5-2-1.5-2s.4.8 1.2 2.2c.4.7.9 1.6 1.4 2.5.6 1 1.4 1.9 2.3 3 .4.6.9 1.1 1.3 1.7.5.5 1.1 1.1 1.7 1.6.6.6 1.2 1.1 1.8 1.7l2.1 1.5c.7.5 1.5 1.1 2.2 1.5.8.4 1.7.8 2.5 1.3 1.7 1 3.5 1.4 5.3 2.1 1.8.5 3.7 1 5.6 1.3 1.2.2 2.5.3 3.7.4-2 .9-4 1.7-6.1 2.4-3.3 1.1-6.6 2-9.8 2.3-1.6.2-3.2.3-4.6.2-1.5 0-2.9-.2-4.1-.5-.6-.1-1.2-.3-1.8-.5-.6-.2-1.1-.4-1.6-.6-1-.4-1.8-.9-2.4-1.3-.7-.4-1.1-.8-1.4-1.1-.3-.3-.5-.4-.5-.4s.2.2.4.5c.3.3.7.8 1.3 1.3.6.5 1.3 1.2 2.3 1.7l1.5.9c.6.3 1.1.6 1.8.8 1.3.5 2.7 1 4.3 1.2 1.6.3 3.2.5 5 .6 3.5.2 7.2-.2 10.8-.9.5-.1.9-.2 1.4-.3-1.8 1.3-3.6 2.6-5.5 3.8-2.8 1.8-5.8 3.5-8.7 4.8-1.4.7-2.9 1.2-4.2 1.7-1.4.4-2.7.8-3.9 1-1.2.2-2.4.3-3.4.4-1 0-1.9-.1-2.7-.2-.8-.1-1.3-.3-1.7-.4-.4-.1-.6-.2-.6-.2l.6.3c.4.2.9.5 1.6.7.7.3 1.6.5 2.7.6 1.1.1 2.3.2 3.6.2 1.3 0 2.8-.2 4.3-.4 1.5-.3 3.1-.6 4.7-1.1 3.2-.9 6.5-2.2 9.8-3.6 5.8-2.6 11.4-5.7 15.7-8.4v.3c.2 2.1.6 4 1 5.9 1.7 7.3 4.2 13.3 6.5 18 2.3 4.7 4.7 8.1 6.4 10.4.8 1.1 1.5 1.9 2 2.5.5.5.7.8.7.8s-.7-1.3-1.9-3.8-2.7-6.2-4.1-11.1c-.7-2.4-1.4-5.1-2-8.1-.6-3-1.2-6.2-1.4-9.6-.1-1.7-.2-3.4-.1-5.1 0-.8.1-1.7.3-2.4.1-.4.1-.7.2-1.1.1-.3.2-.6.2-.5.2-.5 1.7-1.7 3.2-2.7 1.6-1 3.4-2.1 5.2-3.1 7.5-3.9 16.1-7.7 25.4-11.3 9.3-3.6 19.2-7.1 29.5-10.4 10.3-3.3 21.1-6.3 32.1-9 11-2.6 22.3-4.8 33.5-6.1 11.2-1.3 22.5-1.9 33.2-.6 10.6 1.2 20.6 4.2 27.6 10.2 3.8 3.4 7.4 6.9 10.5 10.7 3.1 3.9 5.8 7.9 8.1 12.1 2.2 4.2 4.2 8.4 5.8 12.7 1.5 4.3 2.8 8.5 3.8 12.6 1.8 8.3 2.9 16.2 3.2 23.2.3 7 .3 13.2 0 18.3-.3 5.1-.7 9.1-1.1 11.9-.4 2.7-.6 4.2-.6 4.2s.6-1.4 1.4-4c.8-2.6 2-6.6 3.1-11.7s2.2-11.3 2.7-18.6c.3-3.6.4-7.5.3-11.7 0-4.1-.4-8.5-.9-13-1.3-8.8-3.6-18.7-8.1-28.4z"/><path opacity=".2" d="M1070.9 497.8c-.1.5-.2.9-.2 1.5 0 .5.1 1.1.3 1.5.1.3.3.5.4.7.2.2.4.4.6.5.4.3 1.1.3 1.6.5.6 0 1.2.1 1.8 0 .6-.1 1.2-.2 1.8-.2.6-.1 1.1-.3 1.7-.4.5-.1 1-.2 1.5-.4 1.8-.6 3.5-1.1 3.5-1.1l-.3.6s-.8 1.5-2.4 3c-.4.4-.9.7-1.4 1-.5.3-1.1.7-1.8.9-.7.2-1.4.4-2.2.6-.8.1-1.7.1-2.6.1-1.1-.3-2-.3-3.2-1.2-.3-.2-.5-.4-.8-.6-.2-.2-.5-.5-.7-.8-.4-.6-.8-1.1-.9-1.7-.2-.6-.3-1.2-.3-1.7s0-1 .2-1.4c.1-.4.2-.8.3-1.1.2-.3.3-.6.5-.9.7-1 1.4-1.7 2-2.1.3-.2 1.7-.8 1.7-.8s-.6 1.5-1.1 3.5z"/><path fill="#fff" d="M1063.1 481.1s-63.4 16.7-77.4 21.8c-10.5-14.2-25-74.5-15.6-97.6 11.6-28.5 62.1-39.8 85.7-31.7 20.4 7 18.2 56.1 7.3 107.5z"/><path fill="#C989B5" d="M1048.4 485c4.2-14.4 4.7-32.2.5-50.6-6.5-28.4-22.5-50.5-40.2-58.8-17.1 5.4-32.7 15.3-38.5 29.6-9.4 23.1 5.1 83.4 15.6 97.6 9.6-3.4 43-12.5 62.6-17.8z"/><ellipse transform="matrix(-.975 .225 -.225 -.975 2084.567 661.864)" fill-opacity=".6" cx="1004.7" cy="449.5" rx="28.7" ry="45.6"/><g opacity=".2"><path d="M1067.6 387.5c-.5-1-.9-2-1.3-2.8-5-9.8-24.4-13-46.5-11.8-21.1 4.1-42.6 15.1-49.6 32.4-3.2 7.9-3.6 20.2-2.3 33.5 15.6-8.9 36.3-15.9 52.9-19.7 5-1.2 9.8-1.4 14.5-1 2.4 5.7 4.4 11.7 5.9 18 4.4 19 3.3 37.6-2 51.3 3.3-.9 6.5-1.7 9.3-2.5 4.2-14.4 4.7-32.2.5-50.6-1.2-5.1-2.7-10-4.4-14.6 9.1 2.3 17.7 6.5 26.3 10.4 1-17.3.3-32.3-3.3-42.6zM975.7 479c3.2 10.7 6.8 19.5 10 23.9 1.7-.6 4-1.4 6.9-2.2-2.1-1.8-4.2-3.8-6.2-6-4-4.6-7.6-9.9-10.7-15.7z"/></g><path opacity=".2" d="M998.6 411.5c9.6 0 22.4 12.4 27.2 33.1 2.4 10.6 2.2 21.1-.7 29.4-1.5 4.2-4.9 11.5-11.7 13-.8.2-1.7.3-2.6.3-9.6 0-22.4-12.4-27.2-33.1-2.4-10.6-2.2-21.1.7-29.4 1.5-4.2 4.9-11.5 11.7-13 .8-.2 1.7-.3 2.6-.3m0-7c-1.4 0-2.8.2-4.1.5-15.4 3.6-23.3 26.3-17.7 50.9 5.2 22.4 19.8 38.5 34 38.5 1.4 0 2.8-.2 4.1-.5 15.4-3.6 23.3-26.3 17.7-50.9-5.2-22.3-19.8-38.5-34-38.5z"/><ellipse transform="matrix(-.975 .225 -.225 -.975 2152.665 630.948)" fill="#fff" cx="1040.5" cy="437.9" rx="17.7" ry="28.2"/><ellipse transform="matrix(-.975 .225 -.225 -.975 2111.146 708.098)" fill="#fff" cx="1015.3" cy="474.1" rx="10.9" ry="17.4"/><path fill="#272628" d="M1092.3 371.1c-.4.3-.9.8-1.6 1.1-.6.4-1.4.8-2.2 1.3-.8.4-1.7.8-2.7 1.2-1 .3-2 .7-3.1 1-1.1.2-2.2.6-3.4.7-1.2.2-2.4.3-3.6.3-1.2.1-2.4 0-3.5-.1-1.2-.1-2.3-.2-3.4-.4s-2.1-.5-3-.7c-.9-.3-1.8-.6-2.5-.9-.5-.3-1-.5-1.4-.7 1.3-.2 2.7-.4 4-.7 1.6-.4 3.2-.8 4.8-1.4 1.6-.5 3.1-1.2 4.6-1.9 1.5-.7 2.8-1.7 4.2-2.4 1.2-1 2.4-1.9 3.4-2.9.9-1.1 1.9-2 2.6-3 .6-1 1.2-2 1.8-2.8.5-.9.7-1.7 1-2.3.5-1.3.8-2 .8-2s-.4.7-1.1 1.9c-.4.6-.7 1.4-1.3 2.2-.6.7-1.3 1.6-2 2.5-.8.9-1.8 1.7-2.8 2.6-1 .8-2.3 1.5-3.5 2.3-1.4.6-2.6 1.3-4.1 1.8-1.4.5-2.9 1-4.4 1.2-1.5.4-3 .5-4.5.7-1.5.1-3 .2-4.5.2-3.9.1-11.2-1.5-12.3-1.7-3.2-.8-6.4-1.4-9.8-1.7-6.7-.6-13.9-.7-21.2.3-7.4.9-14.9 2.7-22.3 5.7-7.3 3.1-14.5 7.5-20.3 13.5-3 3-5.5 6.3-7.6 10.1-1.2 2-1.9 3.6-2.7 5.3l-.2.5-.1.4-.3.7-.6 1.5c-.4 1-.7 1.9-1 2.9-2.3 7.9-2.8 15.8-2.5 23.2.3 7.4 1.7 14.4 3.2 20.9 1.5 6.5 3.5 12.4 5.5 17.8s4.2 10.2 6.1 14.4c2 4.2 3.9 7.8 5.5 10.7 3.2 5.8 5.4 8.9 5.4 8.9s-1.4-3.5-3.6-9.8c-1.1-3.1-2.3-6.9-3.7-11.3-1.4-4.4-2.7-9.3-4.1-14.7-1.4-5.4-2.5-11.3-3.6-17.6-1-6.2-1.6-12.9-1.5-19.6.1-6.7.8-13.6 3-19.9.2-.8.5-1.6.8-2.3l.9-2.1c.8-1.7 1.7-3.5 2.5-4.6 1.6-2.7 3.7-5.5 6.1-7.8 4.7-4.8 10.5-8.6 16.8-11.4 6.3-2.8 13-4.8 19.6-6.1 6.6-1.3 13.2-2 19.4-2 2.7 0 5.3.1 7.7.3h.2c.7.1 1.4.2 2.2.2 1 .1 3.2.7 3.2.7-.1-.1 1.3.6 1.3.6.6.3 1 .5 1.6.9 4.3 2.6 7.5 6.5 9.6 10.4 2.2 3.8 3.5 7.6 4.4 10.7.5 1.6.9 3 1.1 4.2.3 1.2.5 2.3.7 3.2.3 1.7.5 2.7.5 2.7v-2.7c0-.9-.1-2-.2-3.3-.1-1.3-.2-2.8-.4-4.4-.5-3.3-1.2-7.4-3-11.8v-.1c2.2 1 4.9 2 7.8 2.3.9.2 1.8.2 2.7.2.9 0 1.8 0 2.7-.2.9-.1 1.7-.3 2.4-.5.8-.2 1.4-.5 2.1-.7.6-.2 1.1-.6 1.6-.8.5-.2.8-.5 1.2-.8.6-.5 1-.7 1-.7s-.4.2-1.1.5c-.3.1-.7.3-1.3.5-.5.1-1 .3-1.7.4-.6.1-1.3.2-2 .2s-1.4 0-2.2-.1c-.8 0-1.5-.3-2.3-.4-.8-.2-1.5-.4-2.3-.8-2.4-.9-4.6-2.3-6.2-3.7.8 0 1.7-.1 2.5-.1 1.3-.2 2.6-.3 3.9-.6 1.3-.3 2.5-.6 3.8-1 1.2-.3 2.4-.9 3.5-1.3 1.1-.5 2.1-1.1 3.1-1.6.9-.6 1.8-1.2 2.6-1.7.7-.6 1.4-1.2 2-1.7.6-.5 1-1 1.4-1.4.7-.8 1.2-1.3 1.2-1.3s-.4 0-1.3.7z"/><path fill="#8849BF" d="M626.3 665.2c-6.7 42.1 50.6 63.2 75.5 17.1-38 23.5-49.9-3.6-52.9-19.1-1-5.3-17.2 5.8-22.6 2z"/><path fill="#8849BF" d="M689.7 634.5s-57.9 10.5-58.3 10.2c-44.7-48 45.6-59.5 52.2-40.3l6.1 30.1z"/><path opacity=".2" d="M683.6 604.4c-1.8-5.3-9.9-8.2-19.8-8.8 5.5 18.2-26.8 27.5-34.6 21.8-3.1.9-7.2 4.8-9.7 7.5.3 1.4.8 2.8 1.4 4.3 12.6 5.8 54 21.4 64-20.8l-1.3-4z"/><path fill="#A86FD9" d="M683.6 604.3c2.4 12.5-58 35.3-62.8-5.2-.6-5.2-1.2-10.5-1.7-15.9L605 564.3c-.2 15.3-.1 29.6.8 36.4 7 55.9 17.2 71.4 22.9 76.3 24.8 21.4 68.9-2.4 66-17.7l-11.1-55z"/><path opacity=".1" d="M621.8 604.3s-15.4-15-16.8-18.4c0 0 .2 13.2 1.7 21.9 0 0 8.1 8.5 23.4 9.1-.8-.6-6.5-4.9-8.3-12.6z"/><path fill="#8849BF" d="M674.8 557.3s-57.9 10.5-58.3 10.2c-44.7-48 45.6-59.5 52.2-40.3l6.1 30.1z"/><path opacity=".2" d="M668.7 527.2c-1.8-5.3-9.9-8.2-19.8-8.8 5.5 18.2-26.8 27.5-34.6 21.8-3.1.9-7.2 4.8-9.7 7.5.3 1.4.8 2.8 1.4 4.3 12.6 5.8 54 21.4 64-20.8l-1.3-4z"/><path fill="#A86FD9" d="M668.7 527.1c2.4 12.5-58 35.3-62.8-5.2-.6-5.2-1.2-10.5-1.7-15.9l-14.1-18.9c-.2 15.3-.1 29.6.8 36.4 7 55.9 17.2 71.4 22.9 76.3 24.8 21.4 68.9-2.4 66-17.7l-11.1-55z"/><path opacity=".1" d="M606.9 527.2s-15.4-15-16.8-18.4c0 0 .2 13.2 1.7 21.9 0 0 8.1 8.5 23.4 9.1-.9-.7-6.5-5-8.3-12.6z"/><path fill="#8849BF" d="M659.7 479.4s-57.9 10.5-58.3 10.2c-44.7-48 45.6-59.5 52.2-40.3l6.1 30.1z"/><path opacity=".2" d="M653.7 449.3c-1.8-5.3-9.9-8.2-19.8-8.8 5.5 18.2-26.8 27.5-34.6 21.8-3.1.9-7.2 4.8-9.7 7.5.3 1.4.8 2.8 1.4 4.3 12.6 5.8 54 21.4 64-20.8l-1.3-4z"/><path fill="#A86FD9" d="M576.5 354.8c0 .3-3 72.5-.7 90.9 7 55.9 17.2 71.4 22.9 76.3 24.8 21.4 68.9-2.4 66-17.7l-11.1-55c2.4 12.5-58 35.3-62.8-5.2-3.6-30-5.2-65.5-4.5-83.4.2-3.2-9.8-5.9-9.8-5.9z"/><defs><path id="l" d="M1015.2 93.3C830.8-31 155.9 270.8 560.4 509.5c-38.1-60.5-15.6-111.8 8.8-115.3 181.2-27.6 398.2-13.7 479.1-163.8 22.3-41.1 18.7-102.1-33.1-137.1z"/></defs><use xlink:href="#l" overflow="visible" fill="#A86FD9"/><clipPath id="m"><use xlink:href="#l" overflow="visible"/></clipPath><path opacity=".2" clip-path="url(#m)" d="M997.6 292.6c-99.4 58.9-315.7 36.6-486.4 43.1-117.6 4.5-39 151.5-37.6 161.4 1.4 9.9 104.2 53.6 104.2 53.6L923 463.5s113.3-123.5 74.6-170.9z"/><path opacity=".1" clip-path="url(#m)" fill="#fff" d="M1056.5 211s22-77.6-91-116.7c-53.8-18.6-155.1-21.1-332 26 9-112 128.5-74.9 128.5-74.9l394.4 35.7-53 138.7-46.9-8.8z"/></g><path fill="none" d="M0-2.4h1144v1011.5H0z"/></g></svg>