<?xml version="1.0" encoding="UTF-8"?>
<svg xmlns="http://www.w3.org/2000/svg" xmlns:xlink="http://www.w3.org/1999/xlink" viewBox="0 0 1324 1000" enable-background="new 0 0 1324 1000">
   <g>
      <g clip-path="url(#g)">
         <defs>
            <path id="h" d="M898.9 931.8s144.1-73.5 118.1 94.9c-28.6 185.3 192.4 397.1 240.4 362.6s75-277.5 75-277.5-133.5-240-133.5-232.5-259.5-21-259.5-21l-51.5 51 11 22.5z" />
         </defs>
         <use xlink:href="#h" overflow="visible" fill="#AC85C7" />
         <clipPath>
            <use xlink:href="#h" overflow="visible" />
         </clipPath>
      </g>
      <g clip-path="url(#g)">
         <defs>
            <path id="i" d="M1115.3 746.2c-60.3 15.6-82.9 47.6-82.9 47.6 88.4-29 264.5 14.3 292.5 173.3 13.7 77.9 85.9 65.6 87 187.8-20.8-73.5-49.1-117.2-75.8-143.2 61.5 147.8 35.2 492.3-176.3 388.8 154.1-333-3.2-542.2-179.2-528.4-40.7.3-55.4 13.3-92.7 32.4-32.7-3.3-29.5 4.7-29.5 4.7s79.6-198.4 256.9-163z" />
         </defs>
         <use xlink:href="#i" overflow="visible" fill="#DD94CD" />
         <clipPath id="j">
            <use xlink:href="#i" overflow="visible" />
         </clipPath>
         <path opacity=".2" clip-path="url(#j)" d="M1032.4 793.8s-1.3.6-11.9 20.7c90.2-28.5 236.8-.3 304.4 152.6 37.5-338.1-292.5-173.3-292.5-173.3z" />
      </g>
      <g clip-path="url(#g)">
         <defs>
            <path id="k" d="M530.1 1246c-374.5-44.5-326.7-308.7-260.6-417.5 68.9-113.4 30.9-138.6 30.9-138.6l409.4-237.8s-8.3 78.8-145.1 289.4c-120.1 185 67.1 146.5 180 102.5 213.8-83.3 220.2 219.8 102.1 345.2" />
         </defs>
         <use xlink:href="#k" overflow="visible" fill="#CBC7ED" />
         <clipPath id="l">
            <use xlink:href="#k" overflow="visible" />
         </clipPath>
         <path opacity=".2" clip-path="url(#l)" d="M293.3 702s82.3 16.5 106.2 11.9c-39.2 22.6-100 23.7-103.1 23.7l-3.1-35.6" />
      </g>
      <g clip-path="url(#g)">
         <defs>
            <path id="m" d="M600.1 746.5s275.7-557.9-145.5-613.7C120.9 88.7 122.3 396 166.6 525.4c0 0-34.9-5.3-32.4 14.5 19.3 148.5 159.3 181 290.5 166.1 52.4-6 111.3 20 145.9 2.1s29.5 38.4 29.5 38.4z" />
         </defs>
         <use xlink:href="#m" overflow="visible" fill="#CBC7ED" />
         <clipPath id="n">
            <use xlink:href="#m" overflow="visible" />
         </clipPath>
         <path opacity=".2" clip-path="url(#n)" d="M333.6 306.5s-66.2 37.5-193 31.3l-44.3 13.3 6.7-101.9 253.3-12.7-22.7 70z" />
      </g>
      <path clip-path="url(#g)" d="M544 337.8s-.1.4-.5 1.2c-.3.8-.9 1.8-1.8 3s-2 2.6-3.5 3.9c-1.5 1.3-3.3 2.6-5.5 3.6-2.1 1-4.5 1.9-7.2 2.4-.6.2-1.3.2-2 .4-.3.1-.7.1-1 .2-.4 0-.7.1-1.1.1-.7.1-1.4.1-2.1.2-.7 0-1.5 0-2.2.1h-2.2c-.7 0-1.5-.1-2.3-.1-1.6-.2-3.1-.3-4.6-.5-3.1-.4-6.3-1-9.4-1.8-3.1-.7-6.3-1.7-9.3-2.6l-4.5-1.5c-1.5-.5-3-1.1-4.4-1.7-.7-.3-1.4-.5-2.1-.8l-2.1-.9c-1.4-.6-2.7-1.1-4-1.7-2.6-1.2-5-2.3-7.3-3.4-2.2-1.1-4.3-2.1-6.1-3-1.8-.9-3.4-1.8-4.7-2.5-2.6-1.4-4.1-2.2-4.1-2.2l-12.9 43.1s1.9.2 5.2.5c1.7.1 3.6.4 6 .5 2.3.1 4.9.3 7.8.5 2.9.1 6 .2 9.2.3H473c.9 0 1.8-.1 2.7-.1 1.8-.1 3.6-.1 5.5-.2s3.7-.3 5.6-.4c3.8-.4 7.7-.8 11.5-1.4 3.9-.6 7.7-1.5 11.5-2.5 1.9-.5 3.7-1.1 5.5-1.7.9-.3 1.8-.7 2.7-1 .9-.3 1.8-.7 2.6-1.1.8-.4 1.7-.8 2.5-1.2.8-.4 1.6-.9 2.4-1.3l1.2-.6c.4-.2.8-.5 1.1-.7.7-.5 1.5-.9 2.2-1.4 2.8-2 5.2-4.2 7.2-6.4s3.4-4.5 4.4-6.7c1-2.1 1.6-4 1.9-5.6.3-1.6.4-2.8.5-3.7.1-.8 0-1.3 0-1.3z" />
      <path clip-path="url(#g)" d="M546.6 369.4s-.9.9-2.7 2.2c-1.8 1.3-4.5 2.9-7.9 4.2-1.7.7-3.5 1.2-5.5 1.6-1.9.4-4 .6-6.1.7-2.1.1-4.2-.2-6.3-.5-1.1-.2-2.1-.4-3.1-.7l-1.5-.4-1.5-.5c-2-.7-3.9-1.6-5.8-2.6-1.8-1-3.6-2.1-5.3-3.2-.8-.5-1.6-1.2-2.4-1.7-.8-.6-1.5-1.1-2.2-1.8l-2.1-1.8c-.7-.6-1.3-1.2-1.9-1.8-1.2-1.1-2.3-2.2-3.2-3.2-.5-.5-.9-.9-1.3-1.4-.4-.4-.8-.8-1.1-1.2-1.3-1.5-2-2.3-2-2.3l-20.2 28.6s1.3.6 3.7 1.6c.6.2 1.2.5 1.9.8.7.3 1.5.6 2.3.9 1.7.6 3.5 1.4 5.7 2 1.1.3 2.1.7 3.3 1 1.2.3 2.4.6 3.6 1 1.2.3 2.5.6 3.8.9 1.3.3 2.6.6 4.1.8 2.8.5 5.7.8 8.7.9 3 .1 6 .1 9-.2.8-.1 1.5-.1 2.2-.2l2.2-.4c1.5-.2 2.9-.6 4.3-1 2.8-.8 5.5-1.8 8-3s4.7-2.6 6.6-4c2-1.4 3.6-2.9 5.1-4.4 2.9-2.9 4.7-5.7 5.9-7.7 1.2-2 1.7-3.2 1.7-3.2z" />
      <path clip-path="url(#g)" fill="#010101" d="M487.7 409.1s.1 0 0 0c0 0 .1 0 .2.1.1 0 .2.1.3.2.1 0 .2.1.3.1.5.2 1.2.5 2 .8 1.7.6 4 1.2 6.7 1.7 2.8.5 6 .9 9.4 1 1.7 0 3.5 0 5.3-.2 1.8-.1 3.6-.4 5.3-.8 1.8-.4 3.5-.8 5.1-1.4 1.6-.6 3.2-1.2 4.6-1.9.7-.3 1.4-.7 2.1-1.1.7-.4 1.3-.7 1.9-1.1 1.2-.8 2.3-1.6 3.3-2.3.9-.8 1.8-1.5 2.5-2.1.7-.7 1.3-1.2 1.8-1.8.9-1 1.4-1.6 1.4-1.6s-.7.2-2 .7c-.6.2-1.4.4-2.3.6-.9.2-1.9.4-3 .6-1.1.2-2.3.3-3.5.4-.6.1-1.2 0-1.9 0-.6 0-1.3 0-1.9-.1-1.3-.1-2.6-.3-3.9-.5-1.3-.3-2.6-.6-3.8-1-1.3-.4-2.5-.9-3.6-1.5-1.2-.5-2.2-1.1-3.3-1.7-2-1.2-3.8-2.6-5.2-3.8-1.4-1.2-2.4-2.3-3-3.1-.3-.4-.5-.7-.6-.8 0 0 0-.1-.1-.1h.1l-14.2 20.7z" />
      <path opacity=".2" clip-path="url(#g)" d="M525.7 301.9s-1 27.6-57.6 63.2c-57.9 36.5-12.5-55.2-12.5-55.2l70.1-8z" />
      <path opacity=".2" clip-path="url(#g)" d="M332.3 397.5s-35.2 1.6-84.9-10.8c73.7-11.3 111.1-29.7 169.5-80.4" />
      <g clip-path="url(#g)">
         <ellipse transform="matrix(.988 .157 -.157 .988 76.065 -58.932)" fill="#fff" cx="411.2" cy="452.2" rx="95.9" ry="127.9" />
         <path fill="#6C3877" d="M470.5 345c-5.3-2.9-10.9-4.8-16.9-5.5-39.6-4.9-78 42.3-85.8 105.3-7.8 63 18 118.1 57.7 123 7.6.9 15.2-.1 22.5-2.7 28.6-18.8 51.1-54.4 58-97.8 7.9-50.1-7.1-96.9-35.5-122.3z" />
         <ellipse transform="matrix(.993 .122 -.122 .993 59.153 -50.47)" fill-opacity=".6" cx="440.7" cy="456.6" rx="36.5" ry="58.2" />
         <path fill="#010101" d="M445 408.8c.5 0 1.1 0 1.6.1 3.6.4 10.3 2.9 15.7 14.4 4.6 9.9 6.4 23.3 4.7 36.7-1.6 12.9-6.1 24.7-12.6 33.3-5.5 7.2-12.1 11.4-18 11.4-.5 0-1.1 0-1.6-.1-3.6-.4-10.3-2.9-15.7-14.4-4.6-9.9-6.4-23.3-4.7-36.7 1.6-12.9 6.1-24.7 12.6-33.3 5.5-7.3 12-11.4 18-11.4m0-10c-19 0-36.8 23.1-40.5 53.4-3.9 31.9 9.1 59.7 29.2 62.2 1 .1 1.9.2 2.9.2 19 0 36.8-23.1 40.5-53.4 3.9-31.9-9.1-59.7-29.2-62.2-1-.2-2-.2-2.9-.2z" />
         <path opacity=".2" d="M316.4 437.1c-1.3 7.9-1.9 15.8-2.1 23.5 14.1-28.2 37.5-49.8 65.1-61-5.6 13.6-9.7 28.8-11.7 45.2-7.8 63 18 118.1 57.7 123 1.9.2 3.8.3 5.7.3 5.7 0 11.3-1.1 16.8-3 28.6-18.8 51.2-54.4 58-97.8 11.1-69.7-22.4-133-74.7-141.3-52.3-8.4-103.7 41.4-114.8 111.1zm66.3 9.5c2.4-19.4 8-37.6 16.2-52.9 13.3-2.8 27.3-3.3 41.4-1.1 21.2 3.4 40.2 12.5 55.8 25.7 1.9 13.3 2.1 27.7.3 42.3-3.2 26.3-12.4 50.5-25.8 68.1-12 15.7-26 24.4-39.4 24.4-1.3 0-2.6-.1-3.8-.2-13.9-1.7-26.2-12.8-34.8-31.2-9.9-20.7-13.4-47.4-9.9-75.1z" />
         <ellipse transform="matrix(.993 .122 -.122 .993 57.441 -44.587)" fill="#fff" cx="391.9" cy="445.6" rx="26.5" ry="42.2" />
         <ellipse transform="matrix(.993 .122 -.122 .993 66.002 -48.253)" fill="#fff" cx="426.1" cy="513.5" rx="16.4" ry="26.1" />
      </g>
      <path clip-path="url(#g)" fill="#010101" d="M181.3 320.1s-.1 0-.2.1-.2.2-.4.3c-.4.3-1 .7-1.7 1.2-1.5 1.1-3.8 2.5-6.5 4.3-2.8 1.7-6.1 3.6-9.7 5.5-1.8.9-3.7 1.9-5.6 2.7-1.9.9-3.9 1.7-5.9 2.5-1 .4-2 .7-3 1.1-1 .3-2 .7-3 .9-1 .3-2 .6-3 .7l-1.5.3c-.5.1-1 .2-1.5.2-2 .3-3.8.4-5.6.4-.9-.1-1.7-.1-2.6-.2-.8-.2-1.6-.3-2.4-.5-1.5-.4-2.8-1-4-1.7-.5-.4-1.1-.7-1.5-1-.4-.4-.8-.7-1.2-1.1-.2-.2-.4-.3-.5-.5-.1-.2-.3-.3-.4-.5-.2-.3-.5-.6-.6-.8-.3-.4-.5-.6-.5-.6s.1.3.3.8l.3.9c.1.2.1.4.2.6l.3.6c.3.5.5 1 .8 1.5.4.5.8 1.1 1.2 1.7 1 1.2 2.2 2.4 3.8 3.4.8.6 1.6 1 2.5 1.6.9.5 1.9.9 2.9 1.3 2 .7 4.2 1.4 6.6 1.9l1.8.3c.6.1 1.2.2 1.8.2 1.2.2 2.4.3 3.6.4 1.2.1 2.4.1 3.7.2h3.7c2.5-.1 4.9-.2 7.3-.4 2.4-.2 4.8-.5 7-.8 4.5-.6 8.7-1.4 12.3-2.2 3.6-.8 6.6-1.5 8.7-2.1 1.1-.3 1.9-.5 2.5-.7l.9-.3-10.9-22.2z" />
      <path clip-path="url(#g)" fill="#010101" d="M164.7 338.2s-.1.1-.3.4c-.2.3-.6.7-1.1 1.2-1 1-2.5 2.5-4.4 4.1-1.9 1.6-4.2 3.5-6.7 5.3-1.3.9-2.6 1.8-4 2.6s-2.8 1.6-4.3 2.3c-1.5.7-3 1.2-4.5 1.7-1.5.4-3 .8-4.5.9-1.5.2-2.9.1-4.3-.1-.7-.1-1.3-.3-2-.4-.6-.2-1.2-.4-1.8-.7-.6-.3-1.1-.6-1.6-.8-.5-.3-.9-.6-1.4-.9-.9-.6-1.5-1.3-2.1-1.8-1-1.2-1.6-1.8-1.6-1.8l1.1 2.2c.4.6.9 1.5 1.6 2.4.4.4.8.9 1.2 1.4.5.4 1 .9 1.5 1.4.6.4 1.2.9 1.8 1.3.7.4 1.4.8 2.2 1.1 1.5.6 3.3 1.2 5.1 1.5 1.8.4 3.7.4 5.7.4 1.9-.1 3.9-.2 5.8-.6 1.9-.3 3.8-.8 5.6-1.2 1.8-.5 3.6-1.1 5.3-1.7 3.4-1.2 6.4-2.5 9-3.8 2.6-1.2 4.7-2.4 6.1-3.2.7-.4 1.3-.8 1.7-1 .4-.3.6-.4.6-.4l-9.7-11.8z" />
      <path clip-path="url(#g)" d="M333.9 536s-.2-.4-.6-1.1c-.3-.8-.9-1.9-1.5-3.4-.7-1.5-1.4-3.3-2.3-5.5-.4-1.1-.9-2.3-1.3-3.6-.5-1.3-1-2.6-1.5-4-2-5.7-4-12.7-5.9-20.7-1.8-8-3.2-17.1-3.8-27-.2-4.9-.3-10 0-15.3.3-5.2.9-10.6 1.8-16 1-5.4 2.3-10.9 4-16.3.5-1.4.9-2.7 1.4-4.1.5-1.3 1-2.7 1.5-4.1.6-1.3 1.1-2.7 1.7-4.1.6-1.3 1.2-2.7 1.8-4 2.5-5.4 5.5-10.6 8.7-15.8 3.3-5.2 7-10.2 11-15.1s8.2-9.7 12.8-14.2c4.6-4.6 9.3-9 14.3-13.3 1.2-1.1 2.5-2.1 3.8-3.1 1.3-1 2.5-2.1 3.8-3.1l3.9-3.1 4-3 1-.7.5-.4.2-.2.1-.1c-.7.5-.1.1-.2.2l2.1-1.5c.2-.1.3-.2.4-.2l.3-.2.6-.4c.1-.1.2-.1.3-.2l.4-.2.8-.4c2.1-1.1 4.3-2 6.5-2.6 4.4-1.3 9.2-1.4 14.1-.8 5 .7 10 2.3 15 4.6 5 2.2 9.8 5.1 14.3 8.4 4.6 3.2 8.9 6.8 12.9 10.6 4 3.7 7.8 7.7 11.2 11.7 3.5 4 6.6 8 9.5 12.1 2.9 4 5.5 8 7.8 11.9 2.3 3.9 4.4 7.7 6.1 11.4 1.8 3.7 3.3 7.2 4.6 10.5 1.3 3.3 2.4 6.4 3.2 9.3 1.6 5.7 2.6 10.4 3.1 13.6.2 1.6.4 2.9.5 3.7.1.8 1 8.6 1 8.6l.9-7.2s0-.4.1-1.3.1-2.1.1-3.8c0-3.3-.1-8.2-.9-14.3-.9-6.1-2.5-13.5-5.2-21.6-1.4-4.1-3-8.3-5-12.7-2-4.4-4.3-8.9-7-13.5-5.3-9.1-12-18.5-20.2-27.5-8.3-8.9-18.1-17.3-30-23.5-5.9-3-12.4-5.5-19.2-6.7-6.8-1.2-14-1.2-21 .5-3.5.8-6.8 2.1-10 3.7-1.6.8-3.2 1.7-4.7 2.7l-2.2 1.5-2.2 1.6c-5.7 4.1-11.2 8.5-16.5 13-10.6 9.2-20.6 19.3-29 30.3-8.5 11-15.5 22.8-20.6 35.1-5.1 12.2-8.2 24.8-9.4 36.9-1.3 12.1-.8 23.6.8 34.1 1.5 10.5 4.1 19.9 7 27.9 2.8 8.1 6 14.9 8.8 20.4 2.8 5.5 5.3 9.6 7.1 12.4 1.8 2.8 7.9 10.5 7.9 10.5l-3.5-7.3z" />
      <path clip-path="url(#g)" fill="#010101" d="M190.4 313.7s-.1 0-.2.1c-.1 0-.1.1-.3.2-.4.2-1 .4-1.8.7-1.6.6-4.1 1.4-7.1 2.3-3 .9-6.5 1.8-10.4 2.5-1.9.4-3.9.7-5.9 1-2 .3-4.1.5-6.1.6-2.1.1-4.1.2-6.1.1-1-.1-2-.1-3-.2-.9-.1-2-.2-2.9-.4-.9-.2-1.9-.3-2.7-.5-.4-.1-.9-.2-1.3-.3-.4-.1-.8-.3-1.2-.4-.9-.2-1.6-.6-2.4-.9-.8-.3-1.5-.7-2.1-1.1-.7-.4-1.3-.8-1.9-1.2l-.9-.6c-.3-.2-.5-.4-.8-.7-1-.8-1.7-1.7-2.4-2.5-.6-.7-1-1.4-1.3-1.8-.3-.4-.5-.7-.5-.7s0 .3.1.8.1 1.4.4 2.4c.3 1 .5 2.3 1.1 3.6.1.4.3.7.4 1.1.2.4.4.7.6 1.1.4.7.8 1.6 1.3 2.3.5.8 1.1 1.7 1.7 2.4.6.8 1.3 1.7 2.1 2.4l1.2 1.2c.4.4.8.8 1.3 1.1.9.8 1.8 1.5 2.8 2.2 1 .8 2 1.4 3 2.1 1 .7 2.1 1.3 3.2 2 2.2 1.2 4.5 2.4 6.8 3.4 2.3 1.1 4.7 2 7 2.8 2.3.8 4.7 1.6 6.9 2.3 4.5 1.3 8.8 2.4 12.5 3.1 3.7.8 6.9 1.3 9.1 1.6 1.1.2 2 .3 2.7.3.3 0 .7 0 .9.1h.2l-4-34.5z" />
      <g clip-path="url(#g)">
         <path fill="#fff" d="M203.1 526.6c41.6-90.1 31.7-153 11.5-186.6-26-43.2-67.2.3-56.2 94.5 7.6 65.3 11.9 83.7 15.1 92.4 19 4.6 25.9 7.6 29.6-.3z" />
         <path fill="#6C3877" d="M214.6 340c-1.4-2.4-2.9-4.5-4.4-6.4-19 7.8-36.8 43.3-42.2 87.5-6.4 51.9 6.6 96.2 28.9 99 3.2.4 6.5-.1 9.7-1.4 37.5-85.8 27.6-146.1 8-178.7z" />
         <ellipse transform="matrix(.993 .122 -.122 .993 53.987 -22.35)" fill-opacity=".6" cx="209.1" cy="428.6" rx="20.6" ry="47.9" />
         <path fill="#010101" d="M213.8 387h.4c2.8.3 5.8 4.8 7.8 11.4 2.5 8.7 3.1 20 1.7 31.9-1.4 11.5-4.6 22.1-9 29.9-3.4 6-7.5 10-10.3 10h-.4c-2.8-.3-5.8-4.8-7.8-11.4-2.5-8.7-3.1-20-1.7-31.9 1.4-11.5 4.6-22.1 9-29.9 3.4-6.1 7.4-10 10.3-10m0-6c-11 0-22.1 19.7-25.2 45.1-3.2 26.2 3.3 48.7 14.6 50.1.4 0 .7.1 1.1.1 11 0 22.1-19.7 25.2-45.1 3.2-26.2-3.3-48.7-14.6-50.1-.4-.1-.7-.1-1.1-.1z" />
         <path opacity=".2" d="M214.2 500.1c-5.3 6.5-10.7 10.2-15.1 10.2-.3 0-.7 0-1-.1-6.3-.8-12.8-10-16.9-23.9-5.1-17.4-6.3-40.1-3.4-63.9 2.5-20.4 7.8-39.4 15.1-54.3 16 12.6 29.1 39.9 36.5 75 7.2-46.6-1.6-81.1-14.9-103.1-18-30-43.4-18.3-53.6 23.2 3.9-1.8 7.9-2.7 12-2.7 3.9 0 7.7.8 11.4 2.4-7.7 15.5-13.7 35.7-16.4 58.3-6.4 51.9 6.6 96.2 28.9 99 .7.1 1.5.1 2.2.1 2.5 0 5-.5 7.5-1.5 2.9-6.4 5.4-12.6 7.7-18.7z" />
         <ellipse transform="matrix(.993 .122 -.122 .993 59.67 -20.76)" fill="#fff" cx="199" cy="475.7" rx="9.3" ry="21.5" />
         <ellipse transform="matrix(.993 .122 -.122 .993 52.192 -18.912)" fill="#fff" cx="180.2" cy="415.7" rx="15" ry="34.7" />
      </g>
      <path clip-path="url(#g)" d="M208.4 515s.1-.2.4-.7c.3-.5.7-1.2 1.1-2.1.9-1.9 2.4-4.6 4-8.2 1.6-3.6 3.6-7.9 5.5-13 1-2.5 2-5.2 3.1-8.1 1-2.9 2.1-5.9 3.1-9.1 1-3.2 2-6.5 3-10s1.9-7.1 2.9-10.9c1.8-7.5 3.5-15.5 4.8-23.9.7-4.2 1.2-8.5 1.6-12.9.5-4.4.8-8.8.9-13.4.4-9 .1-18.3-1.1-27.7-.6-4.7-1.5-9.4-2.6-14.1-1.2-4.7-2.7-9.3-4.5-13.8-1.8-4.5-4.2-8.9-7-13-1.4-2.1-2.9-4-4.5-5.9-1.6-1.9-3.4-3.6-5.2-5.3-.5-.4-.9-.8-1.4-1.2l-.7-.6-.2-.1s-.4-.3-.3-.2l-.1-.1-.3-.2c-.6-.5-2.1-1.6-3.2-2.3-2.3-1.5-5-2.7-7.9-3.5-2.9-.8-6.1-1.1-9.2-.7-3.1.4-5.9 1.4-8.2 2.7-2.4 1.3-4.4 2.8-6.1 4.4-1.7 1.6-3.2 3.2-4.4 4.9-2.5 3.3-4.5 6.7-6 9.9-3.1 6.5-4.9 12.7-6.2 18.1-1.3 5.4-1.8 10.3-2.2 14.2-.2 2-.3 3.7-.3 5.3v3.9c0 1.1-.1 2.4 0 2.9v5.4l1.2-4.9s.4-1.2.7-3.2c.3-2 .8-5 1.6-8.7.9-3.7 2.1-8.2 3.9-13.2 1.8-5 4.2-10.5 7.5-16.1 1.7-2.8 3.6-5.6 5.9-8.2 2.3-2.6 5-5 8.3-6.5 3.2-1.5 7-2 10.6-.8 3.6 1.1 6.8 3.5 9.6 6.4 5.8 5.6 10.2 13 13.3 20.9 3.1 8 5 16.5 6 25.2 1.1 8.6 1.5 17.4 1.3 26-.1 8.6-.7 17.1-1.6 25.3-1.7 16.3-4.5 31.5-7.3 44.3-2.8 12.9-5.5 23.5-7.6 30.9-2.1 7.4-4.6 16.8-4.6 16.8l2.4-4.9z" />
      <g clip-path="url(#g)">
         <defs>
            <path id="o" d="M541.2 884.5S381.5 858 414 994.7c4.6-30.4 19.5-50 49.8-57.7-16.6 17.2-39.5 48.8-10.5 89.7 12.3-48 86-94 92.7-94.9 6.6-.9-4.8-47.3-4.8-47.3z" />
         </defs>
         <use xlink:href="#o" overflow="visible" fill="#DD94CD" />
         <clipPath id="p">
            <use xlink:href="#o" overflow="visible" />
         </clipPath>
         <path opacity=".2" clip-path="url(#p)" d="M427.8 984.2c7.8-17.4 22.4-44.7 36.1-47.2 0 0 4.2-1.4 14.6-2.1-20 14-37.2 30.6-38.3 61.6l-12.4-12.3z" />
      </g>
      <g clip-path="url(#g)">
         <defs>
            <path id="q" d="M543.2 928.7c-191.9 108.3 32.2 328.8 137.5 251.9-132.9 8-118.1-140.6-84.3-197.5 37.3 30.2 3.9 70.6 3.9 70.6 104-47.2 12.2-131.7 12.2-131.7" />
         </defs>
         <use xlink:href="#q" overflow="visible" fill="#AC85C7" />
         <clipPath id="r">
            <use xlink:href="#q" overflow="visible" />
         </clipPath>
         <path opacity=".2" clip-path="url(#r)" d="M594.9 951.2s62.7 22.5 37.1 81.9c-25.6 59.4 59.4 9.4 59.4 9.4L699 936l-75-3-29.1 18.2z" />
      </g>
      <g clip-path="url(#g)">
         <defs>
            <path id="s" d="M14.1 214C63.6 66 246.3 39.8 246.3 39.8c189.8-58.9 360.2 31.4 406.3 117.7 23.1 43.3-18.8 69-52 81.9.6.3 1 .4 1 .4s-162.7 184-380 124.7c87.2-26.7 105.3-60.7 116-76-62.7 74.7-370-40.7-288 92-.6-.4-1.2-.9-1.8-1.3.6.5 1.2 1.1 1.9 1.6 0 0-81.7-29.1-35.6-166.8z" />
         </defs>
         <use xlink:href="#s" overflow="visible" fill="#AC85C7" />
         <clipPath id="t">
            <use xlink:href="#s" overflow="visible" />
         </clipPath>
         <path opacity=".2" clip-path="url(#t)" d="M246 36.9s39.1 7.6 53.1 24.7c-36.7-12.5-62.5-15.5-87-11-10.8 2 33.9-13.7 33.9-13.7z" />
         <path clip-path="url(#t)" fill="#DD94CD" d="M601.6 239.8s-162.7 184-380 124.7c87.2-26.7 105.3-60.7 116-76-62.7 74.7-370-40.7-288 92-93-63.5 40.1-176.9 132-190 236.1-33.6 420 49.3 420 49.3z" />
         <path opacity=".2" clip-path="url(#t)" d="M348.3 265.7s1.2 2.9-10.7 21.3c-43.3 67.5-304-5.5-276 62.6s-9.2 60.1-12.5 59.4c-3.3-.7 6.5-24.1.5-28.5-40.2-29.2-24.8-71.6.2-78 97.9-25.2 261.1 34.7 298.5-36.8zM221.6 364.5c75 14 292.3-14 314-125 19.7 11.6 27 104.5 27 104.5l-310 50.5-58.3-20.8s20.2-8.1 27.3-9.2z" />
      </g>
      <path clip-path="url(#g)" fill="#AC85C7" d="M288.3 49.2s-70.5-27-119.3-15.3C223.3-13.4 416.9 4.7 498.3 46" />
      <path opacity=".2" clip-path="url(#g)" d="M420.5 20.1C458.1 37 488.1 66 488.1 66l-13.2-30.8c-.1 0-31.1-9.2-54.4-15.1z" />
      <path clip-path="url(#g)" fill="#AC85C7" d="M535.6 62.5S481.7 14.4 426.1 5.7c50.5 33.2 62.6 58.4 60.6 64.7-2 6.3 48.9-7.9 48.9-7.9z" />
      <path opacity=".2" clip-path="url(#g)" d="M484.5 27.1s19.2 13.5 38.3 37.7c5.2-11.4-22.2-28.1-22.2-28.1l-16.1-9.6z" />
      <path clip-path="url(#g)" fill="#AC85C7" d="M537.1 97s-10-36.5-69-97c60.2 14.7 90.5 41.2 137 101.5 66.8 86.6-68-4.5-68-4.5z" />
      <g clip-path="url(#g)">
         <defs>
            <path id="u" d="M718 344.1S821.6 373.4 831 452c9.2 76.4-119.9 153.3-142.1 161.3-6.5 2.4-94.1-113.2-94.1-113.2l123.2-156z" />
         </defs>
         <use xlink:href="#u" overflow="visible" fill="#AC85C7" />
         <clipPath id="v">
            <use xlink:href="#u" overflow="visible" />
         </clipPath>
         <path clip-path="url(#v)" fill="#DD94CD" d="M713 357.1s80.3 71.4 1.8 134.5c-42.2 1-78.8-14.8-78.8-14.8l77-119.7z" />
         <path opacity=".2" clip-path="url(#v)" d="M670.2 479.3l-3.2.3 15.4-121.3 55.4-27.2c3.9-4.7 6.9-8.1 6.9-8.1l129.1 38s14.1 165.8-92.8 191.5c-7 8.4-58.5 28.7-58.5 28.7s175.5-95.8 53.8-191.9c-42.8-33.8-66.6 52.2-77.8 84.9 12.3 2.4 26.6 8.1 31.7 26.7 0 0-6.4-18.6-46-16.4-19.8 1.1-19.4-1.9-14-5.2z" />
      </g>
      <g clip-path="url(#g)">
         <defs>
            <path id="w" d="M644.3 914.5c17.3 60-154.9 47.3-102.9-42.7 56.8-98.5 100.8 35.5 102.9 42.7z" />
         </defs>
         <use xlink:href="#w" overflow="visible" fill="#6F57BC" />
         <clipPath id="x">
            <use xlink:href="#w" overflow="visible" />
         </clipPath>
         <path opacity=".2" clip-path="url(#x)" d="M618.9 901.8s17 49-63.8 38.6c45.8 33.7 100.8 5.1 100.8 5.1l5.3-38.7-14.3-7.3-28 2.3z" />
      </g>
      <g clip-path="url(#g)">
         <defs>
            <path id="y" d="M632.6 577.8s193.2-276.3 56.5-500.4c-45.7-74.9-173 59.9-163.4 224.5.4 7.5 1 14.8 1.8 22 3 28 88.1 1.8 94.7 25.9 5.2 18.7-68.6 88.5-62.1 104.5 31.4 78.2 72.5 123.5 72.5 123.5z" />
         </defs>
         <use xlink:href="#y" overflow="visible" fill="#CBC7ED" />
         <clipPath id="z">
            <use xlink:href="#y" overflow="visible" />
         </clipPath>
         <path opacity=".2" clip-path="url(#z)" d="M653.9 145.5s.7.8 2 2.3c1.2 1.6 3 3.8 5 7 2 3.1 4.3 6.9 6.6 11.5s4.7 9.9 6.8 15.8c1.1 3 2.1 6.1 3.1 9.4.9 3.3 1.9 6.7 2.7 10.2 1.7 7.1 3 14.6 3.9 22.5.4 3.9.8 8 1 12 .1 2 .2 4.1.3 6.2v6.2c0 4.2-.2 8.4-.4 12.6-.3 4.2-.7 8.4-1.1 12.6-.6 4.2-1.2 8.4-1.9 12.5-.4 2.1-.8 4.1-1.2 6.2-.4 2-.8 4.1-1.3 6.1-1.9 8.1-4.2 15.9-6.8 23.3-1.4 3.7-2.6 7.3-4.1 10.8-1.5 3.5-2.9 6.9-4.4 10.1-1.5 3.3-3.1 6.4-4.6 9.4-1.6 3-3 5.9-4.7 8.5-1.6 2.7-3.1 5.3-4.6 7.7-1.5 2.4-3.1 4.6-4.5 6.7-2.8 4.2-5.5 7.7-7.8 10.5-2.2 2.9-4.2 5-5.4 6.5-1.3 1.5-2 2.2-2 2.2l-1.4-.8s1.8-3.6 4.9-9.9c1.6-3.1 3.3-7 5.3-11.5 2.1-4.4 4.1-9.6 6.4-15.1 1.2-2.8 2.3-5.7 3.4-8.8 1.1-3.1 2.4-6.2 3.4-9.4 1.1-3.3 2.2-6.6 3.3-10.1 1-3.5 2-7 3.1-10.6 1-3.6 1.9-7.4 2.8-11.1 1-3.8 1.6-7.6 2.5-11.5.8-3.9 1.4-7.8 2.1-11.7.6-3.9 1.1-7.9 1.6-11.9.4-4 .9-8 1.2-11.9.2-4 .6-7.9.7-11.9.1-2 .1-3.9.2-5.9v-5.8c.1-3.9-.1-7.7-.3-11.4-.4-7.5-1-14.7-1.9-21.6-.9-6.8-2-13.2-3.3-19.1-1.2-5.9-2.7-11.2-4-15.9-1.3-4.7-2.7-8.7-3.9-12-2.4-6.6-4.2-10.1-4.2-10.1l1.5-.8z" />
      </g>
      <g clip-path="url(#g)">
         <defs>
            <path id="A" d="M767.4 545s80.2 54.7 75.4 119.9c-6 81.8-118.6 103.6-118.6 103.6s62.2 90.8-56.9 127.5c-155.9 48-182.6-117.1-120.8-156.6-32.6-92.6 65-93.6 87-80.3-28.5-21.5-72-133.1 6.5-164.8 47.3-19.1 83.6-9.2 90.1 6 11.5 26.1 37.3 44.7 37.3 44.7z" />
         </defs>
         <use xlink:href="#A" overflow="visible" fill="#AC85C7" />
         <clipPath id="B">
            <use xlink:href="#A" overflow="visible" />
         </clipPath>
         <path clip-path="url(#B)" fill="#DD94CD" d="M578 800.3s-22.2-24.3-31.5-61c-19.9-10.2-56.5-12.9-55.1-35.8 1.9-31.3 58.8-86.9 58.8-86.9l72.1 30.3s29.5 13.5 46.4 27c0 0-56.2-12.5-78.2 27.9-28.3 52-12.5 98.5-12.5 98.5zM548.7 725.2s-55.5-1.6-59.8 56.8c-4.3 58.3 20.4 101.3 20.4 101.3s94.3 49.8 110.2 32.2C579 888 552 857.5 578 800.3c-12.6-42-29.3-75.1-29.3-75.1zM521.7 605.2c1.2-2.9 114.5-128.7 114.5-128.7s82.7-4.3 94 23.6c-40.4-9.3-78 18.1-83.2 66.8-5.4 51.3 4.7 93.9 21.7 106.9-27.2-8.5-35.2-14.9-35.2-14.9l-111.8-53.7z" />
         <path opacity=".2" clip-path="url(#B)" d="M667.6 765.9s29.7 8.2 57 1.9c49.5 9.9 95 14.7 121.8-21.8 39.4-53.7 27.2-149.6-9.3-191.2-17.2-19.6-66.7-7.6-66.7-7.6L725 581s11-4.4 29.3-11.7c23.3 16.8 60.5 63 57.7 106-5.2 78.8-118 90-144.4 90.6zM737.7 775.1l-13.5-6.7-23.5 2.4s46.4 110.2-89.6 122.7c-45.9 4.2-87.2-32.4-95.4-77.6C381 863.8 664.6 932.3 664.6 932.3S811.8 863 812.5 860c.8-3-74.8-84.9-74.8-84.9zM539.9 712.8s6.4 17.4 28.7 40.4c-11.1-6.2-22.5-10.5-33.4-4.2-13.4 7.9 4.7-36.2 4.7-36.2zM602.4 605.8s-49.2 52.1-24.6 50.6c52.5-3.3 88.7 24.2 133.3 26.4-66.7-23.5-92-41.2-108.7-77z" />
      </g>
      <path d="M203.3 629l1.2.6c.8.4 1.9.9 3.4 1.6 1.5.6 3.3 1.4 5.5 2.1 2.1.8 4.6 1.5 7.3 2.3 5.4 1.6 11.7 3 18.7 3.9 3.5.4 7.1.7 10.7.8 3.6.1 7.4-.1 10.9-.8 3.6-.6 7.2-1.7 9.7-4 1.3-1.1 2.1-2.6 2.5-4.2.4-1.6.3-3.3-.1-4.9-.8-3.3-2.4-6.2-4.1-8.9-1.7-2.7-3.6-5-5.5-7.1-1.8-2.1-3.6-4-5.1-5.6l-4.2-4.2c-1.2-1.1-2.1-2-2.8-2.6-.6-.6-1-.9-1-.9l.7-.7s.5.2 1.3.5c.8.4 2.1.9 3.6 1.7 1.5.8 3.4 1.8 5.4 3 2 1.3 4.3 2.8 6.6 4.7 2.3 1.9 4.8 4.1 7.2 6.9.6.7 1.2 1.4 1.8 2.2.6.8 1.2 1.6 1.7 2.5 1.1 1.8 2.1 3.8 2.9 6.3.8 2.5 1.2 5.6.5 9-.3 1.7-.9 3.5-1.8 5-.4.8-1 1.5-1.5 2.2-.6.6-1.1 1.4-1.7 1.9-2.4 2.3-5 3.8-7.4 4.7-2.5 1-4.8 1.6-7.1 2-4.6.8-8.8.9-12.9.6-2.1-.1-4-.3-6-.6-1.9-.3-3.9-.6-5.7-1-3.7-.8-7.2-1.9-10.4-3-3.2-1.2-6.2-2.5-8.9-3.8-2.7-1.4-5-2.7-7.1-4.1-2-1.3-3.7-2.6-5.1-3.8-1.3-1.1-2.3-2.1-3-2.8-.6-.7-1-1.1-1-1.1l.8-.4z" opacity=".2" clip-path="url(#g)" />
      <path opacity=".2" clip-path="url(#g)" d="M175.7 553.3c.1.5.2.9.2 1.5 0 .5-.1 1.1-.3 1.5-.1.3-.3.5-.4.7-.2.2-.4.4-.6.5-.4.3-1.1.3-1.6.5-.6 0-1.2.1-1.8 0-.6-.1-1.2-.2-1.8-.2-.6-.1-1.1-.3-1.7-.4-.5-.1-1-.2-1.5-.4-1.8-.6-3.5-1.1-3.5-1.1l.3.6s.8 1.5 2.4 3c.4.4.9.7 1.4 1 .5.3 1.1.7 1.8.9.7.2 1.4.4 2.2.6.8.1 1.7.1 2.6.1 1.1-.3 2-.3 3.2-1.2.3-.2.5-.4.8-.6.2-.2.5-.5.7-.8.4-.6.8-1.1.9-1.7.2-.6.3-1.2.3-1.7s0-1-.2-1.4c-.1-.4-.2-.8-.3-1.1-.2-.3-.3-.6-.5-.9-.7-1-1.4-1.7-2-2.1-.3-.2-1.7-.8-1.7-.8s.6 1.5 1.1 3.5z" />
   </g>
</svg>