<svg xmlns="http://www.w3.org/2000/svg" xmlns:xlink="http://www.w3.org/1999/xlink" viewBox="0 0 1304.8 1089.1" enable-background="new 0 0 1304.8 1089.1"><g><defs><path id="a" d="M-.7-2.3h1304.8v1091.4H-.7z"/></defs><clipPath id="b"><use xlink:href="#a" overflow="visible"/></clipPath><g clip-path="url(#b)"><path fill="#63554D" d="M1141.2 1125.5s38.9-135.9-146.3-269.3c-36.2-26.1-149.5-50.4-171.2-51.1-32.7-1.1-44.8 25.7-78.4 48-97.8 64.9 223 367.7 287.4 384.8 34.2 9.1 71.9-17.1 71.9-17.1l36.6-95.3z"/><defs><path id="c" d="M450.6 987.4C468.4 813.3 94.7 709.6 0 931.5c34.3-38.3 55.3-54 110.8-61.8-72.6 37-213.9 197.6 53.5 314.4 79.6 34.7-80.5 114.1-105.6 16.8-26.2 104.2 171.9 205.9 204.2 18.4 6.3 1.9 21.2 25.8 12.5 78 47.5-22.8 74.7-85.6 48.6-134-163.6-304 78.1-228.3 96.1-152.6 18 75.6 29.5-13.8 30.5-23.3z"/></defs><use xlink:href="#c" overflow="visible" fill="#F6BD17"/><clipPath id="d"><use xlink:href="#c" overflow="visible"/></clipPath><path opacity=".2" clip-path="url(#d)" d="M423.8 971.3c-19.5-78.7-305.9-117-230 123.7 81.6 258.4 249.5-45 230-123.7z"/><path fill="#F7EFDA" d="M1167.2 577.4c11.4 6 29.6 7.1 52.1 12 28.7 6.2 10.4 281.5-304.4 165.4C606.2 641 592.8 416.4 766.6 262.9s422.4-21.5 439.6 144.8c13.3 127.7-39 169.7-39 169.7z"/><path opacity=".2" d="M1123.8 292.9s-34.2 73.1-95.7 87.8c40.4 10.4 114.7-13.7 134.1-47.4 22.6-39.2-38.4-40.4-38.4-40.4zM744.2 318.1s131.9 45.6 26.4 107.7c51.3 5.8 89.4-29.2 73.4-70.1-28.2-72.2-99.8-37.6-99.8-37.6z"/><defs><path id="e" d="M1254.5 138.3C1098.3-59 784.6 16.9 726.8 135.2 737.3 88 746.6 62.5 803.1 2.5c-54.3 17.2-149.5 81.1-171 152.6-103.8 211.3-88.4 277.8 16.3 490.6-32.1-13.2-72-52.1-101.7-100.5C574 787.8 826 909 826 909L695 534.4l-25.7-257.2c28.7 31.2 58.9 37 58.9 37s211.5 27 54.6 130.5c82.9 2.6 279.6-78.8 234.1-216.5 50-27.8 102.5 12 108.1 40.8 8.9 45.8-29.9 126.4-96.1 142.1 116.1 9.1 386-70.1 225.6-272.8z"/></defs><use xlink:href="#e" overflow="visible" fill="#F6BD18"/><clipPath id="f"><use xlink:href="#e" overflow="visible"/></clipPath><path opacity=".1" clip-path="url(#f)" fill="#fff" d="M1028.9 411.1c118.6.6 422.5-163.7 20.9-389.6-276.9-155.8 343.1-2.3 343.1-2.3l91.5 292.4-242.9 154.9c0 .1-208.8-.6-212.6-55.4zM782.8 444.7c83.6-26 207.1-90.4 204-194.5-2.3-75.9 97.5-37.2 88.2 12-2.2 11.5-54 198.4-222.6 194.7s-86.5-7-69.6-12.2z"/><path opacity=".2" clip-path="url(#f)" d="M758.9 882.9s-39.9-150.2-124.5-312c-36.6-37.9-148.3-166.7-163.3-230C423.4 140.3 617.9 355 617.9 355l263.5 483.9-122.5 44zM1011.7 17.5C785.6 48.8 731.3 162.7 721.5 178.7c0-46.7 19.1-130.3 138.2-172.8s165.3-19.5 152 11.6z"/><defs><path id="g" d="M396.3 1276.2c-37.3-132.5-73.6-338 105-329.2 340.7 16.6 339.4-9.2 161.1-398-46.5-101.4 326.5 222 326.5 222s-2.4 54.5 35.4 111.7c33 50.1 99.1 193.2 42.8 329.9"/></defs><use xlink:href="#g" overflow="visible" fill="#F7EFDA"/><clipPath id="h"><use xlink:href="#g" overflow="visible"/></clipPath><path opacity=".2" clip-path="url(#h)" d="M988.8 772.5s-55.1-4-90.4-18c26.9 45.1 94.6 44.7 103.3 38.9 9.2-6-12.9-20.9-12.9-20.9z"/><defs><path id="i" d="M1027.4 463.3s-62.3-10.8-187.3 21c-40.2 21.4-11.8 168.1 100.9 148.1 115.7-20.6 86.4-169.1 86.4-169.1z"/></defs><use xlink:href="#i" overflow="visible" fill="#fff"/><clipPath id="j"><use xlink:href="#i" overflow="visible"/></clipPath><ellipse transform="matrix(.999 -.045 .045 .999 -22.794 41.778)" clip-path="url(#j)" fill="#14A982" cx="918.8" cy="528.4" rx="72.3" ry="115.1"/><g clip-path="url(#j)"><ellipse transform="matrix(.999 -.045 .045 .999 -23.124 41.805)" opacity=".6" cx="919.3" cy="535.8" rx="44.7" ry="71.1"/><path d="M917.4 464.7v10c8.2 0 16.5 5.6 23.4 15.7 7.7 11.5 12.4 27 13.2 43.8.8 17.1-2.6 33.3-9.5 45.4-8.2 14.4-17.5 17-22.4 17.2h-.8c-8.2 0-16.5-5.6-23.4-15.7-7.7-11.5-12.4-27-13.2-43.8-.8-17.1 2.6-33.3 9.5-45.4 8.2-14.4 17.5-17 22.4-17.2h.8v-10m0 0h-1.3c-24.7 1.1-43.2 33.8-41.4 73 1.7 38.6 22.4 69.1 46.5 69.1h1.3c24.7-1.1 43.2-33.8 41.4-73-1.7-38.6-22.4-69.1-46.5-69.1z" opacity=".2"/></g><path opacity=".2" clip-path="url(#j)" d="M1027.4 463.3s-62.3-10.8-187.3 21c-14.7 7.8-20.2 32.3-15.8 59.3 7.2-4 14.7-7.6 22.4-10.9 2 40.3 16.9 75.1 37.8 94.5 15.7 6.7 34.5 9.1 56.5 5.2 5.8-1 11.3-2.4 16.4-4.1 21.9-20.4 35.6-59.2 33.6-103.1-.1-2.8-.3-5.7-.6-8.5 13.3 2.4 26.3 6 38.9 10.5 3.9-34.5-1.9-63.9-1.9-63.9zm-63.1 138.8c-10.8 19-25.3 29.9-40.7 30.6H922c-15.2 0-30.3-9.9-42.4-27.8-13.1-19.4-21-45.6-22.3-73.8 0-.9-.1-1.8-.1-2.7 9.6-3.6 19.5-6.6 29.7-9 31.3-7.4 62.6-8.7 92.6-4.5.4 3.5.6 7.1.8 10.7 1.4 28.8-4.3 55.9-16 76.5z"/><ellipse transform="matrix(.999 -.045 .045 .999 -22.505 44.04)" clip-path="url(#j)" fill="#fff" cx="969.3" cy="523.1" rx="27.6" ry="43.9"/><ellipse transform="matrix(.999 -.045 .045 .999 -24.217 41.678)" clip-path="url(#j)" fill="#fff" cx="915.9" cy="560.1" rx="17.1" ry="27.2"/><defs><path id="k" d="M1208.2 429.2s13.3 100.1-41 148.3c-27-10.7-42.7-24.9-42.7-24.9s-6.7-74.6-11.4-94.6c40.7-22 78.9-27 95.1-28.8z"/></defs><use xlink:href="#k" overflow="visible" fill="#fff"/><clipPath id="l"><use xlink:href="#k" overflow="visible"/></clipPath><ellipse transform="matrix(.999 -.045 .045 .999 -21.133 51.685)" clip-path="url(#l)" fill="#14A982" cx="1140.2" cy="496.4" rx="51" ry="81.1"/><g clip-path="url(#l)"><ellipse transform="matrix(.999 -.045 .045 .999 -21.365 51.703)" opacity=".6" cx="1140.5" cy="501.6" rx="31.5" ry="50.1"/><path d="M1139.2 459.5c11.1 0 23.7 16.5 24.8 41 .5 11.7-1.9 23.2-6.6 31.5-2.4 4.2-7.5 11.3-15 11.6h-.5c-11.1 0-23.7-16.5-24.8-41-.5-11.7 1.9-23.2 6.6-31.5 2.4-4.2 7.5-11.3 15-11.6h.5m0-8h-.9c-17.4.8-30.5 23.8-29.2 51.5 1.2 27.2 15.8 48.7 32.8 48.7h.9c17.4-.8 30.5-23.8 29.2-51.5-1.2-27.2-15.8-48.7-32.8-48.7z" opacity=".2"/></g><path opacity=".2" clip-path="url(#l)" d="M1208.2 429.2c-16.2 1.9-54.4 6.8-95.1 28.8 2.1 8.8 4.6 28.4 6.7 47.5 18.7-13.2 38.8-24.8 60-34.4 1.9 7.4 3 15.3 3.4 23.4.9 20.2-3.1 39.2-11.3 53.6-6.4 11.2-14.5 18.3-23.4 20.6 3 1.6 6.2 3.2 9.6 4.8 20.7-10.8 34.8-42.6 33.1-79.4-.4-9.3-1.8-18.1-4-26.3 7.4-3.1 14.8-6.1 22.4-8.8.2-17.8-1.4-29.8-1.4-29.8z"/><ellipse transform="matrix(.999 -.045 .045 .999 -21.161 53.237)" clip-path="url(#l)" fill="#fff" cx="1174.8" cy="497.8" rx="19.5" ry="31"/><ellipse transform="matrix(.999 -.045 .045 .999 -22.314 51.665)" clip-path="url(#l)" fill="#fff" cx="1139.2" cy="522.7" rx="12" ry="19.1"/><path opacity=".2" d="M1139.9 693.1s-1.4 1.1-4 3c-.6.5-1.3 1-2.1 1.6-.7.6-1.6 1.2-2.6 1.8-1.9 1.2-4 2.6-6.4 3.9-2.5 1.2-5.1 2.6-7.9 3.9-1.5.6-3 1.2-4.5 1.7-.8.3-1.5.6-2.3.9-.8.2-1.6.4-2.5.7-1.7.4-3.3 1-5.1 1.3-1.8.3-3.5.6-5.3.8-1.8.3-3.6.2-5.5.3-.9 0-1.8.1-2.8.1l-2.8-.2c-1.8-.2-3.7-.3-5.5-.8-1.8-.5-3.6-.7-5.3-1.3-1.7-.6-3.4-1.3-5.1-1.9-1.6-.8-3.1-1.6-4.7-2.4-1.6-.7-2.9-1.9-4.2-2.8-1.4-1-2.7-1.9-3.8-3-1.2-1.1-2.3-2.1-3.4-3.1-1-1.1-1.9-2.2-2.8-3.2-.9-1.1-1.8-2-2.5-3.1-.7-1-1.3-2-2-3-.6-.9-1.2-1.8-1.7-2.6-.4-.9-.8-1.6-1.2-2.4-1.5-2.8-2.3-4.5-2.3-4.5l.9-.4s.4.3 1 .9c.6.6 1.6 1.5 2.7 2.6.6.6 1.2 1.2 1.8 1.9.8.6 1.5 1.3 2.3 2 1.6 1.4 3.4 3 5.4 4.5 1 .8 2 1.6 3.1 2.4 1.2.7 2.3 1.4 3.4 2.2 1.1.8 2.4 1.4 3.6 2.1 1.3.6 2.4 1.5 3.8 1.9 1.4.5 2.7 1.1 4 1.6l4.2 1.2c1.4.5 2.9.5 4.4.9 1.4.4 3 .4 4.5.5l2.2.3c.8.1 1.5 0 2.3 0 1.5-.1 3 .1 4.6-.1 1.5-.2 3-.3 4.6-.4 1.5-.1 3-.5 4.5-.7 3-.3 5.9-1.3 8.7-1.8 1.4-.3 2.7-.8 4.1-1.2 1.4-.4 2.7-.7 3.9-1.1 2.4-.9 4.7-1.6 6.8-2.2.5-.2 1-.3 1.5-.5s1-.4 1.4-.6c.9-.3 1.8-.7 2.6-.9 1.5-.6 2.8-.9 3.7-1.2.9-.2 1.3-.4 1.3-.4l1 .8z"/><path fill="#F7EFDA" d="M712 592.8S460.8 410.5 531.6 151.4c23.7-86.6 149-.1 206.3 140.3 4.9 12 6.4 28.4 6.2 38.3 0 0 26.5 75.8-10.6 112.2 45.2 59.9-8.2 158.8-21.5 150.6z"/><path opacity=".2" d="M565.4 215.5s.1 1 .3 2.8c.2 1.8.6 4.6 1 7.9.5 3.4 1.1 7.5 1.9 12.1.8 4.6 1.7 9.8 3 15.4 1.2 5.6 2.5 11.6 4.2 17.8 1.5 6.3 3.5 12.8 5.5 19.5 2.1 6.7 4.3 13.5 6.9 20.4 1.1 3.5 2.7 6.8 3.9 10.3 1.3 3.5 2.8 6.9 4.2 10.3 1.5 3.4 2.9 6.9 4.4 10.2 1.6 3.3 3 6.8 4.6 10.1.8 1.7 1.6 3.3 2.4 4.9.8 1.7 1.5 3.3 2.4 4.9 1.6 3.2 3.3 6.4 4.9 9.6 1.7 3.1 3.3 6.2 4.9 9.2 1.7 3 3.3 5.9 4.9 8.8 1.5 2.9 3.2 5.6 4.7 8.3 1.5 2.7 3 5.3 4.5 7.8 2.9 5 5.5 9.7 8 13.7s4.4 7.8 6.3 10.7c1.8 2.9 3.1 5.4 4 7 .9 1.7 1.4 2.6 1.4 2.6l-1.1 1.1s-2.7-2.8-7.4-7.8c-2.4-2.4-5.1-5.6-8.3-9.2-1.6-1.8-3.3-3.6-5-5.7-1.7-2.1-3.5-4.3-5.3-6.5-1.9-2.3-3.7-4.7-5.6-7.3-1.9-2.6-3.9-5.1-5.8-7.9-1.9-2.8-3.9-5.6-5.9-8.5-1.9-3-3.9-6-5.8-9.1-2-3.1-3.8-6.4-5.7-9.6-1.9-3.3-3.6-6.7-5.5-10.1-1.8-3.4-3.5-6.9-5.2-10.4-1.7-3.5-3.2-7.1-4.8-10.7-1.4-3.7-2.9-7.3-4.3-11-1.3-3.7-2.7-7.3-3.8-11-.6-1.8-1.2-3.7-1.7-5.5-.5-1.8-1-3.7-1.5-5.5-1.1-3.6-1.9-7.3-2.8-10.9-1.6-7.2-3-14.2-3.9-20.9-1-6.7-1.6-13-1.9-18.9-.4-5.9-.4-11.3-.3-16.1.1-4.8.4-9 .7-12.4.7-6.8 1.5-10.7 1.5-10.7l1.1.3z"/><defs><path id="m" d="M801.8 916.8c11.6-21.4 88.1 16.2 107.8 36.8"/></defs><use xlink:href="#m" overflow="visible" fill="#63554D"/><clipPath id="n"><use xlink:href="#m" overflow="visible"/></clipPath><path opacity=".05" clip-path="url(#n)" d="M958.3 1087.6l-194.9-86.2 28.3 90.3s95.9 36.1 125.6 80.4"/><path fill="#F7EFDA" d="M1017.6 225.5c-9.7 19.4 94.9 97.1 106.2 67.4 46.6-122.2 72.5-280 52.3-292.5-15.8-9.7-118.5 145.1-158.5 225.1z"/><defs><path id="o" d="M779.1 846.9c4.9 2.4 256.3 80.5 344.2 174.7 44.3 47.4 7.1 181.2-18.5 199.3-215.5-103.6-343.6-179.1-420.2-270.8-28.9-45.6 60.1-120.3 94.5-103.2z"/></defs><use xlink:href="#o" overflow="visible" fill="#6C5D53"/><clipPath id="p"><use xlink:href="#o" overflow="visible"/></clipPath><path opacity=".2" clip-path="url(#p)" d="M828.3 864.3c-126.1-11.5-73.9 124.6 28.4 225.6-48.2 54.7-262.3-127.4-262.3-127.4l176.9-167.9 57 69.7z"/><path opacity=".05" clip-path="url(#p)" d="M1127.1 1181l-55.5-113.7s46.9 73.3 73.3 64.5c26.3-8.7 8.7 34.9-17.8 49.2z"/><path fill="#6C5D53" d="M937.4 997.2c10.9-21.7 88.6 13.6 108.8 33.6"/><path d="M819.3 493.9s4.1-4.1 5.5-5.1c1.4-1 3.3-2.5 5.9-4.2 2.6-1.7 5.8-3.7 9.5-5.8 3.7-2.1 8-4.3 12.8-6.5 4.8-2.3 10-4.4 15.6-6.5 5.6-2.1 11.6-4.1 17.9-5.9 3.1-.9 6.4-1.7 9.6-2.5 1.6-.4 3.3-.8 4.9-1.2 1.7-.3 3.3-.7 5-1 3.4-.6 6.8-1.4 10.2-1.9 3.4-.5 6.9-1 10.4-1.5 3.5-.4 6.9-.8 10.4-1.1 3.5-.3 6.9-.4 10.4-.6 3.4-.2 6.8-.4 10.2-.3 3.4 0 6.7 0 10 .2 6.6.1 12.9.8 18.9 1.5 3 .4 5.9.7 8.7 1.1 2.8.5 5.5 1 8.1 1.6 5.2 1.1 9.9 2.2 14 3.4 4.1 1.2 7.7 2.5 10.6 3.6 2.9 1 5.2 2 6.7 2.6 1.5.6 6.4 3.3 6.4 3.3l-4.2-.6s-3.4-.3-9.3-.7c-3-.2-6.5-.5-10.6-.8-4.1-.2-8.8-.2-13.8-.5-2.5-.1-5.2-.2-7.9-.3-2.7 0-5.6.1-8.5.1-5.8.1-11.9.1-18.3.5-6.3.4-12.9.6-19.5 1.4-3.3.3-6.7.6-10 .9-3.4.3-6.7.9-10.1 1.3-3.4.4-6.7.8-10.1 1.3l-9.9 1.5c-6.6.9-13 2.3-19.3 3.4-6.2 1.3-12.2 2.5-17.9 3.9-5.7 1.4-11 2.6-15.9 4-9.8 2.6-17.9 5-23.6 6.8-5.6 1.8-8.8 3-8.8 3l-4 1.6zM1106.6 462.5s2.1-2.8 2.7-3.5c.6-.6 1.4-1.5 2.5-2.5s2.4-2.3 4-3.6c1.6-1.4 3.4-2.8 5.5-4.3 4.1-3 9.1-6.2 14.7-9.1 2.8-1.5 5.7-2.9 8.8-4.2 3-1.4 6.2-2.5 9.4-3.7 3.2-1.1 6.5-2 9.7-2.9 1.6-.5 3.2-.8 4.9-1.1 1.6-.3 3.2-.7 4.8-.9 3.2-.5 6.3-.8 9.2-1.1 3-.1 5.8-.2 8.4-.1 2.6.1 5 .5 7.1.7 2.1.2 3.9.7 5.4 1.1 1.5.4 2.6.8 3.4 1 .8.3 1.2.4 1.2.4v1s-1.6.1-4.5.3c-1.4.1-3.2.1-5.1.5-2 .3-4.2.6-6.6.9-2.4.5-5 1-7.8 1.5-2.7.7-5.6 1.4-8.6 2.1-2.9.9-6 1.7-9.1 2.7-3.1 1-6.2 1.9-9.3 3.1-6.2 2.1-12.4 4.4-18.1 6.7-5.7 2.3-11 4.6-15.5 6.5-4.5 2-8.2 3.7-10.8 4.9-2.6 1.2-4.1 1.9-4.1 1.9l-2.2 1.7z"/><path d="M1209.5 614.9s-.2.5-.7 1.2c-.5.7-1.3 1.5-2.4 2.2-.6.3-1.2.7-2 .9-.7.3-1.6.3-2.4.4-.4 0-.9 0-1.3-.1-.5 0-.9-.1-1.4-.3-.5-.1-.9-.2-1.4-.4l-1.3-.7c-.9-.5-1.6-1.2-2.3-1.8-.6-.7-1.1-1.5-1.6-2.2-.4-.8-.6-1.6-.8-2.3-.2-.7-.2-1.5-.2-2.1 0-.7.1-1.3.3-1.8.1-.5.3-1 .5-1.4.3-.7.6-1.2.6-1.2l.6-.2s.1.3.3.8c.2.5.5 1.3.9 2.1.2.4.4.9.7 1.3.3.4.6.9 1 1.4.4.4.8.9 1.3 1.3.5.3.9.8 1.5 1l.8.5.8.4c.6.3 1.2.4 1.7.5.6.1 1.1.2 1.7.2h1.5c1.9 0 3.1-.4 3.1-.4l.5.7z" opacity=".2"/></g></g><g><defs><path id="q" d="M-1466.2-109.4H-65.1v1198.5h-1401.1z"/></defs><clipPath><use xlink:href="#q" overflow="visible"/></clipPath></g><g><defs><path id="r" d="M1356.8 91.5h1324.9v997.6H1356.8z"/></defs><clipPath><use xlink:href="#r" overflow="visible"/></clipPath></g></svg>