<?xml version="1.0" encoding="utf-8"?>
<!DOCTYPE svg PUBLIC "-//W3C//DTD SVG 1.1//EN" "http://www.w3.org/Graphics/SVG/1.1/DTD/svg11.dtd">
<svg version="1.1" id="Layer_1" xmlns="http://www.w3.org/2000/svg" xmlns:xlink="http://www.w3.org/1999/xlink" x="0px" y="0px"
	 width="825px" height="940px" viewBox="0 0 825 940" enable-background="new 0 0 825 940" xml:space="preserve">
<g id="Legs">
	<g>
		<path fill="#2C7FD2" d="M413.467,633.837c0,13.599,18.414-11.237,25.119-4.532c39.19,39.19,80.677,211.238,67.805,229.474
			c-18.131,25.686-174.514,45.14-141.956-11.594c22.413-39.054,51.488-110.793,0.683-241.301
			c-54.179-139.173,90.496-62.872,90.496-62.872S413.467,620.239,413.467,633.837z"/>
		<path opacity="0.05" d="M413.467,633.837c0,13.599,18.414-11.237,25.119-4.532c39.19,39.19,80.677,211.238,67.805,229.474
			c-18.131,25.686-174.514,45.14-141.956-11.594c22.413-39.054,51.488-110.793,0.683-241.301
			c-54.179-139.173,90.496-62.872,90.496-62.872S413.467,620.239,413.467,633.837z"/>
	</g>
	<path fill="#2C7FD2" d="M471.392,652.225c0,11.725,18.307-6.923,25.281,0.052c40.767,40.767,83.924,219.739,70.533,238.709
		c-18.861,26.72-181.538,46.956-147.669-12.06c23.315-40.626,53.561-115.252,0.71-251.012
		c-56.359-144.774,81.142-31.651,81.142-31.651S471.392,638.079,471.392,652.225z"/>
	<g>
		<path fill="#2C7FD2" d="M244.246,561.362c-6.942-6.128-36.71-19.94-75.286-35.624c0,0,23.905-99.513,21.915-127.841
			c13.759-66.973-125.338-88.732-118.736-7.303c16.512,40.446,16.136,96.867,16.701,104.272c0.171,7.632-0.411,22.359-1.037,37.11
			c-0.97,22.853,14.868,42.884,36.898,46.582c10.694,1.794,21.378,3.675,29.021,5.211c30.754,6.181,51.308,11.642,51.308,11.642
			s21.807,4.446,30.765,0.999C251.775,590.26,257.561,573.115,244.246,561.362z"/>
		<g>
			<defs>
				<path id="SVGID_1_" d="M244.246,561.362c-6.942-6.128-36.71-19.94-75.286-35.624c0,0,23.905-99.513,21.915-127.841
					c13.759-66.973-125.338-88.732-118.736-7.303c16.512,40.446,16.136,96.867,16.701,104.272c0.171,7.632-0.411,22.359-1.037,37.11
					c-0.97,22.853,14.868,42.884,36.898,46.582c10.694,1.794,21.378,3.675,29.021,5.211c30.754,6.181,51.308,11.642,51.308,11.642
					s21.807,4.446,30.765,0.999C251.775,590.26,257.561,573.115,244.246,561.362z"/>
			</defs>
			<clipPath id="SVGID_2_">
				<use xlink:href="#SVGID_1_"  overflow="visible"/>
			</clipPath>
			<path opacity="0.08" clip-path="url(#SVGID_2_)" d="M181.766,534.224c0,0-7.737,63.97,41.845,80.941
				c49.582,16.971-4.971-81.008-4.971-81.008L181.766,534.224z"/>
			<path opacity="0.05" clip-path="url(#SVGID_2_)" d="M244.246,561.362c-6.942-6.128-36.71-19.94-75.286-35.624
				c0,0,23.905-99.513,21.915-127.841c13.759-66.973-125.338-88.732-118.736-7.303c16.512,40.446,16.136,96.867,16.701,104.272
				c0.171,7.632-0.411,22.359-1.037,37.11c-0.97,22.853,14.868,42.884,36.898,46.582c10.694,1.794,21.378,3.675,29.021,5.211
				c30.754,6.181,51.308,11.642,51.308,11.642s21.807,4.446,30.765,0.999C251.775,590.26,257.561,573.115,244.246,561.362z"/>
		</g>
		<g>
			<defs>

					<ellipse id="SVGID_3_" transform="matrix(0.9438 0.3305 -0.3305 0.9438 130.4533 -35.4105)" cx="169.361" cy="365.928" rx="60.333" ry="24.167"/>
			</defs>
			<clipPath id="SVGID_4_">
				<use xlink:href="#SVGID_3_"  overflow="visible"/>
			</clipPath>
			<path opacity="0.05" clip-path="url(#SVGID_4_)" d="M244.246,561.362c-6.942-6.128-36.71-19.94-75.286-35.624
				c0,0,23.905-99.513,21.915-127.841c13.759-66.973-125.338-88.732-118.736-7.303c16.512,40.446,16.136,96.867,16.701,104.272
				c0.171,7.632-0.411,22.359-1.037,37.11c-0.97,22.853,14.868,42.884,36.898,46.582c10.694,1.794,21.378,3.675,29.021,5.211
				c30.754,6.181,51.308,11.642,51.308,11.642s21.807,4.446,30.765,0.999C251.775,590.26,257.561,573.115,244.246,561.362z"/>
		</g>
	</g>
	<path fill="#2C7FD2" d="M264.567,603.029c0,0,12.359,209.032-42.717,298.24c-30.598,49.561,132.502,37.721,138.803,8.252
		c12.255-57.315-33.216-315.137-48.933-341.071c-10.072-16.618-30.588-14.052-41.16,1.654
		C264.633,578.909,264.567,603.029,264.567,603.029z"/>
</g>
<g id="Tail_Bottom_1_">
	<g id="Tail_Ribbon_B">
		<path fill="#FFD618" d="M634.414,827.422c0,0,5.379,75.585-54.449,83.757c-4.144-2.005-7.837-10.028-9.065-12.951
			c39.16-5.61,53.495-38.226,53.127-68.471"/>
		<g>
			<defs>
				<path id="SVGID_5_" d="M634.414,827.422c0,0,5.379,75.585-54.449,83.757c-4.144-2.005-7.837-10.028-9.065-12.951
					c39.16-5.61,53.495-38.226,53.127-68.471"/>
			</defs>
			<clipPath id="SVGID_6_">
				<use xlink:href="#SVGID_5_"  overflow="visible"/>
			</clipPath>
			<path opacity="0.1" clip-path="url(#SVGID_6_)" d="M582.674,888.528c0,0,31.053-1.523,27.777,9.238l23.525-20.738l-16.802-28.5
				L582.674,888.528z"/>
		</g>
		<path fill="#FFD618" d="M640.482,840.504c0,0-34.745,59.897-1.667,88.333c4.603,0.022,12.945-4.582,15.333-6.667
			c-17-14.333-19-48-5.365-75"/>
		<path opacity="0.1" d="M640.482,840.504c0,0-34.745,59.897-1.667,88.333c4.603,0.022,12.945-4.582,15.333-6.667
			c-17-14.333-19-48-5.365-75"/>
		<path fill="#FFD618" d="M634.247,789.862c0,0-8.572,11.333-4.572,19c4,7.667,9.667-2.667,9.667-2.667L634.247,789.862z"/>
		<path opacity="0.1" d="M634.247,789.862c0,0-8.572,11.333-4.572,19c4,7.667,9.667-2.667,9.667-2.667L634.247,789.862z"/>
	</g>
	<g id="Tail_Bottom">
		<path fill="#E4F4F1" d="M740.951,811.498c8.43-0.297,12.936,17.739,7.352,28.723c-9.09,17.879,2.484,42.659,33.931,46.524
			c-42.133,42.743-129.772,33.52-140.637-2.976l1.736,17.958c-22.117-15.384-29.105-32.317-28.696-45.045l-6.799,16.28
			c-13.987-41.115,22.662-87.902,58.869-73.19L740.951,811.498z"/>
		<g>
			<defs>
				<path id="SVGID_7_" d="M740.951,811.498c8.43-0.297,12.936,17.739,7.352,28.723c-9.09,17.879,2.484,42.659,33.931,46.524
					c-42.133,42.743-129.772,33.52-140.637-2.976l1.736,17.958c-22.117-15.384-29.105-32.317-28.696-45.045l-6.799,16.28
					c-13.987-41.115,22.662-87.902,58.869-73.19L740.951,811.498z"/>
			</defs>
			<clipPath id="SVGID_8_">
				<use xlink:href="#SVGID_7_"  overflow="visible"/>
			</clipPath>
			<path clip-path="url(#SVGID_8_)" fill="#9EC5EB" d="M666.174,832.374c0,0,15.5,84.938,125,52.296l-78,70.358l-149-98.952
				l64.437-63.214L666.174,832.374z"/>
			<path clip-path="url(#SVGID_8_)" fill="#9EC5EB" d="M700.674,840.504c2.285,9.161,11.154,21.767,24.559,29.341
				c17.4,9.473,30.693,10.523,41.368,12.683c-7.689,0.49-13.289,0-19.712-0.984C718.825,877.775,700.4,855.685,700.674,840.504z"/>
			<path opacity="0.1" clip-path="url(#SVGID_8_)" d="M751.174,852.528c0,0-85-21.5-79,29s101.929,12.411,101.929,12.411
				l-18.429,65.089l-245.5-89.728l78.8-91.489l193.259,22.966L751.174,852.528z"/>
		</g>
	</g>
	<g id="Tail_Ribbon_A">
		<path fill="#FFD618" d="M641.674,792.862c-2.21,1.657-8.253,2.461-7.333,15.333c0.667,9.333,23.262,24.978,54.054,30
			c28.612,4.667,51.326,3.611,52.612-16"/>
		<g>
			<defs>
				<path id="SVGID_9_" d="M641.674,792.862c-2.21,1.657-8.253,2.461-7.333,15.333c0.667,9.333,23.262,24.978,54.054,30
					c28.612,4.667,51.326,3.611,52.612-16"/>
			</defs>
			<clipPath id="SVGID_10_">
				<use xlink:href="#SVGID_9_"  overflow="visible"/>
			</clipPath>
			<path opacity="0.1" clip-path="url(#SVGID_10_)" d="M714.674,816.683c0,0-36.847,10.497-18,28.346l-98.5-33.336l26.359-44.164
				L714.674,816.683z"/>
		</g>
	</g>
</g>
<g id="Tail_2_">
	<path fill="#E4F4F1" d="M496.436,443.705c20.738-45.491,76.353-80.907,129.405-83.741c177.833-9.5,248.535,484.7,89.329,468.284
		c-225.807-23.284-39.12-333.256-98.536-380.117c-29.959-23.629-51.368-12.974-102.595,19.74"/>
	<g>
		<defs>
			<path id="SVGID_11_" d="M496.436,443.705c20.738-45.491,76.353-80.907,129.405-83.741c177.833-9.5,248.535,484.7,89.329,468.284
				c-225.807-23.284-39.12-333.256-98.536-380.117c-29.959-23.629-51.368-12.974-102.595,19.74"/>
		</defs>
		<clipPath id="SVGID_12_">
			<use xlink:href="#SVGID_11_"  overflow="visible"/>
		</clipPath>
		<path clip-path="url(#SVGID_12_)" fill="#9EC5EB" d="M503.841,462.714c29.333-45.75,92.997-83.595,134.833-51.998
			c95,71.748,100.5,274.248,16.5,426.248l-84.307-75.333L503.841,462.714z"/>
		<path clip-path="url(#SVGID_12_)" fill="#9EC5EB" d="M499.174,448.298c44.896-69.284,114.509-96.89,179.387-45.613
			c25.394,22.109,41.396,39.753,58.359,71.555c55.064,109.299,26.993,240.233-17.079,354.409
			c26.474-80.58,46.982-164.184,39.512-248.892c-2.383-36.434-15.837-83.73-36.028-115.594
			c-35.407-54.744-82.94-96.979-144.828-78.428C544.797,395.637,519.485,420.182,499.174,448.298z"/>
	</g>
	<g>
		<defs>
			<path id="SVGID_13_" d="M496.436,443.705c20.738-45.491,76.353-80.907,129.405-83.741c177.833-9.5,248.535,484.7,89.329,468.284
				c-225.807-23.284-39.12-333.256-98.536-380.117c-29.959-23.629-51.368-12.974-102.595,19.74"/>
		</defs>
		<clipPath id="SVGID_14_">
			<use xlink:href="#SVGID_13_"  overflow="visible"/>
		</clipPath>
		<path opacity="0.1" clip-path="url(#SVGID_14_)" d="M508.924,455.715c0,0,53.625-76.5,111.583-44.289
			c72.541,40.316-13.438,211.413-13.438,211.413"/>
		<path opacity="0.1" clip-path="url(#SVGID_14_)" d="M591.174,684.965c0,0,124.344,170.455,204.172,68.561l13.828,10.772
			l-75.333,127.333l-130.667-83.333L591.174,684.965z"/>
	</g>
</g>
<g id="Legs_1_">
	<g>
		<path fill="#2C7FD2" d="M245.42,561.125c-6.942-6.128-36.71-19.94-75.286-35.623c0,0,23.905-99.513,21.915-127.841
			c13.759-66.973-125.338-88.732-118.736-7.303c16.512,40.446,16.136,96.867,16.701,104.272c0.171,7.632-0.411,22.358-1.037,37.11
			c-0.97,22.853,14.868,42.884,36.898,46.582c10.694,1.795,21.378,3.675,29.021,5.211c30.754,6.181,51.308,11.642,51.308,11.642
			s21.807,4.446,30.765,0.999C252.949,590.023,258.736,572.878,245.42,561.125z"/>
		<g>
			<defs>
				<path id="SVGID_15_" d="M245.42,561.125c-6.942-6.128-36.71-19.94-75.286-35.623c0,0,23.905-99.513,21.915-127.841
					c13.759-66.973-125.338-88.732-118.736-7.303c16.512,40.446,16.136,96.867,16.701,104.272c0.171,7.632-0.411,22.358-1.037,37.11
					c-0.97,22.853,14.868,42.884,36.898,46.582c10.694,1.795,21.378,3.675,29.021,5.211c30.754,6.181,51.308,11.642,51.308,11.642
					s21.807,4.446,30.765,0.999C252.949,590.023,258.736,572.878,245.42,561.125z"/>
			</defs>
			<clipPath id="SVGID_16_">
				<use xlink:href="#SVGID_15_"  overflow="visible"/>
			</clipPath>
			<path opacity="0.08" clip-path="url(#SVGID_16_)" d="M182.94,533.987c0,0-7.737,63.97,41.845,80.941
				c49.582,16.971-4.971-81.008-4.971-81.008L182.94,533.987z"/>
			<path opacity="0.05" clip-path="url(#SVGID_16_)" d="M245.42,561.125c-6.942-6.128-36.71-19.94-75.286-35.623
				c0,0,23.905-99.513,21.915-127.841c13.759-66.973-125.338-88.732-118.736-7.303c16.512,40.446,16.136,96.867,16.701,104.272
				c0.171,7.632-0.411,22.358-1.037,37.11c-0.97,22.853,14.868,42.884,36.898,46.582c10.694,1.795,21.378,3.675,29.021,5.211
				c30.754,6.181,51.308,11.642,51.308,11.642s21.807,4.446,30.765,0.999C252.949,590.023,258.736,572.878,245.42,561.125z"/>
		</g>
		<g>
			<defs>

					<ellipse id="SVGID_17_" transform="matrix(0.9438 0.3305 -0.3305 0.9438 130.441 -35.8119)" cx="170.535" cy="365.691" rx="60.333" ry="24.167"/>
			</defs>
			<clipPath id="SVGID_18_">
				<use xlink:href="#SVGID_17_"  overflow="visible"/>
			</clipPath>
			<path opacity="0.05" clip-path="url(#SVGID_18_)" d="M245.42,561.125c-6.942-6.128-36.71-19.94-75.286-35.623
				c0,0,23.905-99.513,21.915-127.841c13.759-66.973-125.338-88.732-118.736-7.303c16.512,40.446,16.136,96.867,16.701,104.272
				c0.171,7.632-0.411,22.358-1.037,37.11c-0.97,22.853,14.868,42.884,36.898,46.582c10.694,1.795,21.378,3.675,29.021,5.211
				c30.754,6.181,51.308,11.642,51.308,11.642s21.807,4.446,30.765,0.999C252.949,590.023,258.736,572.878,245.42,561.125z"/>
		</g>
	</g>
</g>
<g id="Mane_-_Bottom_1_">
	<path id="Hair_-_Bottom_1_" fill="#E4F4F1" d="M344.508,316.966l-156.863,65.346c1.033,9.328-6.721,21.308-15.721,33.903
		c14.76-2.569,26.5-8,30.195-13.054c3.984,12.158,0.178,21.912,0,31.758c24.771-12.249,33.151-22.501,36.849-31.758l88.849-11.478
		c9.275,3.92,32.988,12.433,38.857,28.782c23.537-17.538,28.25-45.5,22-62.777c9.439,4.744,19,18.777,22.5,32.027
		c17.25-28.5,15.25-51,9.25-76.294c7.793,5.645,17.261,14.617,27.083,33.029c12.927-24.526,12.413-87.012-9.18-151.872
		L344.508,316.966z"/>
	<g>
		<defs>
			<path id="SVGID_19_" d="M344.508,316.966l-156.863,65.346c1.033,9.328-6.721,21.308-15.721,33.903
				c14.76-2.569,26.5-8,30.195-13.054c3.984,12.158,0.178,21.912,0,31.758c24.771-12.249,33.151-22.501,36.849-31.758l88.849-11.478
				c9.275,3.92,32.988,12.433,38.857,28.782c23.537-17.538,28.25-45.5,22-62.777c9.439,4.744,19,18.777,22.5,32.027
				c17.25-28.5,15.25-51,9.25-76.294c7.793,5.645,17.261,14.617,27.083,33.029c12.927-24.526,12.413-87.012-9.18-151.872
				L344.508,316.966z"/>
		</defs>
		<clipPath id="SVGID_20_">
			<use xlink:href="#SVGID_19_"  overflow="visible"/>
		</clipPath>
		<path clip-path="url(#SVGID_20_)" fill="#9EC5EB" d="M392.792,278.58c15.53,36.168,26.382,75.49,18.382,111.135l-83.357,68.451
			L392.792,278.58z"/>
		<path clip-path="url(#SVGID_20_)" fill="#9EC5EB" d="M417.674,241.465c10.076,14.934,28.228,57.112,19.706,88.862
			C438.764,300.464,428.706,271.412,417.674,241.465z"/>
		<path opacity="0.1" clip-path="url(#SVGID_20_)" d="M407.53,282.416c0,0,17.359,111.507-63.165,173.028s-176.524,0-176.524,0
			s54-42.268,48-101.374L407.53,282.416z"/>
	</g>
</g>
<g id="Body_2_">
	<path id="Body_3_" fill="#2C7FD2" d="M366.105,646.715c-202.427-0.674-180.196-146.621-153.911-203.711
		c1.104-2.398,2.216-4.64,3.318-6.707c29.303-54.965,20.526-70.729,20.526-70.729l156.35-94.317c0,0,7.475,36.158-41.312,140.29
		c-28.995,61.888,33.668,61.844,82.517,34.775c92.537-51.278,114.935,85.464,68.961,149.71
		C502.553,596.025,474.851,647.076,366.105,646.715z"/>
	<path opacity="0.08" d="M235.139,397.603c0,0,27.174,0.54,53.644-5.846c0,0-13.529,20.005-60.74,22.806
		C234.717,398.882,235.139,397.603,235.139,397.603z"/>
</g>
<g id="head_2_">
	<defs>
		<path id="SVGID_21_" d="M356.694,387.23c0,0,107.181-282.78-99.937-287.863C92.704,95.34,105.916,255.442,139.519,304.677
			c0,0-19.609-4.99-16.845,8.684c14.459,71.543,92.106,95.038,154.901,80.967c25.066-5.617,49.57-11.687,65.404-22.19
			S356.694,387.23,356.694,387.23z"/>
	</defs>
	<use xlink:href="#SVGID_21_"  overflow="visible" fill="#2C7FD2"/>
	<clipPath id="SVGID_22_">
		<use xlink:href="#SVGID_21_"  overflow="visible"/>
	</clipPath>
	<g opacity="0.4" clip-path="url(#SVGID_22_)">
		<path fill="#164069" d="M135.836,317.299c0,0,0.29,0.517,0.96,1.076c0.157,0.15,0.358,0.271,0.559,0.411
			c0.22,0.11,0.441,0.246,0.7,0.318c0.246,0.107,0.524,0.129,0.796,0.183c0.278-0.004,0.564,0.037,0.844-0.022
			c0.282-0.038,0.567-0.064,0.835-0.165c0.273-0.076,0.541-0.158,0.783-0.287c0.243-0.124,0.497-0.205,0.703-0.353
			c0.214-0.134,0.416-0.26,0.602-0.376c0.191-0.11,0.344-0.246,0.491-0.348c0.145-0.107,0.271-0.201,0.375-0.278
			c0.208-0.154,0.327-0.242,0.327-0.242l0.133,0.15c0,0-0.02,0.2-0.105,0.519c-0.046,0.156-0.098,0.354-0.187,0.552
			c-0.086,0.204-0.169,0.451-0.332,0.657c-0.146,0.224-0.316,0.466-0.525,0.687c-0.188,0.242-0.463,0.451-0.741,0.655
			c-0.27,0.214-0.606,0.388-0.973,0.522c-0.345,0.168-0.762,0.232-1.175,0.296c-0.407,0.06-0.863,0.01-1.276-0.044
			c-0.421-0.104-0.832-0.216-1.181-0.432c-0.368-0.173-0.644-0.456-0.903-0.692c-0.24-0.255-0.436-0.521-0.563-0.791
			c-0.152-0.248-0.225-0.516-0.286-0.741c-0.061-0.226-0.078-0.436-0.084-0.607c-0.014-0.164,0.013-0.316,0.022-0.409
			c0.011-0.094,0.024-0.14,0.024-0.14L135.836,317.299z"/>
	</g>
	<path opacity="0.1" clip-path="url(#SVGID_22_)" fill="#FFFFFF" d="M133.346,194.964c-5.345,39.44-3.404,59.06,19.939,112.727
		c-7.957-2.456-13.766-3.014-13.766-3.014s-52.569-74.503-42.844-90.712S133.346,194.964,133.346,194.964z"/>
	<g opacity="0.08" clip-path="url(#SVGID_22_)">
		<path d="M122.841,177.965c-1.175-2.179-2.858,8.327-3.963,20.348c7.855-2.661,14.468-3.349,14.468-3.349
			c-1.416,10.447-2.312,19.5-2.443,28.167l23.605-9.166c-6.469,5.014-6.333,13.667-6.667,26.205
			c36.667-28.538,157-22.205,181.506-77.962C329.347,162.207,269.305,188.938,122.841,177.965z"/>
	</g>
</g>
<path id="Hair_-_Top_3_" fill="#9EC5EB" d="M378.09,86.378c0,0-91.166-105.164-204.919-69.414
	c15.724,4.023,45.004,12.833,56.598,33.369c-9.928-12.869-80.251-46.246-173.311,34.631c0,0,24.437-6.074,39.65-1.829
	c-51,38.725-11.433,74.329-74.933,132.398c66,3.431,97.9-6.122,127-32.169c-4.183,12.919-4.477,21.69-3.719,39.626
	c50.968-34.831,147.219-5.027,190.618-69.245"/>
<path id="Hair_-_Top_2_" fill="none" d="M378.09,86.378c0,0-91.166-105.164-204.919-69.414
	c15.724,4.023,45.004,12.833,56.598,33.369c-9.928-12.869-80.251-46.246-173.311,34.631c0,0,24.437-6.074,39.65-1.829
	c-51,38.725-11.433,74.329-74.933,132.398c66,3.431,97.9-6.122,127-32.169c-4.183,12.919-4.477,21.69-3.719,39.626
	c50.968-34.831,147.219-5.027,190.618-69.245"/>
<g>
	<path fill="#E4F4F1" d="M372.762,94.722l5.328-8.344c0,0-18.389-21.202-48.942-41.33c-11.483-4.933-23.234-8.522-31.633-10.228
		c-28.663-5.807-57.51-6.141-86.191-2.744c7.505,4.728,14.175,10.695,18.444,18.257c-3.709-4.808-15.85-12.476-34.455-15.982
		c-41.344,6.834-82.207,20.793-121.537,36.647c-5.677,4.224-11.453,8.867-17.32,13.965c0,0,24.437-6.074,39.65-1.829
		c-25.534,19.388-28.366,37.995-32.797,59.029C157.509,82.561,271.081,10.376,372.762,94.722z"/>
	<polygon fill="#9EC5EB" points="195.423,205.511 195.423,205.511 195.423,205.511 	"/>
	<path fill="#E4F4F1" d="M81.345,65.578c32.947-14.632,62.834-24.674,101.928-32.778C157.267,30.907,122.074,37.472,81.345,65.578z"
		/>
	<path fill="#E4F4F1" d="M281.293,28.728c11.836,2.081,25.591,5.578,38.657,10.535c-37.132-22.283-89.041-40.444-146.78-22.299
		c8.54,2.185,21.075,5.788,32.607,11.908C228.069,25.967,257.219,24.829,281.293,28.728z"/>
	<path fill="#E4F4F1" d="M305.998,148.261c-47.584,6.021-76.61,24.834-110.574,57.251c49.487-8.041,108.33-5.42,139.65-51.764
		l3.591-5.624C330.988,147.227,319.859,146.934,305.998,148.261z"/>
	<path fill="#E4F4F1" d="M149.493,219.839c13.243-7.598,29.042-11.584,45.93-14.328c42.881-51.638,98.673-68.117,143.57-57.903
		l7.974-12.488C286.451,108.716,198.716,137.929,149.493,219.839z"/>
</g>
<g id="ear_3_">
	<defs>
		<path id="SVGID_23_" d="M384.086,316.966c0,0,101.482-118.718,35.153-239.867c-22.164-40.481-92.403,27.207-91.411,113.959
			C328.844,279.927,384.086,316.966,384.086,316.966z"/>
	</defs>
	<use xlink:href="#SVGID_23_"  overflow="visible" fill="#2C7FD2"/>
	<clipPath id="SVGID_24_">
		<use xlink:href="#SVGID_23_"  overflow="visible"/>
	</clipPath>
	<path opacity="0.1" clip-path="url(#SVGID_24_)" fill="#FFFFFF" d="M327.817,180.09c0,0,36.833-133.796,94.473-97.186
		c10.895,6.92,23.404-17.83,23.404-17.83l-63.275-31.746l-68.163,33.794l-32.417,76.82L327.817,180.09z"/>
	<path opacity="0.08" clip-path="url(#SVGID_24_)" d="M403.136,112.162c0,0,0.382,0.377,1.016,1.134
		c0.608,0.768,1.557,1.883,2.56,3.417c1.011,1.527,2.239,3.41,3.428,5.676c1.186,2.265,2.447,4.879,3.587,7.821
		c0.601,1.465,1.105,3.023,1.672,4.635c0.512,1.622,1.026,3.311,1.48,5.064c0.937,3.504,1.669,7.262,2.227,11.183
		c0.263,1.96,0.506,3.963,0.635,5.994c0.075,1.017,0.15,2.04,0.226,3.068c0.024,1.029,0.048,2.064,0.073,3.102
		c0.072,2.08,0.017,4.172-0.05,6.274c-0.092,2.099-0.256,4.201-0.404,6.305c-0.266,2.09-0.486,4.187-0.795,6.259
		c-0.158,1.036-0.337,2.066-0.526,3.091c-0.186,1.025-0.356,2.051-0.591,3.058c-0.831,4.052-1.903,7.976-3.088,11.713
		c-0.639,1.856-1.229,3.687-1.889,5.452c-0.715,1.746-1.374,3.461-2.087,5.104c-0.688,1.651-1.466,3.211-2.196,4.724
		c-0.749,1.506-1.439,2.968-2.229,4.316c-0.777,1.354-1.483,2.661-2.219,3.873c-0.717,1.22-1.499,2.328-2.176,3.39
		c-1.352,2.125-2.636,3.914-3.762,5.344c-1.079,1.453-2.035,2.532-2.637,3.289c-0.621,0.748-0.974,1.133-0.974,1.133l-0.715-0.359
		c0,0,0.845-1.819,2.323-5.003c0.768-1.578,1.573-3.551,2.521-5.802c0.983-2.237,1.939-4.821,3.025-7.622
		c0.564-1.393,1.063-2.876,1.588-4.408c0.508-1.537,1.114-3.1,1.59-4.754c0.499-1.647,1.011-3.338,1.534-5.067
		c0.459-1.747,0.927-3.531,1.404-5.346c0.464-1.818,0.838-3.689,1.27-5.57c0.429-1.882,0.724-3.815,1.098-5.748
		c0.361-1.935,0.592-3.908,0.897-5.876c0.267-1.973,0.445-3.965,0.673-5.951c0.154-1.992,0.347-3.983,0.46-5.97
		c0.071-1.989,0.223-3.969,0.21-5.937c0.01-0.984,0.02-1.964,0.029-2.939c-0.021-0.975-0.043-1.945-0.064-2.909
		c-0.018-1.929-0.167-3.829-0.266-5.701c-0.286-3.736-0.659-7.344-1.213-10.735c-0.512-3.398-1.17-6.582-1.868-9.497
		c-0.688-2.919-1.459-5.558-2.168-7.888c-0.726-2.326-1.459-4.32-2.089-5.951c-1.285-3.258-2.223-5.005-2.223-5.005L403.136,112.162
		z"/>
</g>
<g id="Mouth_4_">
	<path id="Mouth_9_" fill="#164069" d="M171.311,352.965c3.385,1.333,9.756,4.379,15.473,4.749
		c9.993,0.551,13.923-6.031,18.39-11.264C201.988,364.029,182.219,366.673,171.311,352.965z"/>
	<path id="Mouth_8_" fill="#FFFFFF" d="M171.311,352.965c3.385,1.333,29.397-1.282,33.863-6.515
		C201.988,364.029,182.219,366.673,171.311,352.965z"/>
	<g display="none">
		<defs>
			<path id="Mouth_7_" d="M171.311,352.965c3.385,1.333,29.397-1.282,33.863-6.515C201.988,364.029,182.219,366.673,171.311,352.965
				z"/>
		</defs>
		<defs>
			<path id="SVGID_25_" d="M187.482,359.765c-2.275-0.201-6.266-0.693-8.451-1.676c-7.994,1.748-10.732,3.602-12.857,9.251
				c-2.643,7.027,14.625,12.75,15.569,3.094C182.169,366.09,183.805,362.386,187.482,359.765z"/>
		</defs>
		<clipPath id="Mouth_1_" display="inline">
			<use xlink:href="#Mouth_7_"  overflow="visible"/>
		</clipPath>
		<clipPath id="SVGID_26_" display="inline" clip-path="url(#Mouth_1_)">
			<use xlink:href="#SVGID_25_"  display="none" overflow="visible"/>
		</clipPath>
		<path display="inline" opacity="0.15" clip-path="url(#SVGID_26_)" d="M206.674,348.298c-8.882,5.083-14.333,7.833-34.75,7.833
			l-6.583-10.682l41.333-4.985V348.298z"/>
	</g>
	<path display="none" fill="#F97AFF" d="M186.158,355.47c-2.656,0.305-5.699,0.505-9.266,0.599
		c-6.601,3.412-8.658,5.922-9.304,11.665c-0.839,7.461,17.305,8.774,15.853-0.819C182.807,362.724,183.446,358.843,186.158,355.47z"
		/>
</g>
<g id="Scarf_1_">
	<path id="Alt_1_" display="none" fill="#FFD618" d="M356.299,439.152c4.125-1.625,1.486-13.857-1.125-14.649
		c-3.625-1.101-8.982-0.488-8.977-0.503c-0.001,0.004-0.002,0.007-0.003,0.011l-0.001,0.004c-0.946,3.086-1.598,5.964-1.997,8.656
		c-7.681,12.343-32.943,33.476-82.798,40.308c-3.991-5.947-13.068-8.655-31.739-2.508c0,0-4.308,1.092-5.542,4.245
		c-14.762-0.74-21.542-3.799-20.297-9.495l0,0c0.09-0.412,0.222-0.838,0.396-1.278c1.578-5.048,3.287-9.793,5.054-14.159
		c-5.968,0.91-12.095,0.764-18.012,5.181c-4.583,4.019-3.222,10.87,0,17.583c-7.44,0.626-9.016,6.053-8.333,11.583
		c0.873,7.067-2.383,11.449,13.352,18.457c0-0.001,0-0.002,0-0.003c3.204,1.427,6.998,2.75,11.498,3.925
		c5.691,1.487,11.551,2.437,17.444,2.867l-2.761,113.527c-0.492,20.245,3.734,40.36,12.409,59.061l2.698-6.153
		c2.163-4.934,3.976-9.973,5.434-15.087c1.175,3.112,2.456,6.196,3.868,9.24l2.698-6.153c6.903-15.743,10.244-32.558,9.828-49.467
		l-2.615-106.356c1.181-0.125,2.137-0.243,2.748-0.349c59.276-10.241,83.368-26.691,97.362-47.48c0,0,0.001,0,0.001,0.001
		C361.674,454.527,362.836,440.514,356.299,439.152z"/>
	<g id="One_1_">
		<g>
			<polyline fill="#FFD618" points="232.508,472.965 242.174,590.965 234.508,608.631 224.841,469.631 			"/>
			<polyline opacity="0.1" points="232.508,472.965 242.174,590.965 234.508,608.631 224.841,469.631 			"/>
		</g>
		<path fill="#FFD618" d="M343.712,439.039c-104.463,36.741-129.769,0.31-129.769,0.31c-14.574-2.034-12.111,28.931-10.328,26.551
			c1.582,1.179,3.41,2.264,5.446,3.262c-4.533,56.985-3.851,105.581,0.114,155.802c3.403,12.135,6.311,18.213,10.808,27.099
			c0.403,0.796,1.239,1.276,2.129,1.224c0.89-0.052,1.664-0.629,1.97-1.466c3.766-10.299,6.523-18.384,14.593-31.357
			c-6.673-37.647-8.39-87.652-10.437-145.497c32.624,5.839,84.203,0.538,124.89-16.933
			C355.467,457.03,348.3,437.426,343.712,439.039z"/>
		<g>
			<defs>
				<path id="SVGID_27_" d="M343.712,439.039c-104.463,36.741-129.769,0.31-129.769,0.31c-14.574-2.034-12.111,28.931-10.328,26.551
					c1.582,1.179,3.41,2.264,5.446,3.262c-4.533,56.985-3.851,105.581,0.114,155.802c3.403,12.135,6.311,18.213,10.808,27.099
					c0.403,0.796,1.239,1.276,2.129,1.224c0.89-0.052,1.664-0.629,1.97-1.466c3.766-10.299,6.523-18.384,14.593-31.357
					c-6.673-37.647-8.39-87.652-10.437-145.497c32.624,5.839,84.203,0.538,124.89-16.933
					C355.467,457.03,348.3,437.426,343.712,439.039z"/>
			</defs>
			<clipPath id="SVGID_28_">
				<use xlink:href="#SVGID_27_"  overflow="visible"/>
			</clipPath>
			<path opacity="0.1" clip-path="url(#SVGID_28_)" d="M205.507,443.631c2.667,18.667,51.501,26,113.001,24.026
				c-43.833,12.141-95.896,26.433-123.085,0.87C195.423,468.527,204.437,436.141,205.507,443.631z"/>
		</g>
		<path fill="#FFD618" d="M235.19,473.659l3.317-14.76c0.451-2.007-0.644-4.298-2.745-5.916c-1.066-3.825-4.327-7.399-8.707-9.464
			c-3.812-1.797-8.016-2.262-11.497-1.272c-3.481,0.99-5.886,3.335-6.578,6.413l-3.316,14.76c-0.451,2.007,0.644,4.298,2.745,5.916
			c1.066,3.825,4.327,7.399,8.707,9.464c3.812,1.797,8.016,2.262,11.497,1.272C232.093,479.082,234.499,476.737,235.19,473.659z"/>
		<path opacity="0.1" d="M209.916,469.571c-2.494-5.483,1.91-20.854,2.659-16.251c2.096,12.887,12.849,10.562,10.597,12.674
			C217.039,471.747,213.012,476.378,209.916,469.571z"/>
	</g>
</g>
<g id="Eye_-_Left_1_">
	<g>
		<path fill="#FFFFFF" d="M271.297,215.116c-22.521,0.661-33.601,12.357-47.617,36.22c-13.863,69.283,69.908,82.34,93.282,30.445
			c0.469-1.672,4.462-14.176,4.476-20.761C309.861,233.919,294.766,217.324,271.297,215.116z"/>
	</g>
	<g>
		<defs>
			<path id="SVGID_29_" d="M271.297,215.116c-22.521,0.661-33.601,12.357-47.617,36.22c-13.863,69.283,69.908,82.34,93.282,30.445
				c0.469-1.672,4.462-14.176,4.476-20.761C309.861,233.919,294.766,217.324,271.297,215.116z"/>
		</defs>
		<clipPath id="SVGID_30_">
			<use xlink:href="#SVGID_29_"  overflow="visible"/>
		</clipPath>
		<g clip-path="url(#SVGID_30_)">
			<ellipse fill="#FFD618" cx="280.771" cy="269.315" rx="29.837" ry="48.417"/>
			<ellipse opacity="0.6" cx="280.771" cy="271.666" rx="21.125" ry="34.988"/>
			<polygon fill="#FFFFFF" points="284.022,250.944 299.189,240.167 314.356,250.944 314.356,272.499 299.189,283.277
				284.022,272.499 			"/>
		</g>
		<path opacity="0.1" clip-path="url(#SVGID_30_)" d="M222.142,247.752c0,0,55.177-52.1,97.588,24.045
			C354.465,198.362,229.89,158.47,222.142,247.752z"/>
	</g>
	<path fill="#272628" d="M323.017,252.661L323.017,252.661c-0.234-0.706-0.466-1.415-0.713-2.116
		c5.47,0.963,9.797-0.701,17.941-3.725c-11.659,0.887-15.917,1.026-21.147-4.387c-0.196-0.438-0.395-0.873-0.598-1.305
		c4.659,0.228,9.633-1.757,15.643-3.988c-8.939,0.68-14.064,1.172-18.939-2.384c-7.478-13.238-20.563-25.573-33.25-28.609
		c-26.623-6.732-48.958,13.018-58.273,45.189c14.016-23.864,25.096-35.56,47.617-36.22c23.469,2.207,38.565,18.803,50.142,45.904
		c-0.015,6.585-4.007,19.089-4.476,20.761c3.063-5.304,7.649-14.763,8.141-21.134c6.436,1.805,12.52-0.889,19.261-3.391
		C332.62,258.15,328.444,258.284,323.017,252.661z"/>
</g>
<path id="Eye_-_Right_1_" fill="#272628" d="M177.993,275.874c-0.525-4.114-4.226-10.066-7.336-12.63
	c-4.087-3.534-8.27-5.303-13.481-4.941c4.467,2.009,10.76,4.326,18.768,15.114c0.013,0.018,0.027,0.031,0.04,0.049
	c-8.19-8.304-22.712-6.815-33.318,1.041c-4.727-0.622-9.239-4.863-12.07-7.412c2.105,3.241,4.276,6.586,7.284,8.989
	c-4.156-0.086-9.029-2.886-12.052-4.576c2.641,2.572,5.905,5.737,9.245,7.228c-4.1,0.915-6.922,0.542-11.391-0.003
	c4.638,1.946,7.227,2.969,11.667,3.251c-0.921,1.382-1.573,2.608-2.256,4.431c9.908-8.448,24.827-16.047,37.565-13.34
	C173.713,273.77,174.865,274.334,177.993,275.874c-0.005-0.007-0.011-0.014-0.016-0.022
	C177.982,275.86,177.987,275.865,177.993,275.874z"/>
<g opacity="0.1">
	<path d="M145.041,196.339c0.086-0.575,0.174-1.15,0.275-1.724C145.215,195.189,145.127,195.764,145.041,196.339z"/>
	<path d="M144.746,198.533c0.069-0.584,0.141-1.167,0.224-1.745C144.886,197.367,144.815,197.95,144.746,198.533z"/>
	<path d="M144.512,200.781c0.054-0.604,0.11-1.206,0.177-1.801C144.622,199.575,144.566,200.177,144.512,200.781z"/>
	<path d="M146.429,189.431c0.117-0.468,0.23-0.933,0.358-1.408C146.66,188.498,146.547,188.963,146.429,189.431z"/>
	<path d="M145.865,191.843c0.114-0.528,0.228-1.056,0.355-1.59C146.093,190.787,145.979,191.315,145.865,191.843z"/>
	<path d="M147.113,186.877c0.108-0.381,0.21-0.757,0.325-1.144C147.323,186.12,147.221,186.496,147.113,186.877z"/>
	<path d="M21.174,215.534c66,3.431,97.9-6.122,127-32.169C110.45,203.734,68.657,207.172,21.174,215.534z"/>
	<path d="M144.337,203.087c0.039-0.632,0.081-1.26,0.133-1.877C144.418,201.827,144.377,202.456,144.337,203.087z"/>
	<path d="M145.405,194.148c0.103-0.567,0.208-1.134,0.326-1.704C145.613,193.013,145.508,193.581,145.405,194.148z"/>
	<path d="M144.309,219.22c-0.033-0.945-0.064-1.87-0.089-2.766C144.246,217.349,144.276,218.275,144.309,219.22z"/>
	<path d="M332.47,150.703c-58.965,48.655-152.568,11.366-188.028,71.969c-0.046-1.098-0.088-2.161-0.125-3.193
		c0.041,1.134,0.086,2.298,0.137,3.512c49.897-34.099,143.187-6.266,187.806-65.336L332.47,150.703z"/>
	<path d="M144.213,216.122c-0.023-0.86-0.043-1.704-0.057-2.522C144.17,214.417,144.19,215.263,144.213,216.122z"/>
	<path d="M144.218,205.47c0.025-0.666,0.053-1.327,0.091-1.974C144.272,204.143,144.244,204.804,144.218,205.47z"/>
	<path d="M332.261,157.656c0.412-0.545,0.821-1.095,1.225-1.656C333.08,156.557,332.673,157.11,332.261,157.656z"/>
	<path d="M144.152,207.907c0.012-0.693,0.026-1.379,0.049-2.048C144.178,206.528,144.164,207.215,144.152,207.907z"/>
	<path d="M144.131,210.49c0-0.736,0.002-1.463,0.012-2.17C144.132,209.027,144.13,209.755,144.131,210.49z"/>
	<path d="M144.129,210.893c0.002,0.751,0.011,1.527,0.023,2.313C144.14,212.42,144.131,211.644,144.129,210.893z"/>
</g>
<g>
	<polygon fill="#FFFFFF" points="501.499,491.102 476.352,481.565 455.518,498.574 459.832,525.12 484.979,534.658 505.813,517.649
			"/>
	<polygon fill="#9FC5EC" points="463.864,472.876 449.713,467.509 437.99,477.08 440.417,492.019 454.568,497.386 466.291,487.814
		"/>
	<polygon fill="#5B9FE6" points="454.073,499.007 443.105,494.846 434.018,502.265 435.899,513.844 446.868,518.004
		455.954,510.586 	"/>
</g>
</svg>
