<svg xmlns="http://www.w3.org/2000/svg" xmlns:xlink="http://www.w3.org/1999/xlink" viewBox="0 0 1401.1 1198.5" enable-background="new 0 0 1401.1 1198.5">
<g>
<defs>
    <path id="b" d="M0 0h1401.1v1198.5H0z" />
</defs>
<clipPath id="c">
    <use xlink:href="#b" overflow="visible" />
</clipPath>
<g clip-path="url(#c)">
    <defs>
        <path id="d" d="M1101.1 1289.3c126.4-136.6-111.3-283.3-250.7-133.7l-28.5-83.6c213.1-319.4 567.6-196.6 579.1 138.5" />
    </defs>
    <use xlink:href="#d" overflow="visible" fill="#96D41C" />
    <clipPath id="e">
        <use xlink:href="#d" overflow="visible" />
    </clipPath>
    <path opacity=".15" clip-path="url(#e)" d="M830.5 1127.4c19.7-64 267.2-210.5 340.1-9.5 32.2 88.7-12.9 150.5-102 202.5-142.8-102.3-260.7-119.8-238.1-193z" />
    <g>
        <defs>
            <path id="f" d="M493.6 1426.8C104 1381.5 179.9 1104.2 245 1004.6c63-96.4 12.1-167 12.1-167l396.7-164.7s4.9 75.4-123.7 272.7c-76.4 117.2 50.6 135 157.4 94 202.2-77.6 208.7 206 97.2 323.2" />
        </defs>
        <use xlink:href="#f" overflow="visible" fill="#F7ECBA" />
        <clipPath id="g">
            <use xlink:href="#f" overflow="visible" />
        </clipPath>
        <path opacity=".2" clip-path="url(#g)" d="M274 875.3s54.9 8.8 110.4 3.4c0 0-33.1 36.7-129.7 28.9 18.1-29.8 19.3-32.3 19.3-32.3z" />
    </g>
    <g>
        <defs>
            <path id="h" d="M548.4 897.9s297.9-542.8-120.6-612.2c-331.5-54.8-350.3 273.6-296.2 383 0 0-38.3-15.7-36.6 12.8 8.9 149.2 159.7 219 291 208.3 52.4-4.2 103.8-9.6 138.9-26.4s23.5 34.5 23.5 34.5z" />
        </defs>
        <use xlink:href="#h" overflow="visible" fill="#F7ECBA" />
        <clipPath id="i">
            <use xlink:href="#h" overflow="visible" />
        </clipPath>
        <ellipse transform="matrix(1 -.031 .031 1 -24.903 13.666)" opacity=".6" clip-path="url(#i)" fill="#fff" cx="428.4" cy="810.2" rx="11.1" ry="12.5" />
        <ellipse transform="matrix(1 -.031 .031 1 -24.531 14.922)" opacity=".6" clip-path="url(#i)" fill="#fff" cx="469.1" cy="798.8" rx="11.1" ry="12.5" />
        <ellipse transform="matrix(1 -.031 .031 1 -23.714 14.048)" opacity=".6" clip-path="url(#i)" fill="#fff" cx="441.3" cy="772" rx="11.1" ry="12.5" />
        <path fill="none" d="M487.8 663.2" opacity=".5" clip-path="url(#i)" />
        <path opacity=".2" clip-path="url(#i)" fill="#6C8B1C" d="M120.5 693.2s.1.3.4.7c.3.5.7 1.1 1.3 1.7.3.3.6.7 1 1 .4.3.8.6 1.3.8.5.3 1 .4 1.6.6.3.1.6.1.9.1.3 0 .6.1.9.1.6 0 1.2 0 1.7-.1.3 0 .6-.1.9-.1.3 0 .5-.2.8-.2.5-.2 1.1-.3 1.5-.5.5-.2.9-.4 1.3-.6.4-.2.8-.4 1.1-.6.3-.2.6-.3.8-.5.5-.3.7-.4.7-.4l.2.3s0 .1-.1.3c-.1.2-.1.4-.3.7-.1.3-.3.7-.5 1.1-.2.4-.5.9-.9 1.2-.4.4-.8.8-1.3 1.2-.5.4-1.1.7-1.7 1.1-.6.4-1.3.6-2.1.8-.7.2-1.6.3-2.5.3-.4 0-.9-.1-1.3-.1-.4-.1-.9-.2-1.3-.3-.8-.3-1.6-.7-2.3-1.2-.7-.5-1.2-1.1-1.6-1.6-.4-.6-.7-1.2-.9-1.8-.2-.6-.3-1.1-.4-1.6-.1-.5 0-.9 0-1.2 0-.3.1-.6.1-.8 0-.2.1-.3.1-.3l.6-.1z" />
        <path opacity=".2" clip-path="url(#i)" fill="#fff" d="M137.4 490s-8.8 127.4 21.2 188.7c-15.4-7.2-27.1-10-27.1-10s-77.4-126.9-53.1-157c24.5-30.1 59-21.7 59-21.7z" />
    </g>
    <path fill="#272628" d="M206.8 601.5s-1.4 2.7-2.4 3.9c-.2.4-.6.9-1 1.4-.4.5-.9 1.1-1.4 1.7-.5.6-1.1 1.3-1.9 2.1-.7.7-1.4 1.5-2.2 2.3-1.6 1.6-3.6 3.4-5.6 5.2-1.1.9-2.1 1.9-3.3 2.8-1.2.9-2.3 1.9-3.6 2.8-2.5 1.9-5.1 3.8-7.8 5.5-1.4.9-2.8 1.6-4.2 2.5-1.4.7-2.8 1.4-4.3 2-2.8 1.2-5.7 2.1-8.3 2.4-2.6.3-5 .1-7.3-.5-1.2-.3-2.3-.9-3.5-1.3-1.1-.8-2.3-1.3-3.4-2.2-.6-.4-1.1-.9-1.7-1.3-.5-.5-1-1-1.6-1.5-1.1-.9-2.1-2.1-3.1-3.2-.5-.6-1-1.1-1.5-1.6-.5-.6-.9-1.2-1.4-1.7-.9-1.1-1.9-2.2-2.7-3.4-1.6-2.3-3.2-4.4-4.5-6.4-1.3-2-2.6-3.7-3.5-5.2-.9-1.5-1.8-2.6-2.3-3.4-.6-.8-2.7-3.7-2.7-3.7l.9 2.7s.5 1.9 1.5 5.2c.4 1.6 1.1 3.5 1.9 5.7-.8.3-1.9.7-3.1 1.1-3.1 1-7.3 2.1-11.6 2.6-2.2.3-4.4.4-6.4.5h-3c-1 0-1.9-.1-2.7-.2-1.7-.1-3-.4-4-.5l-1.5-.3s.5.2 1.5.5c.9.3 2.3.8 3.9 1.2.8.2 1.7.5 2.7.7l3 .6c2.1.3 4.4.6 6.7.7 4.6.2 9.3-.1 12.7-.7 1.5-.2 2.8-.5 3.8-.7-.7.2-1.6.5-2.7.8-2.8.8-6.7 1.5-10.6 2-3.9.5-7.9.7-10.9.7-1.5 0-2.7-.1-3.6-.1-.9-.1-1.4-.1-1.4-.1s.5.1 1.3.4c.8.2 2.1.5 3.6.8 3 .6 7 1.2 11.1 1.4 4.1.2 8.2.2 11.3 0 1.2-.1 2.2-.2 3.1-.3-.4.2-.9.4-1.5.6-2.4.9-5.9 1.9-9.4 2.5-3.5.6-7.2.9-9.9 1-1.4.1-2.5 0-3.3 0h-1.3l1.2.3c.8.2 1.9.4 3.3.7 2.7.5 6.4 1 10.2 1.1 3.8.1 7.6-.1 10.5-.5.2 0 .4-.1.6-.1-1.8.7-4.1 1.4-6.6 1.9-3.1.6-6.2.9-8.6 1-1.2.1-2.2.1-2.9.1h-1.1s.4.1 1.1.2c.7.1 1.7.4 2.9.6 2.4.5 5.6.9 8.9 1.1 3.3.2 6.7 0 9.3-.6 1.3-.3 2.4-.6 3.2-.9.3-.1.5-.2.7-.3.1.2.3.4.4.5.6.7 1.1 1.4 1.7 2.1.7.6 1.3 1.3 2 2 1.3 1.4 2.9 2.4 4.5 3.6 1.7.9 3.4 2 5.3 2.6 3.8 1.4 7.9 1.8 11.9 1.4 4-.5 7.9-1.9 11.4-3.7 3.5-1.7 6.7-3.9 9.7-6.2 2.9-2.3 5.5-4.8 7.9-7.2 2.4-2.4 4.4-4.9 6.2-7.3 1.8-2.4 3.3-4.6 4.5-6.7.6-1 1.2-2 1.6-3 .5-.9.9-1.8 1.2-2.6.4-.8.6-1.5.8-2.2.7-1.9 1.3-5.9 1.3-5.9z" />
    <path d="M137.4 490c-.4 13.4 2.8 28 8.8 38.6 300.2 79.4 410.9-94.8 410.9-94.8S431.3 554 137.4 490z" opacity=".2" />
    <g>
        <defs>
            <path id="j" d="M572.7 418.6S454.2 582.7 139 490.3c-1.3 41.5 42.2 73.2 42.2 73.2C37.6 518.4-30.8 442 13 330.6c68.8-175.1 280.7-161 402.7-76.3-11.4-31.8 12.9-66.4 42.7-65.8-18.9-174.8 478.4-361.7 493 108.8 4.4 143.3-88.1 196-109.6 220.7-98 112.5 106.8 140.9 82.4-15.1 222.1 266.8-308.9 437.5-268.6 51.5l-82.9-135.8z" />
        </defs>
        <use xlink:href="#j" overflow="visible" fill="#97D51C" />
        <clipPath id="k">
            <use xlink:href="#j" overflow="visible" />
        </clipPath>
        <path d="M517.6 336.3l12-10.6s-66.4-46.1-117.8-80.5c.5 3 10.6 8.9 3.9 9.1C529 347.5 434.8 595.6.1 401.6-40.8 454.9 3.4 535 179.6 563.2c0 0 26.4-1.5 27.7-43 315.2 92.4 363.8-101.8 363.8-101.8l33 54 36.9-78.7-123.4-57.4z" opacity=".15" clip-path="url(#k)" />
        <path opacity=".03" clip-path="url(#k)" d="M134.2 546.4c-8.9-3.7-17.4-7.6-25.5-11.6-.4 10.2-.4 20.2 0 30 20.1 9.9 42.3 18.6 66.5 26.2 0-.1-29-17.3-41-44.6z" />
        <path d="M924.3 502.9c119.6-.6 26.5-134.1 24.1-152.2-88.2 125.8-208.6 121.7-243.5 40-27.4-64.3-50.6 179-50.6 179-24.7 366 489.1 196.4 270-66.8zM458.5 188.4c147.3 63.5 172.4 115.4 263.5 67.8 72.9 52.8-84.4 116.1-84.4 116.1S420.8 240.4 458.5 188.4z" opacity=".15" clip-path="url(#k)" />
        <path opacity=".2" clip-path="url(#k)" fill="#fff" d="M3.1 360.7c72-118.2 188.8-185.5 359.1-136.5C276.8 61 13.4 116.1 13.4 116.1S-61.3 337.5 3.1 360.7zM464.1 190.1c-4.9-68.4 224.3-288.8 446.6-72.5L857-66.9 371.4-28.7s-1 192.6 92.7 218.8z" />
    </g>
    <g>
        <defs>
            <path id="l" d="M410.9 251.5S532 319.9 583 440.7c57.9 137.2 59.6-46.8 59.6-46.8-.2.6-44.2-148.3-184.2-205.5-26.3-10.7-81.8 43.7-47.5 63.1z" />
        </defs>
        <use xlink:href="#l" overflow="visible" fill="#0E2B4E" />
        <clipPath id="m">
            <use xlink:href="#l" overflow="visible" />
        </clipPath>
        <path opacity=".2" clip-path="url(#m)" fill="#fff" d="M413.5 253s-2-43 55.2-61.4c66-21.2-38.9-31.3-38.9-31.3l-87.1 60.5 70.8 32.2z" />
        <path opacity=".1" clip-path="url(#m)" d="M539.2 381.5s11.1-87.8 49.8-105.9c38.7-18.1 82.8 78.3 82.8 78.3l-73.7 102.6-58.9-75z" />
    </g>
    <g>
        <defs>
            <path id="n" d="M624 763.3s239.6-211.8 139.6-476.4c-33.4-88.4-195.1 28.8-217.8 205C522.6 672.4 624 763.3 624 763.3z" />
        </defs>
        <use xlink:href="#n" overflow="visible" fill="#F7ECBA" />
        <clipPath id="o">
            <use xlink:href="#n" overflow="visible" />
        </clipPath>
        <path opacity=".2" clip-path="url(#o)" fill="#fff" d="M548.9 469.7s112.8-260.8 219.3-170.1c20.1 17.1 52.5-29.5 52.5-29.5l-119.3-82.4-147.8 49.1L466 383.3l82.9 86.4z" />
    </g>
    <path fill="none" d="M532.2 678.9" opacity=".5" />
    <g>
        <defs>
            <path id="p" d="M244.2 770.9c6.4 29.1-23.5 80.7-57.4.6 0-.1 38.5 18.4 57.4-.6z" />
        </defs>
        <use xlink:href="#p" overflow="visible" fill="#993C62" />
        <clipPath id="q">
            <use xlink:href="#p" overflow="visible" />
        </clipPath>
        <path clip-path="url(#q)" fill="#F96248" d="M204.6 803c17 20.2 31.1 10.1 37.2-6-20.2-5.5-33.1 2.7-37.2 6z" />
        <path opacity=".1" clip-path="url(#q)" d="M241.6 796.7s-11.8 15.1-26.5 15.3c-29.7.5-8.6 54.2 12.2 14.1s14.3-29.4 14.3-29.4z" />
    </g>
    <path fill="#272628" d="M562.7 655c-.9-.1-1.9-.3-3.1-.5-1.2-.2-2.5-.4-4-.8-1.5-.3-3-.7-4.7-1-1.7-.4-3.4-1-5.1-1.4-1.8-.5-3.6-1.2-5.4-1.8-1.8-.6-3.6-1.4-5.4-2.2-1.8-.7-3.5-1.7-5.2-2.5-1.7-.9-3.2-1.9-4.8-2.8-1.4-1-2.9-1.9-4.1-3-1.3-1-2.4-2-3.4-2.9-1-.9-1.9-1.8-2.6-2.7-.7-.8-1.3-1.5-1.7-2.1-.2-.3-.4-.5-.5-.7.4-.5.8-1 1.1-1.5.7-1 1.4-1.9 2-2.8.6-.9 1.1-1.8 1.7-2.6 4.2-6.6 9.6-15 9.6-15l-4.4 3.8s-.9.8-2.4 2.2c-1.5 1.5-3.9 3.6-6.6 6.4l-2.2 2.2c-.8.7-1.6 1.5-2.5 2.3-1.8 1.6-3.5 3.4-5.5 5.2-1.9 1.9-4.1 3.7-6.4 5.7-2.3 1.9-4.5 4.1-7 6.1s-5.1 4.1-7.8 6.2c-2.8 2-5.6 4-8.5 6.1-3 1.9-6.1 3.9-9.2 5.9-3.3 1.7-6.5 3.6-9.8 5.3-6.8 3.2-13.8 6.1-21.2 8-1.8.6-3.7.8-5.5 1.3-1.9.3-3.7.8-5.6 1l-5.7.7-5.7.2c-7.6.2-15.2-.5-22.7-1.9-3.7-.9-7.4-1.7-11-2.9-.9-.3-1.8-.5-2.7-.8l-2.6-1c-1.7-.7-3.5-1.2-5.2-2-6.9-2.8-13.2-6.5-19.1-10.2-5.9-3.7-11.1-7.9-15.8-12-1.2-1-2.3-2.1-3.4-3.1s-2-2.1-3.1-3.1c-2.1-2-3.8-4.1-5.5-6-1.7-1.9-3-3.9-4.5-5.7-1.3-1.9-2.5-3.6-3.5-5.2-.9-1.6-1.7-3-2.5-4.3-.8-1.2-1.3-2.6-1.8-3.5-.9-1.9-4-7.7-4-7.7l.9 5s.2 1.1.6 3.1c.3 2.1 1.2 5.1 2.4 8.9.7 1.8 1.6 3.9 2.5 6.1 1.1 2.1 2.1 4.5 3.5 6.9 1.4 2.3 2.8 4.9 4.7 7.4.9 1.3 1.8 2.6 2.8 3.9 1 1.3 2.1 2.5 3.1 3.9 4.4 5.1 9.5 10.4 15.6 15.3 6.1 4.8 12.8 9.6 20.4 13.3 7.6 3.8 15.8 7 24.4 9.2 8.7 2 17.8 3.1 26.8 2.9l6.8-.4c2.2-.3 4.5-.6 6.7-1 2.3-.2 4.4-.9 6.6-1.4 2.2-.6 4.4-.9 6.5-1.7l6.3-2.1c2.1-.7 4.1-1.7 6.1-2.6 4.1-1.6 7.8-3.9 11.5-5.8 1.9-1 3.6-2.3 5.3-3.3 1.7-1.1 3.5-2.2 5.1-3.4 2.7-2.1 5.4-4.2 8-6.3.1.1.2.3.4.4.4.4.8.8 1.2 1.3.5.4.9.8 1.4 1.2 1 .8 2.1 1.6 3.3 2.4 1.2.7 2.5 1.5 3.9 2.1 1.3.7 2.8 1.2 4.2 1.8 1.4.6 2.9 1 4.4 1.5 1.5.5 3 .8 4.4 1.2 1.4.4 2.9.6 4.3.9 1.4.3 2.7.5 4 .7 1.3.2 2.5.4 3.6.5 1.1.2 2.2.2 3.1.3.9.1 1.7.2 2.4.2 1.3.1 2 .2 2 .2s-.7-.2-2-.6c-.6-.2-1.4-.4-2.2-.7-.9-.3-1.8-.5-2.9-.9-1-.4-2.2-.8-3.4-1.2-1.2-.4-2.4-.9-3.7-1.5-1.3-.6-2.6-1.1-3.9-1.7-1.3-.7-2.6-1.3-3.8-2-1.2-.8-2.5-1.4-3.6-2.2-1.1-.8-2.3-1.5-3.3-2.4-1-.8-1.9-1.6-2.8-2.4-.8-.8-1.5-1.6-2.1-2.3-.3-.4-.5-.7-.8-1.1-.2-.3-.4-.7-.6-1-.2-.4-.4-.7-.5-1 .8-.7 1.6-1.5 2.4-2.2.8.8 1.8 1.6 2.8 2.4 1.1.9 2.3 1.6 3.6 2.5 1.3.7 2.7 1.6 4.1 2.3 1.4.7 3 1.5 4.5 2.1 1.5.7 3.1 1.2 4.7 1.8 1.6.6 3.2 1 4.8 1.5 1.6.5 3.1.8 4.7 1.2 1.5.3 3 .7 4.4.9 1.4.2 2.7.5 3.9.7 1.2.2 2.3.3 3.3.4 1 .1 1.9.2 2.6.3 1.4.2 2.2.3 2.2.3s-.8-.3-2.1-.7c-.7-.2-1.5-.5-2.4-.8-.9-.3-2-.6-3.1-1.1-1.1-.4-2.4-.9-3.7-1.4-1.3-.5-2.6-1.1-4-1.7-1.4-.6-2.8-1.2-4.2-2-1.4-.7-2.8-1.4-4.2-2.2-1.4-.8-2.7-1.6-4-2.5-1.3-.8-2.5-1.7-3.6-2.6-1.2-.8-2.1-1.8-3.1-2.6-.9-.9-1.8-1.7-2.4-2.6-.7-.8-1.3-1.6-1.8-2.3-.1-.2-.3-.4-.4-.6l.9-.9c.5-.5 1-1 1.4-1.5.3.4.7.7 1.1 1.1.5.4 1 .9 1.5 1.4.5.4 1.1.9 1.7 1.4 1.2.9 2.5 1.8 4 2.7 1.4.9 3 1.7 4.6 2.4 1.6.8 3.3 1.5 5 2.1 1.7.7 3.5 1.2 5.2 1.8 1.8.6 3.6 1 5.3 1.5 1.7.5 3.5.8 5.2 1.2 1.7.4 3.3.7 4.8.9 1.5.3 3 .5 4.3.7 1.3.2 2.6.3 3.7.5 1.1.1 2 .2 2.8.3 1.6.2 2.5.3 2.5.3s-.9-.3-2.4-.7c-.8-.2-1.7-.5-2.7-.8-1-.3-2.2-.6-3.5-1.1-1.3-.4-2.6-.9-4.1-1.4-1.5-.5-3-1.1-4.5-1.7-1.5-.7-3.2-1.2-4.7-2-1.6-.8-3.2-1.4-4.7-2.3-1.5-.9-3.1-1.6-4.5-2.5-1.4-.9-2.9-1.8-4.1-2.7-1.3-.9-2.5-1.9-3.6-2.8-1.1-.9-2-1.9-2.8-2.7-.4-.4-.8-.9-1.1-1.3l-.9-1.2c-.5-.7-.9-1.4-1.2-1.9-.2-.4-.3-.8-.4-.9.4-.5.8-1 1.2-1.4.5.5 1.1 1 1.8 1.5 1 .9 2.3 1.8 3.6 2.7 1.4.9 2.8 1.8 4.5 2.7 1.6 1 3.4 1.7 5.1 2.6 1.8.7 3.7 1.6 5.6 2.2 2 .6 3.9 1.3 5.9 1.8 2 .5 4 1 6 1.4 2 .4 3.9.8 5.8 1 1.9.2 3.7.5 5.4.6 1.7.1 3.4.2 4.9.3 1.5.1 2.9.1 4.1.1h6s-.6-.7-2.3-1z" />
    <path opacity=".2" d="M712.9 351.9s.6 1 1.6 2.9c.9 1.9 2.4 4.7 3.9 8.4 1.4 3.7 3.2 8.2 4.7 13.5 1.5 5.3 3 11.4 4 18.1.6 3.4 1 6.9 1.4 10.5.3 3.7.7 7.5.8 11.4.4 7.8.2 16.1-.4 24.6-.3 4.3-.7 8.6-1.4 12.9l-.9 6.6-1.2 6.6c-.8 4.4-1.8 8.8-2.9 13.2-1.1 4.4-2.4 8.8-3.7 13.1-1.5 4.3-2.9 8.6-4.5 12.9-.8 2.1-1.6 4.2-2.5 6.3-.9 2.1-1.7 4.2-2.6 6.2-3.6 8.2-7.6 16-11.8 23.3-2.2 3.6-4.3 7.2-6.5 10.7-2.3 3.4-4.5 6.7-6.7 9.8-2.2 3.2-4.5 6.1-6.8 9-2.3 2.8-4.4 5.6-6.7 8.1s-4.3 4.9-6.4 7.2c-2.1 2.3-4.2 4.2-6.1 6.2-3.8 3.9-7.3 7.1-10.4 9.6-2.9 2.6-5.4 4.4-7.1 5.8-1.6 1.3-2.6 2-2.6 2l-1.3-1.1s2.6-3.5 7.2-9.5c2.3-3 4.9-6.8 7.9-11.1 3.1-4.3 6.3-9.3 9.8-14.7 1.8-2.7 3.5-5.6 5.3-8.6 1.8-3 3.8-6 5.5-9.3 1.8-3.3 3.6-6.6 5.5-10 1.8-3.5 3.6-7 5.4-10.7 1.8-3.6 3.4-7.4 5.2-11.2 1.8-3.8 3.3-7.7 4.9-11.6 1.6-3.9 3-8 4.6-12 1.5-4 2.7-8.2 4.1-12.3 1.2-4.1 2.5-8.3 3.7-12.4 1.1-4.2 2.3-8.3 3.1-12.4.5-2.1.9-4.1 1.4-6.2.4-2.1.8-4.1 1.2-6.2.8-4.1 1.4-8.2 2-12.2 1.1-8 1.9-15.8 2.3-23.2.5-7.4.5-14.4.4-20.9-.1-6.5-.6-12.4-1-17.6-.5-5.2-1.1-9.8-1.7-13.5-1.2-7.5-2.4-11.6-2.4-11.6l1.7-.6z" />
</g>
</g>
</svg>