<?xml version="1.0"?>
<svg width="690" height="137" xmlns="http://www.w3.org/2000/svg">

 <g>
  <title>background</title>
  <rect fill="none" id="canvas_background" height="139" width="692" y="-1" x="-1"/>
 </g>
 <g>
  <title>Layer 1</title>
  <g id="Logo">
   <g id="svg_1">
    <path id="svg_2" d="m210.899994,108.100006c-10.399994,0 -19.5,-4.899994 -25.600006,-13.300018l0,35.600006c0,3 -2.700012,5.600006 -6,5.600006c-3.099976,0 -5.799988,-2.700012 -5.799988,-5.600006l0,-95.299988c0,-3 2.700012,-5.600006 6.099976,-5.600006c3,0 5.600006,2.699997 5.600006,5.600006l0,6.599991c5.5,-7.699997 14.899994,-13.199997 25.600006,-13.199997c19.899994,0 33.700012,15.100006 33.700012,39.700012c0.200012,24.5 -13.700012,39.899994 -33.600006,39.899994zm-3,-69c-9.300018,0 -18.5,5.5 -22.600006,12.100006l0,34.199982c4.100006,6.600006 13.299988,12.200012 22.600006,12.200012c15.199982,0 24.299988,-12.600006 24.299988,-29.300018s-8.999969,-29.199982 -24.299988,-29.199982z" fill="#8849BF"/>
    <path id="svg_3" d="m296.399994,108.100006c-23.100006,0 -37.5,-17.899994 -37.5,-39.899994s14.399994,-39.700012 37.5,-39.700012c23.100006,0 37.5,17.699997 37.5,39.700012s-14.399994,39.899994 -37.5,39.899994zm0,-69c-16.200012,0 -25.300018,13.799988 -25.300018,29.199982c0,15.5 9.100037,29.300018 25.300018,29.300018c16.199982,0 25.100006,-13.800018 25.100006,-29.300018c0.100006,-15.399994 -8.899994,-29.199982 -25.100006,-29.199982z" fill="#8849BF"/>
    <path id="svg_4" d="m405.200012,107.200012c-3.100006,0 -5.799988,-2.700012 -5.799988,-5.800018l0,-44.699982c0,-13.300018 -6.700012,-17.600006 -16.900024,-17.600006c-9.299988,0 -18,5.599991 -22.399994,11.799988l0,50.5c0,3.100006 -2.699982,5.800018 -6,5.800018c-3.100006,0 -5.799988,-2.700012 -5.799988,-5.800018l0,-66.299988c0,-3 2.699982,-5.600006 6.100006,-5.600006c3,0 5.599976,2.699997 5.599976,5.600006l0,6.299988c5.300018,-6.299988 15.700012,-12.899994 27,-12.899994c15.800018,0 24.200012,8 24.200012,24.5l0,48.299988c0,3.200012 -2.700012,5.900024 -6,5.900024z" fill="#8849BF"/>
    <path id="svg_5" d="m493.200012,37.299988l-35.200012,84.300018c-4.599976,10.799988 -12.599976,15.399994 -22.299988,15.399994c-4.100037,0 -9.299988,-0.299988 -9.299988,-5.299988c0,-3.100006 2.5,-5.300018 5.199951,-5.300018c1.400024,0 2.700073,0.200012 3.900024,0.200012c4.700012,0.199982 8.299988,-1.700012 11.100037,-8l5,-11.5l-28.900024,-69.700012c-0.299988,-0.600006 -0.5,-1.399994 -0.5,-2c0,-3 2.5,-5.799988 6,-5.799988c2.399963,0 4.600037,1.299988 5.5,3.599991l24.200012,59.500015l24,-59.500015c0.899963,-2.199997 3.099976,-3.599991 5.5,-3.599991c3.5,0 6.099976,2.699982 6.099976,5.799988c0.200012,0.5 0,1.300003 -0.299988,1.899994z" fill="#8849BF"/>
    <path id="svg_6" d="m502,107.799988c-4.700012,0 -8.599976,-3.899994 -8.599976,-8.599976c0,-4.700012 3.899963,-8.600006 8.599976,-8.600006c4.700012,0 8.599976,3.899994 8.599976,8.600006c0.100006,4.699982 -3.899963,8.599976 -8.599976,8.599976z" fill="#8849BF"/>
    <path id="svg_7" d="m567.299988,14.899994c-2.400024,0 -4.400024,-1.600006 -7.700012,-1.600006c-6.399963,0 -10.399963,4.400009 -10.399963,12.400009l0,4.699997l9.099976,0c3.900024,0 7.200012,3.300003 7.200012,7.5c0,3.899994 -3.299988,7.200012 -7.200012,7.200012l-9.099976,0l0,53.699982c0,4.600006 -3.800049,8.300018 -8.600037,8.300018c-4.599976,0 -8.299988,-3.800018 -8.299988,-8.300018l0,-53.699982l-6.299988,0c-3.900024,0 -7.200012,-3.300018 -7.200012,-7.5c0,-3.900009 3.299988,-7.200012 7.200012,-7.200012l6.299988,0l0,-4.699997c0,-16 9.600037,-25.699997 24.200012,-25.699997c8.599976,0 16.799988,3.100006 16.799988,8.5c0,4 -3.200012,6.399994 -6,6.399994z" fill="#8849BF"/>
    <path id="svg_8" d="m680.900024,107.200012c-4.599976,0 -8.299988,-3.800018 -8.299988,-8.300018l0,-41.899994c0,-8 -3.5,-13.5 -12.200012,-13.5c-7.400024,0 -14.099976,5.200012 -17.400024,9.899994l0,45.5c0,4.600006 -3.799988,8.300018 -8.5,8.300018c-4.699951,0 -8.299988,-3.800018 -8.299988,-8.300018l0,-41.899994c0,-8 -3.599976,-13.5 -12.399963,-13.5c-7.200012,0 -14,5.200012 -17.300049,10l0,45.399994c0,4.600006 -3.799988,8.300018 -8.5,8.300018c-4.699951,0 -8.299988,-3.800018 -8.299988,-8.300018l0,-61.199997c0,-4.400009 3.600037,-8.199997 8.600037,-8.199997c4.399963,0 8.199951,3.799988 8.199951,8.199997l0,3.099991c3.100037,-4.699982 13.200012,-12.199982 24.600037,-12.199982c11.299988,0 18.200012,5.599991 20.700012,14c4.399963,-6.900009 14.399963,-14 25.899963,-14c13.799988,0 21.799988,7.5 21.799988,22.899994l0,47.399994c0.099976,4.5 -3.700012,8.300018 -8.599976,8.300018z" fill="#8849BF"/>
   </g>
   <g id="svg_9">
    <g id="svg_10">
     <circle id="svg_11" r="5.699997" cy="68.299998" cx="62.8" fill="#8849BF"/>
     <path id="svg_12" d="m62.799999,5.5c-34.699993,0 -62.799999,28.100006 -62.799999,62.799988s28.100006,62.800018 62.799999,62.800018s62.800007,-28.100006 62.800007,-62.800018s-28.100006,-62.799988 -62.800007,-62.799988zm0,86.799988c-13.299999,0 -23.999996,-10.699982 -23.999996,-24s10.699997,-24 23.999996,-24s24.000004,10.700012 24.000004,24s-10.699997,24 -24.000004,24zm35.099995,-29.699982c-1.900009,0.5 -3.800003,-0.600006 -4.300003,-2.5c-2.300003,-8.5 -7.800003,-15.300018 -14.800003,-19.300018c-1.699997,-1 -2.199997,-3.099991 -1.300003,-4.799988c1,-1.600006 3,-2.200012 4.700012,-1.300003c0,0 0.099991,0 0.099991,0c0,0 0.100006,0 0.100006,0c8.5,5 15.199997,13.199997 18,23.400009c0,0 0,0.100006 0,0.100006c0,0 0,0.099976 0,0.099976c0.400009,1.900024 -0.699997,3.800018 -2.5,4.300018zm13.5,-3.600006c-1.900009,0.5 -3.800003,-0.600006 -4.300003,-2.5c-3.300003,-12.200012 -11.199997,-22.000015 -21.399994,-27.800018c-1.700012,-1 -2.200012,-3.099991 -1.300003,-4.799988c1,-1.700012 3.099991,-2.200012 4.800003,-1.300003c11.699997,6.800003 20.799988,18 24.599991,32.099991c0.600006,1.800018 -0.499985,3.800018 -2.399994,4.300018z" fill="#8849BF"/>
    </g>
   </g>
  </g>
 </g>
</svg>