<?xml version="1.0" encoding="utf-8"?>
<!-- Generator: Adobe Illustrator 18.1.0, SVG Export Plug-In . SVG Version: 6.00 Build 0)  -->
<svg version="1.1" id="Layer_1" xmlns="http://www.w3.org/2000/svg" xmlns:xlink="http://www.w3.org/1999/xlink" x="0px" y="0px"
	 viewBox="0 0 967.2 139" enable-background="new 0 0 967.2 139" xml:space="preserve">
<path fill="#FF108C" d="M85.6,117.1c-0.2-4.4-0.3-8.8-0.7-13.2c-0.2-2-0.9-4-1.6-6c-0.3-0.8-1-1.5-1.6-2c-1.4-1.1-3-1-4,0.4
	c-1.1,1.5-2,3.2-2.6,5c-1.1,3.3-1.9,6.7-3,10c-0.7,2.1-1.6,4.1-2.6,6.1c-0.4,0.8-1,1.5-1.7,2.2c-2.2,2.2-4.8,2.2-6.7-0.3
	c-1.7-2.2-3.2-4.7-4.4-7.2c-2.1-4.5-3.9-9.3-5.9-13.8c-1.2-2.8-2.8-5.4-5-7.5c-1.4-1.4-3-2.1-5.1-1.9c-2.7,0.4-4.3,2.1-4.5,4.8
	c-0.1,2.8,0.7,5.5,1.6,8.1c1.8,5.1,3.8,10.2,5.5,15.3c0.9,2.6,1.5,5.4,1.8,8.2c0.3,3.2-1,4.7-4.2,5.5c-8.6,2.2-17.3,3-26.1,2.5
	c-2.9-0.2-5.9-0.7-8.7-1.5c-5.1-1.5-6.6-4.3-6-9.6c0.5-4.1,0.8-8.3,1.2-12.5c0.4-4.6,0.9-9.3,1.4-13.9c0.4-4.5,0.8-9,1.3-13.6
	c0.4-4.4,0.9-8.8,1.4-13.2c0.4-4.5,0.9-9,1.3-13.4c0.5-5,0.9-10.1,1.7-15.1c0.7-5,1.7-10,2.7-15c1.1-5.5,4.6-8.8,10-10.2
	c6.2-1.6,12.5-3.1,19-2.8c2.3,0.1,4.7,0.5,7,1.3c5.6,1.9,8.2,6.3,8.8,12c0.6,5.7,1.2,11.4,1.9,17.1c0.3,2.7,0.7,5.3,1.3,8
	c0.3,1.2,0.9,2.3,1.6,3.3c1.4,1.9,3.5,2,4.6,0c1.5-2.7,3-5.4,4-8.3c2.7-7.8,5-15.8,7.5-23.6c0.8-2.6,1.8-5.3,2.9-7.8
	c1.6-3.7,4.3-6,8.6-6.1c5.4-0.1,10.8-0.4,16.2-0.4c1.7,0,3.5,0.3,5.1,0.8c3.3,0.9,5.5,3.2,6.2,6.6c1.3,6.7,2.4,13.4,3.4,20.2
	c0.9,5.9,1.6,11.9,2.4,17.8c0.7,6,1.4,12,2,18c0.6,6.4,1.2,12.7,1.6,19.1c0.4,7.5,0.7,15,0,22.6c-0.2,2.5-0.9,4.9-1.6,7.3
	c-1.7,5.4-5.3,9-11,10.1c-5.6,1.1-11.3,2-17,2.7c-1.7,0.2-3.5-0.1-5.2-0.5c-3.2-0.8-4.8-3-4.9-6.3c0-3,0-6,0-8.9
	C85.5,117.1,85.5,117.1,85.6,117.1z"/>
<g>
	<path fill="#FF108C" d="M274.7,109.5c-3.8,0-7.1-3.2-7.1-7.1V56.9c0-9.1-4-15.1-13.5-15.1c-7.9,0-15.7,5.6-19.4,11.2v49.4
		c0,3.8-3.2,7.1-7.2,7.1c-3.8,0-7.1-3.2-7.1-7.1V56.9c0-9.1-3.8-15.1-13.6-15.1c-7.5,0-15.2,5.6-19.1,11.4v49.2
		c0,3.8-3.2,7.1-7.2,7.1c-3.8,0-7.1-3.2-7.1-7.1V37c0-3.7,3.2-6.9,7.4-6.9c3.7,0,6.9,3.2,6.9,6.9v5c3.2-4.8,13.5-12.8,25-12.8
		c11.9,0,18.6,6.1,21,14.3c4.5-7.1,14.8-14.3,26.1-14.3c14.3,0,22,7.7,22,23.4v49.9C281.9,106.3,278.7,109.5,274.7,109.5z"/>
	<path fill="#FF108C" d="M312.1,109.5c-3.8,0-7.1-3.2-7.1-7.1V7.5c0-3.7,3.2-6.9,7.4-6.9c3.7,0,6.9,3.2,6.9,6.9v94.9
		C319.3,106.3,316.1,109.5,312.1,109.5z"/>
	<path fill="#FF108C" d="M382.1,110.5c-10.3,0-19.2-4.6-25.5-13.1v34.8c0,3.7-3.2,6.9-7.2,6.9c-3.8,0-7.1-3.2-7.1-6.9V37
		c0-3.7,3.2-6.9,7.4-6.9c3.7,0,6.9,3.2,6.9,6.9v5.1c5.6-7.7,14.9-13,25.5-13c20.2,0,34.5,15.2,34.5,40.6
		C416.6,94.9,402.3,110.5,382.1,110.5z M378.1,41.9c-8.7,0-17.6,5.1-21.5,11.4v33c3.9,6.3,12.8,11.5,21.5,11.5
		c14.6,0,23.4-11.9,23.4-28.1S392.7,41.9,378.1,41.9z"/>
	<path fill="#FF108C" d="M516.2,17.2c-2.4,0-3.9-1.1-7.4-1.1c-5.6,0-9.6,3.7-9.6,10.9v4.2h8c4.7,0,8.7,4,8.7,9c0,4.8-4,8.8-8.7,8.8
		h-8v50.5c0,5.6-4.5,10.1-10.4,10.1c-5.6,0-10.1-4.5-10.1-10.1V48.9h-5c-4.8,0-8.8-4-8.8-9.1c0-4.7,4-8.7,8.8-8.7h5v-4.2
		c0-16.5,10.6-26.9,26.1-26.9c11.1,0,18.3,4,18.3,9.5C523.1,14.6,519.4,17.2,516.2,17.2z"/>
	<path fill="#FF108C" d="M562.5,110.5c-25.5,0-40.9-18.6-40.9-40.7c0-22,15.4-40.6,40.9-40.6c25.7,0,41.1,18.6,41.1,40.6
		C603.6,91.9,588.2,110.5,562.5,110.5z M562.5,47.3c-12.7,0-19.7,10.4-19.7,22.4c0,12.2,7.1,22.6,19.7,22.6
		c12.7,0,19.9-10.4,19.9-22.6C582.4,57.7,575.2,47.3,562.5,47.3z"/>
	<path fill="#FF108C" d="M654.9,49.2c-6.3,0.8-12.2,3.4-15.9,8.2v42c0,5.6-4.5,10.1-9.9,10.1h-0.3c-5.6,0-10.1-4.5-10.1-10.1V40.1
		c0-5.5,4.5-9.9,10.4-9.9c5.5,0,9.9,4.5,9.9,9.9v1.6c3.8-5.1,9-11.2,16.7-11.2c5.9,0,9,3.7,9,8.3C664.7,44.9,660.5,48.4,654.9,49.2z
		"/>
	<path fill="#FF108C" d="M738.7,109.5c-5.6,0-10.1-4.5-10.1-10.1v-0.6c-5.3,5.9-14.6,11.7-27.3,11.7c-17,0-25-9.3-25-24.4v-46
		c0-5.5,4.5-9.9,10.4-9.9c5.5,0,9.9,4.5,9.9,9.9v38c0,10.7,5.6,14.3,14.3,14.3c7.9,0,14.1-4.3,17.6-8.8V40.1c0-5.5,4.5-9.9,10.4-9.9
		c5.5,0,9.9,4.5,9.9,9.9v59.3C749,105,744.5,109.5,738.7,109.5z"/>
	<path fill="#FF108C" d="M875.4,109.5c-5.6,0-10.1-4.5-10.1-10.1V59.7c0-7.2-3.2-12.3-11.5-12.3c-7.2,0-13.1,4.8-16,9v43.1
		c0,5.6-4.5,10.1-10.4,10.1c-5.6,0-10.1-4.5-10.1-10.1V59.7c0-7.2-3.2-12.3-11.5-12.3c-7.1,0-13,4.8-16,9.1v43
		c0,5.6-4.5,10.1-10.3,10.1c-5.6,0-10.1-4.5-10.1-10.1V40.1c0-5.5,4.5-9.9,10.4-9.9c5.5,0,9.9,4.5,9.9,9.9v1.1
		c3.2-4.7,13.5-12,25.3-12c11.4,0,18.6,5.3,21.5,14.1c4.5-7.1,14.8-14.1,26.6-14.1c14.3,0,22.8,7.5,22.8,23.4v46.8
		C885.8,105,881.3,109.5,875.4,109.5z"/>
	<path fill="#FF108C" d="M933.7,110.5c-10.1,0-26.3-3.4-31.1-10.3c-1-1.3-1.4-2.7-1.4-4.3c0-4.8,4.2-8.5,8.5-8.5
		c1.4,0,2.9,0.3,4.2,1.1c6.1,3.5,14.1,6.3,20.8,6.3c8.8,0,13-3.5,13-8.3c0-12.8-46-2.4-46-32.9c0-13,11.4-24.4,31.8-24.4
		c10.1,0,23.9,3.2,28.2,9.5c0.8,1.1,1.3,2.6,1.3,4c0,4.3-3.8,7.7-8,7.7c-1.3,0-2.7-0.3-3.8-1c-5-2.9-11.2-4.7-17.5-4.7
		c-7.4,0-12.2,3.4-12.2,7.7c0,11.5,45.9,1.9,45.9,33.2C967.2,99.7,955.2,110.5,933.7,110.5z"/>
</g>
</svg>
