<?xml version="1.0"?>
<svg width="888" height="139" xmlns="http://www.w3.org/2000/svg">

 <g>
  <title>background</title>
  <rect fill="none" id="canvas_background" height="141" width="890" y="-1" x="-1"/>
 </g>
 <g>
  <title>Layer 1</title>
  <g id="Logo">
   <g id="svg_1">
    <path id="svg_2" d="m183.899994,109c-10.5,0 -19.700012,-4.899994 -25.899994,-13.5l0,36c0,3 -2.700012,5.700012 -6,5.700012c-3.200012,0 -5.900024,-2.700012 -5.900024,-5.700012l0,-96.399994c0,-3 2.700012,-5.700012 6.200012,-5.700012c3,0 5.700012,2.700012 5.700012,5.700012l0,6.699982c5.599976,-7.799988 15.100006,-13.299988 25.899994,-13.299988c20.200012,0 34.100006,15.200012 34.100006,40.200012c0,24.699982 -13.899994,40.299988 -34.100006,40.299988zm-3,-69.899994c-9.399994,0 -18.700012,5.600006 -22.899994,12.200012l0,34.599976c4.099976,6.700012 13.5,12.399994 22.899994,12.399994c15.399994,0 24.600006,-12.699982 24.600006,-29.699982c0,-16.899994 -9.199982,-29.5 -24.600006,-29.5z" fill="#F7BE19"/>
    <path id="svg_3" d="m270.399994,109c-23.299988,0 -37.899994,-18.100006 -37.899994,-40.299988c0,-22.200012 14.600006,-40.200012 37.899994,-40.200012c23.299988,0 37.899994,17.899994 37.899994,40.200012c0.100006,22.199982 -14.499969,40.299988 -37.899994,40.299988zm0,-69.899994c-16.399994,0 -25.600006,14 -25.600006,29.5c0,15.700012 9.200012,29.700012 25.600006,29.700012s25.399994,-14 25.399994,-29.700012c0.000031,-15.5 -8.999969,-29.5 -25.399994,-29.5z" fill="#F7BE19"/>
    <path id="svg_4" d="m380.399994,108c-3.200012,0 -5.899994,-2.700012 -5.899994,-5.899994l0,-45.200012c0,-13.5 -6.800018,-17.799988 -17.100006,-17.799988c-9.399994,0 -18.299988,5.699982 -22.700012,11.899994l0,51.100006c0,3.199982 -2.699982,5.899994 -6,5.899994c-3.199982,0 -5.899994,-2.700012 -5.899994,-5.899994l0,-67c0,-3 2.700012,-5.700012 6.200012,-5.700012c3,0 5.699982,2.700012 5.699982,5.700012l0,6.399994c5.400024,-6.399994 15.900024,-13 27.300018,-13c16,0 24.399994,8.100006 24.399994,24.799988l0,48.900024c0.100006,3.099976 -2.599976,5.799988 -6,5.799988z" fill="#F7BE19"/>
    <path id="svg_5" d="m414.899994,11.5c0,4.399994 -3.700012,7.899994 -8.100006,7.899994c-4.299988,0 -7.899994,-3.5 -7.899994,-7.899994s3.700012,-8.100006 7.899994,-8.100006c4.400024,0 8.100006,3.600006 8.100006,8.100006zm-8.099976,96.5c-3.200012,0 -5.899994,-2.700012 -5.899994,-5.899994l0,-67c0,-3 2.699982,-5.700012 6.199982,-5.700012c3,0 5.700012,2.700012 5.700012,5.700012l0,67c0,3.199982 -2.700012,5.899994 -6,5.899994z" fill="#F7BE19"/>
    <path id="svg_6" d="m487.300018,108l-1,0c-2.200012,0 -7.599976,-1.899994 -7.599976,-7.799988l0,-1.400024c-5.600037,6.5 -14.600037,10.200012 -24.600037,10.200012c-12.5,0 -26.799988,-8.399994 -26.799988,-25.399994c0,-17.600006 14.299988,-24.899994 26.799988,-24.899994c10.200012,0 19.200012,3.299988 24.600037,9.799988l0,-11.700012c0,-8.699982 -7.300049,-14.099976 -17.800049,-14.099976c-6.699951,0 -12.699951,1.699982 -18.299988,5.899994c-1,0.600006 -2.200012,1.100006 -3.5,1.100006c-3.200012,0 -6.700012,-2.5 -6.700012,-6.700012c0,-1.299988 0.5,-2.700012 1.300049,-3.700012c6,-7.599976 20.199951,-10.799988 29.799988,-10.799988c17,0 32.099976,7.100006 32.099976,27.799988l0,43.300018c0.099976,4.600006 -3.700012,8.399994 -8.299988,8.399994zm-8.600037,-30c-3.799988,-5.100006 -10.799988,-7.600006 -18.099976,-7.600006c-9,0 -16,5.100006 -16,13.5c0,8.100006 7,13.300018 16,13.300018c7.299988,0 14.299988,-2.5 18.099976,-7.800018l0,-11.399994z" fill="#F7BE19"/>
    <path id="svg_7" d="m544.399963,45.600006c-6.799988,0.600006 -13.299988,3.5 -17.5,9.399994l0,44.600006c0,4.600006 -3.799988,8.399994 -8.400024,8.399994l-0.299988,0c-4.599976,0 -8.299957,-3.799988 -8.299957,-8.399994l0,-61.899994c0,-4.400024 3.699982,-8.300018 8.699982,-8.300018c4.399963,0 8.299988,3.800018 8.299988,8.300018l0,4c4.099976,-5.600006 10.200012,-12.200012 18.299988,-12.200012c4.600037,0 7.5,3.200012 7.5,7.299988c0,5 -3.5,8.200012 -8.299988,8.800018z" fill="#F7BE19"/>
    <path id="svg_8" d="m623.299988,100.399994c-5.599976,5.100006 -13.5,8.600006 -24.599976,8.600006c-23.300049,0 -39.700012,-17 -39.700012,-40.299988c0,-23.200012 16.399963,-40.200012 39.700012,-40.200012c11.699951,0 21.599976,4.099976 25.899963,10.299988c0.799988,1 1.100037,2.200012 1.100037,3.5c0,4.399994 -4,7.299988 -7.900024,7.299988c-1.700012,0 -3.5,-0.5 -4.900024,-1.599976c-4,-3 -8.399963,-4.400024 -13.299988,-4.400024c-13.799988,0 -23,10.300018 -23,25.100006c0,14.800018 9.200012,25.200012 23,25.200012c5.100037,0 9.400024,-1.600006 13.299988,-4.600006c1.600037,-1.099976 3.200012,-1.599976 4.900024,-1.599976c4.099976,0 8.099976,3 8.099976,7.5c0,1.899994 -0.799988,3.899994 -2.599976,5.199982z" fill="#F7BE19"/>
    <path id="svg_9" d="m697.899963,108l-1,0c-2.200012,0 -7.599976,-1.899994 -7.599976,-7.799988l0,-1.400024c-5.600037,6.5 -14.600037,10.200012 -24.600037,10.200012c-12.5,0 -26.799988,-8.399994 -26.799988,-25.399994c0,-17.600006 14.299988,-24.899994 26.799988,-24.899994c10.200012,0 19.200012,3.299988 24.600037,9.799988l0,-11.700012c0,-8.699982 -7.300049,-14.099976 -17.800049,-14.099976c-6.699951,0 -12.699951,1.699982 -18.299988,5.899994c-1,0.600006 -2.200012,1.100006 -3.5,1.100006c-3.200012,0 -6.700012,-2.5 -6.700012,-6.700012c0,-1.299988 0.5,-2.700012 1.300049,-3.700012c6,-7.599976 20.199951,-10.799988 29.799988,-10.799988c17,0 32.099976,7.100006 32.099976,27.799988l0,43.300018c0.100037,4.600006 -3.699951,8.399994 -8.299988,8.399994zm-8.5,-30c-3.799988,-5.100006 -10.799988,-7.600006 -18.099976,-7.600006c-9,0 -16,5.100006 -16,13.5c0,8.100006 7,13.300018 16,13.300018c7.299988,0 14.299988,-2.5 18.099976,-7.800018l0,-11.399994z" fill="#F7BE19"/>
    <path id="svg_10" d="m787.799988,108c-4.799988,0 -8.400024,-3.799988 -8.400024,-8.399994l0,-3c-6,7.799988 -14.799988,12.399994 -24.599976,12.399994c-19.5,0 -34,-14.899994 -34,-40.200012c0,-24.799988 14.299988,-40.299988 34,-40.299988c9.5,0 18.400024,4.399994 24.599976,12.399994l0,-32.199982c0,-4.600006 3.700012,-8.400024 8.700012,-8.400024c4.400024,0 8.299988,3.800018 8.299988,8.400024l0,91c-0.099976,4.5 -3.899963,8.299988 -8.599976,8.299988zm-8.400024,-54.299988c-3.799988,-5.700012 -11.700012,-10.200012 -19.700012,-10.200012c-13,0 -21.399963,10.5 -21.399963,25.200012c0,14.600006 8.399963,25.100006 21.399963,25.100006c7.900024,0 15.900024,-4.399994 19.700012,-10l0,-30.100006z" fill="#F7BE19"/>
    <path id="svg_11" d="m879.099976,74.200012l-50.5,0c1.099976,11.399994 9.799988,21.100006 24.099976,21.100006c5.600037,0 11.900024,-1.700012 17.100037,-5.100006c1.099976,-0.600006 2.399963,-1 3.5,-1c3.5,0 7.099976,2.899994 7.099976,7c0,8.700012 -19.700012,12.700012 -29.5,12.700012c-23,0 -40.200012,-16 -40.200012,-40.300018c0,-22.199982 16.200012,-40.199982 38.900024,-40.199982c17.900024,0 31,10.799988 35.700012,27.299988c1,3.200012 1.899963,6.799988 1.899963,10.200012c0.100037,4.499969 -3.5,8.299988 -8.099976,8.299988zm-29.400024,-32.100006c-14,0 -20.5,11.100006 -21.299988,20.300018l42.5,0c-0.299988,-8.800018 -6.299988,-20.300018 -21.200012,-20.300018z" fill="#F7BE19"/>
   </g>
   <g id="svg_12">
    <path id="svg_13" d="m97.700005,74.600006l0,25.600006c0,3 -0.699997,5.899994 -2,8.200012c-0.699997,1.299988 -1.599991,2.199982 -2.5,2.799988c-0.099991,0 -31.5,18.200012 -31.5,18.200012c0,0 0,0 0,0c-7.099991,3.899963 -18.399994,3.899963 -25.599998,0c0,0 -31.599998,-18.200012 -31.700005,-18.300018c-0.900002,-0.5 -1.799995,-1.5 -2.5,-2.699982c-1.299995,-2.200012 -1.900002,-5 -1.900002,-7.800018l0,-25.799988c0,-1.5 0.299995,-2.700012 0.900002,-3.600006c1.299995,-2.299988 4.099998,-2.799988 7.300011,-1c0,0 0,0 0,0c0,0 0,0 0,0c0,0 26.5,15.299988 26.299988,15.100006c4.299995,2.299988 9.199997,3.699982 14.499992,3.699982c4.900009,0 9.5,-1.199982 13.600006,-3.199982c0,0 27.100006,-15.600006 27.100006,-15.600006c3.199997,-1.799988 6,-1.299988 7.300003,1c0.299988,0.799988 0.599991,2 0.699997,3.399994z" fill="#F7BE19"/>
    <g id="svg_14">
     <path id="svg_15" d="m67.400002,23.899994c0,3.399994 -0.900009,6.600006 -2.5,9.299988c0,0 0,0 0,0c-0.199997,0.300018 -0.300003,0.5 -0.5,0.800018c-1.100006,1.699982 -2.5,3.299988 -4.100006,4.599976l0,26.900024l0,0c0,1.299988 -0.599991,2.599976 -2,3.799988c-0.399994,0.299988 -0.800003,0.700012 -1.399994,0.899994c-4.5,2.600006 -11.800003,2.600006 -16.300003,0c-0.599998,-0.299988 -1,-0.699982 -1.5,-1c-1.300003,-1.100006 -1.900002,-2.399994 -1.900002,-3.699982c0,0 0,0 0,0l0,-26.800018c-1.599998,-1.299988 -3,-2.799988 -4.099998,-4.600006c-0.199997,-0.199982 -0.300003,-0.5 -0.5,-0.699982c0,0 0,0 0,-0.100006c-1.599998,-2.700012 -2.5,-5.899994 -2.5,-9.299988c0,-10.300018 8.400002,-18.700012 18.699997,-18.700012s18.600006,8.300018 18.600006,18.600006z" fill="#F7BE19"/>
    </g>
   </g>
  </g>
 </g>
</svg>