<?xml version="1.0"?>
<svg width="1042" height="139" xmlns="http://www.w3.org/2000/svg">

 <g>
  <title>background</title>
  <rect fill="none" id="canvas_background" height="141" width="1044" y="-1" x="-1"/>
 </g>
 <g>
  <title>Layer 1</title>
  <g id="Logo_1_">
   <g id="svg_1">
    <path id="svg_2" d="m203.100006,108.100006c-10.399994,0 -19.5,-4.899994 -25.600006,-13.300003l0,35.600006c0,3 -2.699997,5.699997 -6,5.699997c-3.099991,0 -5.799988,-2.699997 -5.799988,-5.699997l0,-95.300011c0,-3 2.699997,-5.699997 6.099991,-5.699997c3,0 5.699997,2.699997 5.699997,5.699997l0,6.600006c5.5,-7.700005 14.899994,-13.200005 25.600006,-13.200005c19.899994,0 33.799988,15.099998 33.799988,39.699997c-0.100006,24.5 -13.899994,39.900009 -33.799988,39.900009zm-3,-69.100006c-9.299988,0 -18.5,5.5 -22.600006,12.100006l0,34.199997c4.100006,6.599991 13.300018,12.199997 22.600006,12.199997c15.200012,0 24.299988,-12.600006 24.299988,-29.399994c0,-16.700012 -9.100006,-29.100006 -24.299988,-29.100006z" fill="#FFFFFF"/>
    <path id="svg_3" d="m288.600006,108.100006c-23.100006,0 -37.5,-17.899994 -37.5,-39.899994c0,-22 14.399994,-39.700005 37.5,-39.700005s37.5,17.700005 37.5,39.700005c0.100006,21.999985 -14.399994,39.899994 -37.5,39.899994zm0,-69.100006c-16.200012,0 -25.299988,13.800003 -25.299988,29.199997c0,15.5 9.099976,29.400009 25.299988,29.400009c16.200012,0 25.100006,-13.800003 25.100006,-29.400009c0.099976,-15.399994 -8.900024,-29.199997 -25.100006,-29.199997z" fill="#FFFFFF"/>
    <path id="svg_4" d="m397.399994,107.100006c-3.100006,0 -5.799988,-2.699997 -5.799988,-5.800003l0,-44.699997c0,-13.300003 -6.800018,-17.599998 -17,-17.599998c-9.300018,0 -18.100006,5.699997 -22.400024,11.799995l0,50.5c0,3.100006 -2.699982,5.800003 -6,5.800003c-3.099976,0 -5.799988,-2.699997 -5.799988,-5.800003l0,-66.199997c0,-3 2.700012,-5.699997 6.100006,-5.699997c3,0 5.699982,2.699997 5.699982,5.699997l0,6.300003c5.300018,-6.300003 15.700012,-12.900002 27,-12.900002c15.900024,0 24.200012,8 24.200012,24.500008l0,48.299988c0,3.099991 -2.699982,5.800003 -6,5.800003z" fill="#FFFFFF"/>
    <path id="svg_5" d="m486,37.300003l-35.200012,84.300003c-4.599976,10.800003 -12.599976,15.399994 -22.299988,15.399994c-4.100006,0 -9.299988,-0.299988 -9.299988,-5.299988c0,-3.100006 2.5,-5.300003 5.199982,-5.300003c1.399994,0 2.700012,0.199997 3.899994,0.199997c4.700012,0.199997 8.300018,-1.699997 11.100037,-8l5,-11.5l-28.900024,-69.699997c-0.299988,-0.599998 -0.5,-1.400002 -0.5,-2c0,-3 2.5,-5.800003 6,-5.800003c2.399994,0 4.600006,1.300003 5.5,3.599998l24.200012,59.500008l24,-59.500008c0.899963,-2.199997 3.099976,-3.599998 5.5,-3.599998c3.5,0 6.099976,2.700005 6.099976,5.800003c0.100037,0.399994 0,1.199989 -0.299988,1.899994z" fill="#FFFFFF"/>
    <path id="svg_6" d="m536,45.400002c-6.799988,0.599998 -13.200012,3.500008 -17.299988,9.299995l0,44.100006c0,4.599991 -3.799988,8.300003 -8.299988,8.300003l-0.300049,0c-4.599976,0 -8.199951,-3.800003 -8.199951,-8.300003l0,-61.200005c0,-4.400002 3.599976,-8.199997 8.599976,-8.199997c4.400024,0 8.200012,3.799995 8.200012,8.199997l0,3.900002c4.099976,-5.5 10,-12.099998 18.099976,-12.099998c4.600037,0 7.400024,3.099998 7.400024,7.199997c0,5.099998 -3.5,8.200005 -8.200012,8.800003z" fill="#FFFFFF"/>
    <path id="svg_7" d="m593.299988,108.100006c-24.299988,0 -39.099976,-18.100006 -39.099976,-39.899994c0,-21.700012 14.799988,-39.700005 39.099976,-39.700005c24.299988,0 39.099976,18.099998 39.099976,39.700005c0.000061,21.799988 -14.699951,39.899994 -39.099976,39.899994zm0,-64.700005c-14,0 -21.700012,11.599998 -21.700012,24.799995c0,13.300003 7.700012,25 21.700012,25c13.799988,0 21.5,-11.599991 21.5,-25c0,-13.199997 -7.599976,-24.799995 -21.5,-24.799995z" fill="#FFFFFF"/>
    <path id="svg_8" d="m654.900024,107.100006c-4.700012,0 -8.299988,-3.800003 -8.299988,-8.300003l0,-90.100006c0,-4.400002 3.599976,-8.199997 8.599976,-8.199997c4.400024,0 8.200012,3.799995 8.200012,8.199997l0,90.099991c-0.100037,4.500015 -3.800049,8.300018 -8.5,8.300018z" fill="#FFFFFF"/>
    <path id="svg_9" d="m745,73.699997l-49.900024,0c1.100037,11.300003 9.700012,20.899994 23.900024,20.899994c5.5,0 11.799988,-1.699997 17,-5c1.099976,-0.599991 2.400024,-0.899994 3.5,-0.899994c3.5,0 7.099976,2.800003 7.099976,6.899994c0,8.600006 -19.5,12.600006 -29.199951,12.600006c-22.800049,0 -39.700012,-15.899994 -39.700012,-39.899994c0,-22.000015 16,-39.700005 38.5,-39.700005c17.700012,0 30.599976,10.699997 35.299988,26.999992c0.900024,3.100006 1.900024,6.800003 1.900024,10c-0.300049,4.300003 -3.900024,8.100006 -8.400024,8.100006zm-29.099976,-31.699997c-13.799988,0 -20.299988,11 -21,20.100006l42.099976,0c-0.299988,-8.800003 -6.299988,-20.100006 -21.099976,-20.100006z" fill="#FFFFFF"/>
    <path id="svg_10" d="m808.099976,108.100006c-9.400024,0 -18.099976,-4.199997 -24.200012,-12.199997l0,32c0,4.399994 -3.799988,8.199997 -8.5,8.199997c-4.700012,0 -8.299988,-3.800003 -8.299988,-8.199997l0,-90.300003c0,-4.400002 3.599976,-8.200005 8.599976,-8.200005c4.400024,0 8.200012,3.800003 8.200012,8.200005l0,3c5.700012,-7.5 14.400024,-12.100006 24.200012,-12.100006c19.599976,0 33.599976,14.800003 33.599976,39.699997s-13.999939,39.900009 -33.599976,39.900009zm-5,-64.700005c-7.5,0 -15.5,4.599998 -19.200012,10.000008l0,29.699997c3.600037,5.300003 11.600037,10 19.200012,10c12.900024,0 21.200012,-10.400009 21.200012,-25c-0.099976,-14.400009 -8.399963,-24.700005 -21.200012,-24.700005z" fill="#FFFFFF"/>
    <path id="svg_11" d="m864.099976,107.100006c-4.700012,0 -8.299988,-3.800003 -8.299988,-8.300003l0,-90.100006c0,-4.400002 3.599976,-8.199997 8.599976,-8.199997c4.400024,0 8.200012,3.799995 8.200012,8.199997l0,90.099991c0,4.500015 -3.799988,8.300018 -8.5,8.300018z" fill="#FFFFFF"/>
    <path id="svg_12" d="m946.200012,107.100006l-0.900024,0c-2.199951,0 -7.5,-1.899994 -7.5,-7.699997l0,-1.400009c-5.5,6.399994 -14.399963,10 -24.299988,10c-12.399963,0 -26.5,-8.300003 -26.5,-25.100006c0,-17.399994 14.100037,-24.599991 26.5,-24.599991c10,0 19,3.300003 24.299988,9.699997l0,-11.600006c0,-8.599991 -7.199951,-13.999992 -17.599976,-13.999992c-6.599976,0 -12.599976,1.699997 -18.099976,5.799995c-0.900024,0.600006 -2.200012,1.100006 -3.5,1.100006c-3.100037,0 -6.600037,-2.500015 -6.600037,-6.600006c0,-1.299995 0.5,-2.699997 1.299988,-3.599998c6,-7.5 19.900024,-10.699997 29.5,-10.699997c16.800049,0 31.700012,7.099998 31.700012,27.499992l0,42.900009c0,4.5 -3.699951,8.300003 -8.299988,8.300003zm-8.5,-29.700012c-3.799988,-5 -10.700012,-7.5 -17.900024,-7.5c-8.899963,0 -15.899963,5 -15.899963,13.300003c0,8 6.899963,13.199997 15.899963,13.199997c7.200012,0 14.100037,-2.5 17.900024,-7.699997l0,-11.300003z" fill="#FFFFFF"/>
    <path id="svg_13" d="m1038.400024,40.699997l-32.300049,79c-5,12.399994 -14,17.300003 -24.599976,17.300003c-5.799927,0 -11.099976,-2.199997 -11.099976,-7.5c0,-4.100006 3.300049,-7.5 7.800049,-7.5c1.099976,0 2,0.199997 3.099976,0c3.799927,-0.300003 6.900024,-2 8.799927,-6.300003l3.800049,-8.5l-27.199951,-66.599998c-0.300049,-0.900002 -0.5,-1.900002 -0.5,-2.800003c0,-4.099998 3.299927,-8.299995 8.5,-8.299995c3.299927,0 6.399902,2 7.799927,5.5l20.099976,51.800003l20.100098,-51.800003c1.099976,-3.300003 4.399902,-5.5 8,-5.5c4.899902,0 8.299927,4.099998 8.299927,8.199997c0,1 -0.199951,2.100006 -0.599976,3z" fill="#FFFFFF"/>
   </g>
   <g id="svg_14">
    <path id="svg_15" d="m110.600006,102.699997c1,-0.300003 1.600006,1 0.800003,1.600006c-0.5,0.299988 -0.800003,0.599991 -1.100006,0.799988c-6.899994,5.100006 -14.199997,9.800003 -21.899994,14.200012c-7.5,4.299988 -15.100006,8.199997 -22.800003,11.599991c-1.600006,0.699997 -3.399994,-0.399994 -3.399994,-2.199997l0,-11.300003c0,-1.099991 0.699997,-2 1.799988,-2.300003l38.200012,-10.199997l0,0l8.399994,-2.199997z" fill="#FFFFFF"/>
    <path id="svg_16" d="m56.100006,117.399994l0,11.300003c0,1.699997 -1.800003,2.899994 -3.400002,2.199997c-7.699997,-3.399994 -15.299995,-7.300003 -22.799995,-11.600006c-7.599998,-4.399994 -14.900002,-9.199997 -21.900002,-14.199997c-0.199997,-0.199997 -0.599998,-0.399994 -1.099998,-0.800003c-0.800003,-0.599991 -0.200005,-1.899994 0.799995,-1.599991l46.500008,12.5c1.099991,0.199997 1.899994,1.199997 1.899994,2.199997z" fill="#FFFFFF"/>
    <path id="svg_17" d="m15.300003,46.899994c0.900002,0.500015 1.400002,1.600006 1.099998,2.700012l-12.400002,46.5c-0.300003,1 -1.699997,0.899994 -1.800003,-0.100006c-0.099998,-0.599991 -0.099998,-1 -0.199997,-1.299988l0,0c-0.900002,-8.600006 -1.400002,-17.200012 -1.400002,-26c0,-8.600006 0.5,-17.100006 1.300003,-25.500008c0.199997,-1.699997 2.099998,-2.699997 3.599998,-1.799995l9.800003,5.499985z" fill="#FFFFFF"/>
    <path id="svg_18" d="m109.699997,35.800003l-9.800003,5.599998c-0.899994,0.5 -2.099991,0.400002 -2.899994,-0.400002l-34,-34c-0.699997,-0.699997 0.100006,-1.900002 1,-1.5c0.5,0.199997 1,0.400002 1.199997,0.5c7.900009,3.5 15.600006,7.400002 23.300003,11.800003c7.5,4.299995 14.600006,9 21.399994,13.899994c1.400009,1.100006 1.300003,3.200005 -0.199997,4.100006z" fill="#FFFFFF"/>
    <path id="svg_19" d="m84.100006,42.699997l-49.700005,0c-2.099998,0 -3.199997,-2.599998 -1.699997,-4.099998l24.799995,-24.800003c0.900009,-0.899994 2.5,-0.899994 3.400009,0l24.799988,24.800003c1.600006,1.5 0.5,4.099998 -1.599991,4.099998z" fill="#FFFFFF"/>
    <path id="svg_20" d="m46.5,106.5l-33.900002,-9.100006c-1.300003,-0.299988 -2,-1.699997 -1.699997,-2.899994l9.099998,-33.900009c0.599998,-2.099991 3.299995,-2.399994 4.400002,-0.599991l24.799995,43c1.100006,1.899994 -0.599998,4.100006 -2.699997,3.5z" fill="#FFFFFF"/>
    <path id="svg_21" d="m117.800003,68.600006c0,8.800003 -0.5,17.5 -1.399994,26c0,0.300003 -0.100006,0.800003 -0.200012,1.300003c-0.099991,1 -1.5,1.099991 -1.799988,0.099991l-12.400009,-46.399994c-0.300003,-1 0.199997,-2.199997 1.100006,-2.699997l9.799988,-5.600006c1.5,-0.899994 3.400009,0.100006 3.600006,1.800003c0.800003,8.299988 1.300003,16.899994 1.300003,25.5z" fill="#FFFFFF"/>
    <path id="svg_22" d="m105.800003,97.5l-33.899994,9.100006c-2.100006,0.599991 -3.800003,-1.700012 -2.700012,-3.5l24.800003,-43c1.100006,-1.800003 3.800003,-1.5 4.399994,0.599991l9.100006,33.900009c0.399994,1.199997 -0.399994,2.5 -1.699997,2.899994z" fill="#FFFFFF"/>
    <path id="svg_23" d="m91.100006,52.600006l-29.800003,51.600006c-0.899994,1.599991 -3.199997,1.599991 -4.199997,0l-29.799995,-51.600006c-0.900002,-1.600006 0.199997,-3.600006 2.099998,-3.600006l59.599991,0c1.899994,0 3,2 2.100006,3.600006z" fill="#FFFFFF"/>
    <path id="svg_24" d="m54.399994,5.5c0.899994,-0.400002 1.699997,0.800003 1,1.5l-6.099998,6.099998l-28,28c-0.800003,0.800003 -2,0.900002 -2.900002,0.400002l-9.800003,-5.599998c-1.5,-0.900002 -1.599998,-3 -0.199997,-4c6.800003,-5 14,-9.599998 21.400002,-13.900002c7.599998,-4.400002 15.399994,-8.300003 23.299995,-11.800003c0.300003,-0.299995 0.800003,-0.5 1.300003,-0.699997z" fill="#FFFFFF"/>
   </g>
  </g>
 </g>
</svg>