<?xml version="1.0"?>
<svg width="951" height="136" xmlns="http://www.w3.org/2000/svg">

 <g>
  <title>background</title>
  <rect fill="none" id="canvas_background" height="138" width="953" y="-1" x="-1"/>
 </g>
 <g>
  <title>Layer 1</title>
  <g id="Logo_4_">
   <g id="Equestria.tv">
    <path id="svg_1" d="m240.700012,70.300003l-55.100006,0c0.899994,14.399994 11.100006,26.399994 27.5,26.399994c7.300018,0 14.5,-2.399994 20.5,-7.099991c0.800018,-0.5 1.700012,-0.800003 2.700012,-0.800003c2.100006,0 4.699982,1.899994 4.699982,4.899994c0,8.200012 -19.699982,12.800003 -29.099976,12.800003c-22.600006,0 -38.800003,-16.300003 -38.800003,-40.099991c0,-22.100006 15.800003,-39.900009 37.599991,-39.900009c18.899994,0 31.399994,12 35.399994,29.5c0.5,2.400009 1.100006,5.199997 1.100006,7.900009c0,3.399994 -2.900024,6.399994 -6.5,6.399994zm-30.200012,-34.100006c-16.299988,0 -24.299988,13.699997 -24.899994,25.399994l50.100006,0c-0.200012,-11.399994 -7.800018,-25.399994 -25.200012,-25.399994z" fill="#98D61E"/>
    <path id="svg_2" d="m326.899994,134.5c-3.200012,0 -5.799988,-2.699997 -5.799988,-5.699997l0,-35.800003c-6.200012,8.5 -15.300018,13.399994 -25.600006,13.399994c-20.100006,0 -33.899994,-15.5 -33.899994,-40.099991c0,-24.800003 13.899994,-39.900002 33.899994,-39.900002c10.699982,0 20.199982,5.5 25.600006,13.299995l0,-6.699997c0,-3 2.699982,-5.699997 6.199982,-5.699997c3,0 5.700012,2.699997 5.700012,5.699997l0,95.800003c-0.100006,3.099991 -2.799988,5.699997 -6.100006,5.699997zm-5.799988,-85.399994c-3.899994,-6.599998 -13.299988,-12.199997 -22.700012,-12.199997c-15.299988,0 -24.299988,12.5 -24.299988,29.399994c0,16.900009 9,29.5 24.299988,29.5c9.5,0 18.800018,-5.699997 22.700012,-12.300003l0,-34.399994z" fill="#98D61E"/>
    <path id="svg_3" d="m404.600006,105.5c-3.200012,0 -5.799988,-2.699997 -5.799988,-5.800003l0,-5.800003c-5.800018,6.600006 -15.800018,12.600006 -27.200012,12.600006c-15.899994,0 -24.299988,-7.699997 -24.299988,-24.300003l0,-49.199997c0,-3 2.699982,-5.699997 6.199982,-5.699997c3,0 5.700012,2.699997 5.700012,5.699997l0,45.5c0,13.399994 6.799988,17.399994 17.100006,17.399994c9.299988,0 18.199982,-5.399994 22.599976,-11.5l0,-51.399994c0,-3 2.700012,-5.699997 6.200012,-5.699997c3,0 5.700012,2.699997 5.700012,5.699997l0,66.599991c-0.200012,3.200012 -2.900024,5.900009 -6.200012,5.900009z" fill="#98D61E"/>
    <path id="svg_4" d="m492.5,70.300003l-55.100006,0c0.899994,14.399994 11.100006,26.399994 27.500031,26.399994c7.299988,0 14.5,-2.399994 20.5,-7.099991c0.799988,-0.5 1.699951,-0.800003 2.699951,-0.800003c2.100037,0 4.700012,1.899994 4.700012,4.899994c0,8.200012 -19.700012,12.800003 -29.099976,12.800003c-22.600037,0 -38.800018,-16.300003 -38.800018,-40.099991c0,-22.100006 15.800018,-39.900009 37.600006,-39.900009c18.900024,0 31.400024,12 35.400024,29.5c0.5,2.400009 1.099976,5.199997 1.099976,7.900009c0,3.399994 -2.799988,6.399994 -6.5,6.399994zm-30.099976,-34.100006c-16.299988,0 -24.299988,13.699997 -24.899994,25.399994l50.100006,0c-0.300049,-11.399994 -7.900024,-25.399994 -25.200012,-25.399994z" fill="#98D61E"/>
    <path id="svg_5" d="m541.900024,106.399994c-10.700012,0 -20.5,-2.800003 -28.400024,-9.800003c-1.099976,-0.899994 -1.699951,-2.199997 -1.699951,-3.599991c0,-2.800003 2.399963,-5.100006 5.399963,-5.100006c1.299988,0 2.400024,0.300003 3.5,1.100006c5.5,4.399994 13.400024,7.699997 21.799988,7.699997c11.700012,0 18,-5.5 18,-13.100006c0,-18.5 -47.199951,-7.099991 -47.199951,-35.399994c0,-11.800003 10.299988,-21.900002 28.399963,-21.900002c11.100037,0 19.299988,3.299995 25.900024,9c1.099976,0.899994 1.599976,2.199997 1.599976,3.5c0,2.699997 -2.200012,4.699997 -4.700012,4.699997c-1.099976,0 -2.199951,-0.300003 -3.199951,-1.099998c-4.900024,-3.800003 -11.800049,-6.5 -19.600037,-6.5c-10.399963,0 -16.899963,5.199997 -16.899963,12c0,16.699997 47.199951,5.699997 47.199951,35.399994c-0.099976,12.900009 -10.299988,23.100006 -30.099976,23.100006z" fill="#98D61E"/>
    <path id="svg_6" d="m611.900024,106.399994c-11.200012,0 -16.900024,-6.5 -16.900024,-17.800003l0,-49.900002l-8.5,0c-2.799988,0 -5.099976,-2.199997 -5.099976,-5.399994c0,-2.800003 2.200012,-5.100006 5.099976,-5.100006l8.5,0l0,-15.999992c0,-3 2.700012,-5.699997 6.200012,-5.699997c3,0 5.700012,2.699997 5.700012,5.699997l0,16.099998l11.400024,0c2.799988,0 5.099976,2.200005 5.099976,5.400002c0,2.800003 -2.200012,5.099998 -5.099976,5.099998l-11.400024,0l0,47.400002c0,5.699997 2.5,9.800003 7.700012,9.800003c2.099976,0 4.399963,-1.100006 6.299988,-1.100006c2.700012,0 5.099976,2.200012 5.099976,4.900009c-0.099976,4.899994 -7.299988,6.599991 -14.099976,6.599991z" fill="#98D61E"/>
    <path id="svg_7" d="m670.299988,39c-7.700012,0.5 -15.200012,3.900002 -20.200012,11.5l0,49.099991c0,3.200012 -2.700012,5.800003 -6,5.800003l-0.200012,0c-3.199951,-0.199997 -5.699951,-2.699997 -5.699951,-5.800003l0,-66.599991c0,-3 2.699951,-5.699997 6.199951,-5.699997c3,0 5.700012,2.699997 5.700012,5.699997l0,7.599998c4.600037,-6 12.200012,-13.599998 21,-13.599998c2.799988,0 5.400024,2.400002 5.400024,5.5c0,3.5 -2.700012,6.400002 -6.200012,6.5z" fill="#98D61E"/>
    <path id="svg_8" d="m704.700012,9.5c0,4.400002 -3.599976,7.900002 -8.099976,7.900002c-4.300049,0 -7.900024,-3.5 -7.900024,-7.900002c0,-4.400002 3.599976,-8.099998 7.900024,-8.099998c4.499939,0 8.099976,3.699997 8.099976,8.099998zm-8,96c-3.200012,0 -5.799988,-2.699997 -5.799988,-5.800003l0,-66.699997c0,-3 2.700012,-5.699997 6.200012,-5.699997c3,0 5.699951,2.699997 5.699951,5.699997l0,66.599991c-0.099976,3.200012 -2.799988,5.900009 -6.099976,5.900009z" fill="#98D61E"/>
    <path id="svg_9" d="m774.799988,105.5c-3.299988,0 -5.799988,-2.800003 -5.799988,-6.199997l0,-3.5c-6.299988,6.899994 -15,10.599991 -25.299988,10.599991c-12.900024,0 -26.700012,-8.699997 -26.700012,-25.299988c0,-17.100006 13.700012,-25.100006 26.700012,-25.100006c10.399963,0 19.099976,3.300003 25.299988,10.399994l0,-13.699997c0,-10.299995 -8.200012,-16.099998 -19.299988,-16.099998c-7.600037,0 -14.100037,2.400002 -19.900024,7.300003c-0.900024,0.800003 -2.200012,1.300003 -3.299988,1.300003c-2.5,0 -5.200012,-1.900002 -5.200012,-4.700005c0,-1.299995 0.5,-2.5 1.599976,-3.5c8.100037,-7.299995 17.5,-10.599998 28.400024,-10.599998c16.099976,0 29.5,7.300003 29.5,25.700005l0,47.5c0,3.199997 -2.700012,5.899994 -6,5.899994zm-5.799988,-31.399994c-4.599976,-6.300003 -12.599976,-9.5 -21,-9.5c-11.099976,0 -18.799988,6.899994 -18.799988,16.699997c0,9.600006 7.700012,16.600006 18.799988,16.600006c8.400024,0 16.400024,-3.199997 21,-9.5l0,-14.300003z" fill="#98D61E"/>
    <path id="svg_10" d="m803.900024,106.100006c-4.700012,0 -8.700012,-3.899994 -8.700012,-8.699997s3.900024,-8.699997 8.700012,-8.699997c4.700012,0 8.700012,3.899994 8.700012,8.699997s-4.000061,8.699997 -8.700012,8.699997z" fill="#98D61E"/>
    <path id="svg_11" d="m854.200012,106.399994c-12.900024,0 -19.700012,-6.899994 -19.700012,-19.699997l0,-43.599998l-6.299988,0c-3.900024,0 -7.299988,-3.300003 -7.299988,-7.600006c0,-3.899994 3.299988,-7.299995 7.299988,-7.299995l6.299988,0l0,-13.299995c0,-4.599998 3.799988,-8.400002 8.700012,-8.400002c4.599976,0 8.200012,3.800003 8.200012,8.400002l0,13.400002l9.299988,0c3.900024,0 7.099976,3.299995 7.099976,7.599998c0,3.900002 -3.199951,7.300003 -7.099976,7.300003l-9.299988,0l0,39.299995c0,5.800003 3.299988,9 7.299988,9c1.099976,0 2.5,-0.5 3.5,-0.5c4.599976,0 7.400024,3.199997 7.400024,7.300003c-0.100037,5 -4.600037,8.099991 -15.400024,8.099991z" fill="#98D61E"/>
    <path id="svg_12" d="m950.400024,38.699997l-24,58.899994c-2.099976,4.700012 -6.599976,7.900009 -11.799988,7.900009l-0.299988,0c-5.200012,0 -9.900024,-3.199997 -11.800049,-7.900009l-24,-58.899994c-0.5,-0.900002 -0.599976,-2.099998 -0.599976,-3c0,-4.099998 3.5,-8.199997 8.5,-8.199997c3.5,0 6.5,1.899994 7.700012,5.099998l20.399963,52.400002l20.200012,-52.300003c1.299988,-3.299995 4.400024,-5.199997 7.700012,-5.199997c5.200012,0 8.700012,3.900002 8.700012,8.400002c-0.100037,0.799995 -0.200012,1.900002 -0.700012,2.799995z" fill="#98D61E"/>
   </g>
   <path d="m124.699997,66.5c0,6.800003 -2.699997,13 -7.100006,17.5c-0.099991,0.100006 -0.399994,0.399994 -0.399994,0.399994c-3.5,3.400009 -7,6.700012 -10.699997,9.800003c-4.800003,4 -9.699997,7.699997 -14.800003,11.199997c-5.300003,3.600006 -10.800003,6.900009 -16.399994,9.800003c-2.200012,-4.399994 -0.700012,-9.800003 3.5,-12.399994c0,0 0,0 0,0c0.199997,-0.100006 0.299988,-0.199997 0.5,-0.300003c0,0 0,0 0,0c2.399994,-1.399994 4.5,-3.199997 6.399994,-5.399994c1.899994,-2.200012 3.300003,-4.700012 4.300003,-7.300003c0.5,-1.400009 0.899994,-2.900009 1.199997,-4.300003c0,0 0,-0.199997 0.100006,-0.300003c0,0 0,0 0,0c0.099991,-1.099991 -0.600006,-2.199997 -1.700012,-2.399994c0,0 -0.199997,0 -0.199997,0c-0.599991,-0.100006 -1.199997,-0.199997 -1.800003,-0.199997c0.800003,-2.800003 1.100006,-5.600006 0.900009,-8.300003c-0.199997,-3 -0.900009,-5.900009 -2.100006,-8.600006c0,0 0,0 0,0c-0.599991,-1.300003 -1.199997,-2.5 -2,-3.699997c1.800003,0.699997 3.699997,1 5.600006,1c0.099991,0 0.099991,0 0.199997,0c2.100006,0 4.199997,-0.800003 6,-2.199997c2.300003,-1.900009 3.399994,-4.600006 3.399994,-7.300003l0,0c0,-4.199997 -1,-8.200005 -2.899994,-11.599998c-2.100006,-4 -5.199997,-7.300003 -8.899994,-9.700005c-3.900009,-2.400002 -8.400009,-3.799995 -13.300003,-3.799995c-3,0 -5.900009,0.5 -8.600006,1.5c-2.800003,1 -5.399994,2.5 -7.599991,4.399994l0,0c-2.200005,1.800003 -4.000008,4 -5.500008,6.5c-0.199997,-0.299995 -0.5,-0.5 -0.699997,-0.699997c-1.099998,-0.900002 -2.5,-1.400002 -3.800003,-1.400002c0,-8.599998 -6.899994,-15.5 -15.5,-15.5c-8.599998,0 -15.5,6.900002 -15.5,15.5c0,0.099998 0,0.200005 0,0.300003c0,3.799995 0.900002,7.299995 2.400002,10.5c1.5,3.199997 3.800003,6.100006 6.5,8.399994c0,0 0.099998,0.100006 0.099998,0.100006c1.400002,1.199997 2.400002,2.699997 2.900002,4.399994c1,3 0.400002,6.5 -1.799995,9.100006c-3.400002,4.100006 -9.5,4.600006 -13.5,1.199997c-1.300003,-1.099991 -2.200005,-2.399994 -2.700005,-3.800003c-1,1.600006 -1.799995,3.5 -2.099998,5.5c-1,5.700012 1.199997,11.200012 5.300003,14.600006c2,1.699997 4.5,2.899994 7.199997,3.399994c5.099998,0.900009 10.099998,-0.799988 13.599998,-4.199997c1.099998,5.5 3.900002,10.600006 8.5,14.5c6.599998,5.5 7.400002,15.300003 1.900002,21.900009c-3,3.5 -7.199997,5.399994 -11.5,5.5c0,0 0,0 -0.099998,0c-0.200005,0 -0.5,0 -0.700005,0l0,0c-4.099998,-0.100006 -8.299995,-1.200012 -12.099998,-3.400009c-5.799995,-3.300003 -9.699997,-8.599991 -11.5,-14.599991c0,0 0,0 0,0c-0.099998,-0.200012 -0.299995,-1.100006 -0.400002,-1.400009c-7.899994,-30 -7.399994,-60.199997 0.100006,-88.199997c0,0 0,0 0,0c0,-0.199997 0.099998,-0.400002 0.099998,-0.5c0,0 0,0 0,0c1.699997,-6.099998 5.699997,-11.5 11.599998,-14.899994c5.699997,-3.300003 12.099998,-4.100006 18,-2.800003c0,0 0,0 0,0c0.599998,0.199997 1.300003,0.300003 1.900002,0.5c0,0 0,0 0,0c27.800003,7.599998 54.199997,22.299995 76.099991,44.099991c0.100006,0.100006 0.400009,0.400009 0.400009,0.400009c4.399994,4.199997 7.199997,10.300003 7.199997,17.199997z" fill="#98D61E" id="Trademark"/>
  </g>
 </g>
</svg>